{
.appVersion = "1352";
DisplayStrings = (
"hr/schwa rr/schwa.ss01 sa/space/space/space/space"
);
copyright = "Copyright 2016-2021 The Hurricane Project Authors (https://github.com/googlefonts/hurricane)";
customParameters = (
{
name = description;
value = "©2016 by Robert E. Leuschke. All rights reserved.";
},
{
name = trademark;
value = "Hurricane is a trademark of Robert E. Leuschke.";
},
{
name = licenseURL;
value = "http://www.typesetit.com/license.html";
},
{
name = license;

glyphs = (
{
color = 3;
glyphname = .notdef;
lastChange = "2021-08-03 12:26:09 +0000";
layers = (
{
layerId = "C7EEC47D-2D39-4E2B-85C4-E2E866CE7804";
paths = (
{
closed = 1;
nodes = (
"438 -5 LINE",
"449 7 LINE",
"449 575 LINE",
"438 587 LINE",
"47 587 LINE",
"35 575 LINE",
"35 7 LINE",
"47 -5 LINE"
);
},
{
closed = 1;
nodes = (
"142 139 LINE",
"225 292 LINE",
"142 443 LINE",
"153 465 LINE",
"236 314 LINE",
"321 466 LINE",
"334 443 LINE",
"248 290 LINE",
"334 139 LINE",
"321 117 LINE",
"236 267 LINE",
"153 117 LINE"
);
},
{
closed = 1;
nodes = (
"61 561 LINE",
"425 561 LINE",
"425 21 LINE",
"61 21 LINE"
);
},
{
closed = 1;
nodes = (
"402 40 LINE",
"402 538 LINE",
"82 538 LINE",
"82 40 LINE"
);
}
);
width = 484;
}
);
note = .notdef;
},
{
color = 3;
glyphname = quotedbl;
lastChange = "2021-08-03 12:26:09 +0000";
layers = (
{
hints = (
{
horizontal = 1;
place = "{423, 177}";
type = Stem;
},
{
place = "{155, 232}";
type = Stem;
}
);
layerId = "C7EEC47D-2D39-4E2B-85C4-E2E866CE7804";
paths = (
{
closed = 1;
nodes = (
"179 428 OFFCURVE",
"267 539 OFFCURVE",
"273 553 CURVE SMOOTH",
"278 562 OFFCURVE",
"278 584 OFFCURVE",
"273 592 CURVE SMOOTH",
"270 598 OFFCURVE",
"260 603 OFFCURVE",
"251 598 CURVE SMOOTH",
"243 595 OFFCURVE",
"239 587 OFFCURVE",
"234 579 CURVE",
"225 559 OFFCURVE",
"146 436 OFFCURVE",
"156 425 CURVE",
"157 423 OFFCURVE",
"165 421 OFFCURVE",
"169 424 CURVE"
);
},
{
closed = 1;
nodes = (
"289 428 OFFCURVE",
"377 539 OFFCURVE",
"383 553 CURVE SMOOTH",
"388 562 OFFCURVE",
"388 584 OFFCURVE",
"383 592 CURVE SMOOTH",
"380 598 OFFCURVE",
"370 603 OFFCURVE",
"361 598 CURVE SMOOTH",
"353 595 OFFCURVE",
"349 587 OFFCURVE",
"344 579 CURVE",
"335 559 OFFCURVE",
"256 436 OFFCURVE",
"266 425 CURVE",
"267 423 OFFCURVE",
"275 421 OFFCURVE",
"279 424 CURVE"
);
}
);
width = 387;
}
);
note = quotedbl;
unicode = 0022;
},
{
color = 3;
glyphname = numbersign;
lastChange = "2021-08-03 12:26:09 +0000";
layers = (
{
hints = (
{
horizontal = 1;
place = "{211, 46}";
type = Stem;
},
{
horizontal = 1;
place = "{432, 41}";
type = Stem;
}
);
layerId = "C7EEC47D-2D39-4E2B-85C4-E2E866CE7804";
paths = (
{
closed = 1;
nodes = (
"767 653 OFFCURVE",
"722 648 OFFCURVE",
"714 636 CURVE SMOOTH",
"585 438 LINE",
"430 438 LINE",
"467 499 OFFCURVE",
"507 564 OFFCURVE",
"553 634 CURVE SMOOTH",
"565 653 OFFCURVE",
"520 648 OFFCURVE",
"512 636 CURVE SMOOTH",
"383 438 LINE",
"242 438 LINE SMOOTH",
"193 438 OFFCURVE",
"126 397 OFFCURVE",
"177 397 CURVE SMOOTH",
"357 397 LINE",
"266 258 LINE",
"168 258 LINE SMOOTH",
"119 258 OFFCURVE",
"52 217 OFFCURVE",
"103 217 CURVE SMOOTH",
"240 217 LINE",
"109 15 LINE SMOOTH",
"89 -15 OFFCURVE",
"154 -16 OFFCURVE",
"166 5 CURVE SMOOTH",
"214 78 OFFCURVE",
"257 147 OFFCURVE",
"298 217 CURVE",
"442 217 LINE",
"311 15 LINE SMOOTH",
"291 -15 OFFCURVE",
"356 -16 OFFCURVE",
"368 5 CURVE SMOOTH",
"416 78 OFFCURVE",
"459 147 OFFCURVE",
"500 217 CURVE",
"622 217 LINE SMOOTH",
"686 217 OFFCURVE",
"768 226 OFFCURVE",
"768 244 CURVE SMOOTH",
"768 256 OFFCURVE",
"697 258 OFFCURVE",
"671 258 CURVE SMOOTH",
"525 258 LINE",
"552 303 OFFCURVE",
"578 350 OFFCURVE",
"607 397 CURVE",
"696 397 LINE SMOOTH",
"760 397 OFFCURVE",
"842 406 OFFCURVE",
"842 424 CURVE SMOOTH",
"842 436 OFFCURVE",
"771 438 OFFCURVE",
"745 438 CURVE SMOOTH",
"632 438 LINE",
"669 499 OFFCURVE",
"709 564 OFFCURVE",
"755 634 CURVE SMOOTH"
);
},
{
closed = 1;
nodes = (
"559 397 LINE",
"468 258 LINE",
"323 258 LINE",
"350 303 OFFCURVE",
"376 350 OFFCURVE",
"405 397 CURVE"
);
}
);
width = 791;
}
);
note = numbersign;
unicode = 0023;
},
{
color = 3;
glyphname = dollar;
lastChange = "2021-08-23 23:22:55 +0000";
layers = (
{
hints = (
{
horizontal = 1;
place = "{206, 14}";
type = Stem;
},
{
horizontal = 1;
place = "{484, 14}";
type = Stem;
},
{
place = "{8, 21}";
type = Stem;
},
{
place = "{35, 24}";
type = Stem;
},
{
place = "{184, 39}";
type = Stem;
},
{
place = "{411, 44}";
type = Stem;
},
{
place = "{504, 27}";
type = Stem;
}
);
layerId = "C7EEC47D-2D39-4E2B-85C4-E2E866CE7804";
paths = (
{
closed = 1;
nodes = (
"9 -169 LINE SMOOTH",
"-5 -192 OFFCURVE",
"57 -164 OFFCURVE",
"67 -149 CURVE SMOOTH",
"146 -24 LINE",
"153 -26 OFFCURVE",
"160 -27 OFFCURVE",
"164 -27 CURVE",
"199 -32 OFFCURVE",
"303 -26 OFFCURVE",
"311 26 CURVE SMOOTH",
"316 60 OFFCURVE",
"285 101 OFFCURVE",
"251 143 CURVE",
"453 465 LINE",
"459 465 LINE",
"479 462 OFFCURVE",
"517 454 OFFCURVE",
"512 424 CURVE SMOOTH",
"501 361 OFFCURVE",
"404 297 OFFCURVE",
"390 272 CURVE SMOOTH",
"388 269 OFFCURVE",
"390 268 OFFCURVE",
"392 267 CURVE",
"396 267 OFFCURVE",
"399 268 OFFCURVE",
"403 269 CURVE",
"455 291 OFFCURVE",
"547 343 OFFCURVE",
"558 407 CURVE SMOOTH",
"566 455 OFFCURVE",
"514 483 OFFCURVE",
"471 494 CURVE",
"547 614 LINE SMOOTH",
"571 651 OFFCURVE",
"495 617 OFFCURVE",
"481 591 CURVE SMOOTH",
"462 560 OFFCURVE",
"443 530 OFFCURVE",
"424 501 CURVE",
"319 507 OFFCURVE",
"165 455 OFFCURVE",
"143 329 CURVE SMOOTH",
"131 259 OFFCURVE",
"171 198 OFFCURVE",
"208 150 CURVE",
"182 108 OFFCURVE",
"155 65 OFFCURVE",
"128 20 CURVE",
"110 23 OFFCURVE",
"96 35 OFFCURVE",
"79 36 CURVE",
"75 38 OFFCURVE",
"72 36 OFFCURVE",
"71 32 CURVE SMOOTH",
"68 15 OFFCURVE",
"87 0 OFFCURVE",
"109 -10 CURVE"
);
},
{
closed = 1;
nodes = (
"190 379 OFFCURVE",
"307 447 OFFCURVE",
"400 463 CURVE",
"224 177 LINE",
"194 215 OFFCURVE",
"169 254 OFFCURVE",
"175 287 CURVE SMOOTH"
);
},
{
closed = 1;
nodes = (
"257 30 OFFCURVE",
"210 20 OFFCURVE",
"172 18 CURVE",
"235 117 LINE",
"253 94 OFFCURVE",
"266 76 OFFCURVE",
"264 64 CURVE SMOOTH"
);
}
);
width = 537;
}
);
note = dollar;
unicode = 0024;
},
{
color = 3;
glyphname = percent;
lastChange = "2021-08-03 12:26:09 +0000";
layers = (
{
hints = (
{
horizontal = 1;
place = "{-82, 30}";
type = Stem;
},
{
horizontal = 1;
place = "{374, 30}";
type = Stem;
},
{
horizontal = 1;
place = "{597, 31}";
type = Stem;
},
{
place = "{95, 47}";
type = Stem;
},
{
place = "{295, 47}";
type = Stem;
}
);
layerId = "C7EEC47D-2D39-4E2B-85C4-E2E866CE7804";
paths = (
{
closed = 1;
nodes = (
"595 545 OFFCURVE",
"583 551 OFFCURVE",
"574 551 CURVE SMOOTH",
"573 551 OFFCURVE",
"570 549 OFFCURVE",
"569 549 CURVE",
"515 524 OFFCURVE",
"396 489 OFFCURVE",
"337 489 CURVE SMOOTH",
"335 489 OFFCURVE",
"330 489 OFFCURVE",
"329 490 CURVE",
"331 500 OFFCURVE",
"333 509 OFFCURVE",
"333 519 CURVE SMOOTH",
"333 545 OFFCURVE",
"319 561 OFFCURVE",
"288 561 CURVE SMOOTH",
"222 561 OFFCURVE",
"88 402 OFFCURVE",
"88 344 CURVE SMOOTH",
"88 320 OFFCURVE",
"104 290 OFFCURVE",
"134 290 CURVE SMOOTH",
"220 290 OFFCURVE",
"287 368 OFFCURVE",
"313 408 CURVE SMOOTH",
"320 419 OFFCURVE",
"332 447 OFFCURVE",
"332 461 CURVE SMOOTH",
"332 462 OFFCURVE",
"331 463 OFFCURVE",
"331 465 CURVE",
"388 465 OFFCURVE",
"484 496 OFFCURVE",
"535 518 CURVE",
"410 350 OFFCURVE",
"190 187 OFFCURVE",
"106 -9 CURVE SMOOTH",
"100 -24 OFFCURVE",
"87 -94 OFFCURVE",
"121 -94 CURVE SMOOTH",
"126 -94 OFFCURVE",
"141 -87 OFFCURVE",
"141 -81 CURVE SMOOTH",
"141 -80 OFFCURVE",
"141 -80 OFFCURVE",
"139 -79 CURVE",
"131 -72 OFFCURVE",
"130 -69 OFFCURVE",
"130 -59 CURVE SMOOTH",
"130 -50 OFFCURVE",
"132 -42 OFFCURVE",
"135 -34 CURVE SMOOTH",
"153 9 OFFCURVE",
"193 60 OFFCURVE",
"222 98 CURVE SMOOTH",
"312 218 OFFCURVE",
"412 332 OFFCURVE",
"514 443 CURVE SMOOTH",
"587 521 LINE SMOOTH",
"591 525 OFFCURVE",
"595 530 OFFCURVE",
"595 536 CURVE SMOOTH"
);
},
{
closed = 1;
nodes = (
"520 134 OFFCURVE",
"507 128 OFFCURVE",
"504 133 CURVE",
"506 142 OFFCURVE",
"508 152 OFFCURVE",
"508 161 CURVE SMOOTH",
"508 188 OFFCURVE",
"494 204 OFFCURVE",
"463 204 CURVE SMOOTH",
"397 204 OFFCURVE",
"263 44 OFFCURVE",
"263 -14 CURVE SMOOTH",
"263 -37 OFFCURVE",
"280 -68 OFFCURVE",
"309 -68 CURVE SMOOTH",
"323 -68 LINE SMOOTH",
"380 -68 OFFCURVE",
"455 19 OFFCURVE",
"481 59 CURVE SMOOTH",
"488 70 OFFCURVE",
"500 90 OFFCURVE",
"500 103 CURVE SMOOTH",
"500 105 OFFCURVE",
"499 106 OFFCURVE",
"499 107 CURVE",
"506 109 OFFCURVE",
"520 116 OFFCURVE",
"520 124 CURVE SMOOTH"
);
},
{
closed = 1;
nodes = (
"476 80 OFFCURVE",
"372 -44 OFFCURVE",
"325 -44 CURVE SMOOTH",
"308 -44 OFFCURVE",
"304 -32 OFFCURVE",
"304 -20 CURVE SMOOTH",
"304 22 OFFCURVE",
"420 168 OFFCURVE",
"464 169 CURVE",
"473 157 OFFCURVE",
"448 116 OFFCURVE",
"476 120 CURVE"
);
},
{
closed = 1;
nodes = (
"302 422 OFFCURVE",
"196 313 OFFCURVE",
"150 313 CURVE SMOOTH",
"133 313 OFFCURVE",
"129 325 OFFCURVE",
"129 338 CURVE SMOOTH",
"129 379 OFFCURVE",
"223 498 OFFCURVE",
"268 498 CURVE",
"277 487 OFFCURVE",
"290 470 OFFCURVE",
"303 462 CURVE"
);
}
);
width = 701;
}
);
note = percent;
unicode = 0025;
},
{
color = 3;
glyphname = ampersand;
lastChange = "2021-08-03 12:26:09 +0000";
layers = (
{
hints = (
{
horizontal = 1;
place = "{-251, 15}";
type = Stem;
},
{
horizontal = 1;
place = "{273, 15}";
type = Stem;
},
{
horizontal = 1;
place = "{310, 17}";
type = Stem;
},
{
horizontal = 1;
place = "{404, 21}";
target = up;
type = BottomGhost;
},
{
horizontal = 1;
place = "{522, 21}";
target = up;
type = BottomGhost;
},
{
place = "{27, 55}";
type = Stem;
},
{
place = "{199, 25}";
type = Stem;
},
{
place = "{281, 42}";
type = Stem;
},
{
place = "{429, 30}";
type = Stem;
},
{
place = "{539, 34}";
type = Stem;
},
{
place = "{628, 30}";
type = Stem;
},
{
place = "{740, 19}";
type = Stem;
}
);
layerId = "C7EEC47D-2D39-4E2B-85C4-E2E866CE7804";
paths = (
{
closed = 1;
nodes = (
"610 419 OFFCURVE",
"667 476 OFFCURVE",
"658 531 CURVE",
"673 547 OFFCURVE",
"690 575 OFFCURVE",
"711 596 CURVE SMOOTH",
"734 618 OFFCURVE",
"687 595 OFFCURVE",
"686 594 CURVE SMOOTH",
"637 549 LINE",
"612 556 OFFCURVE",
"587 568 OFFCURVE",
"538 568 CURVE SMOOTH",
"392 568 OFFCURVE",
"229 421 OFFCURVE",
"307 314 CURVE",
"210 287 OFFCURVE",
"114 233 OFFCURVE",
"55 140 CURVE SMOOTH",
"43 122 OFFCURVE",
"34 100 OFFCURVE",
"34 75 CURVE SMOOTH",
"34 16 OFFCURVE",
"92 -14 OFFCURVE",
"146 -26 CURVE",
"141 -43 OFFCURVE",
"139 -61 OFFCURVE",
"139 -80 CURVE SMOOTH",
"139 -113 OFFCURVE",
"149 -146 OFFCURVE",
"170 -180 CURVE SMOOTH",
"179 -195 OFFCURVE",
"210 -203 OFFCURVE",
"193 -183 CURVE SMOOTH",
"174 -160 OFFCURVE",
"166 -108 OFFCURVE",
"166 -83 CURVE SMOOTH",
"166 -65 OFFCURVE",
"169 -47 OFFCURVE",
"174 -31 CURVE",
"187 -32 OFFCURVE",
"200 -33 OFFCURVE",
"210 -33 CURVE SMOOTH",
"317 -32 OFFCURVE",
"415 6 OFFCURVE",
"498 67 CURVE SMOOTH",
"519 83 OFFCURVE",
"545 107 OFFCURVE",
"561 129 CURVE SMOOTH",
"573 146 OFFCURVE",
"584 165 OFFCURVE",
"584 187 CURVE SMOOTH",
"584 200 OFFCURVE",
"579 211 OFFCURVE",
"571 218 CURVE",
"686 242 OFFCURVE",
"821 270 OFFCURVE",
"773 349 CURVE SMOOTH",
"766 360 OFFCURVE",
"740 362 OFFCURVE",
"741 334 CURVE SMOOTH",
"743 245 OFFCURVE",
"535 248 OFFCURVE",
"448 223 CURVE SMOOTH",
"349 195 OFFCURVE",
"211 116 OFFCURVE",
"159 7 CURVE",
"125 17 OFFCURVE",
"94 38 OFFCURVE",
"94 80 CURVE SMOOTH",
"94 102 OFFCURVE",
"102 122 OFFCURVE",
"111 140 CURVE SMOOTH",
"158 222 OFFCURVE",
"240 269 OFFCURVE",
"322 295 CURVE",
"350 274 OFFCURVE",
"386 267 OFFCURVE",
"418 267 CURVE SMOOTH",
"437 267 OFFCURVE",
"469 270 OFFCURVE",
"482 293 CURVE SMOOTH",
"485 298 OFFCURVE",
"487 304 OFFCURVE",
"487 311 CURVE SMOOTH",
"487 333 OFFCURVE",
"452 335 OFFCURVE",
"439 335 CURVE SMOOTH",
"408 335 OFFCURVE",
"371 332 OFFCURVE",
"340 325 CURVE",
"335 334 OFFCURVE",
"333 346 OFFCURVE",
"333 358 CURVE SMOOTH",
"333 382 OFFCURVE",
"342 406 OFFCURVE",
"352 425 CURVE SMOOTH",
"392 498 OFFCURVE",
"481 540 OFFCURVE",
"547 540 CURVE SMOOTH",
"562 540 OFFCURVE",
"595 539 OFFCURVE",
"611 524 CURVE",
"555 470 LINE SMOOTH",
"537 452 OFFCURVE",
"501 419 OFFCURVE",
"542 419 CURVE SMOOTH"
);
},
{
closed = 1;
nodes = (
"488 200 OFFCURVE",
"511 206 OFFCURVE",
"537 211 CURVE",
"545 205 OFFCURVE",
"551 196 OFFCURVE",
"551 183 CURVE SMOOTH",
"551 165 OFFCURVE",
"537 145 OFFCURVE",
"526 131 CURVE SMOOTH",
"449 41 OFFCURVE",
"338 -2 OFFCURVE",
"229 -2 CURVE SMOOTH",
"217 -2 OFFCURVE",
"203 -1 OFFCURVE",
"188 1 CURVE",
"240 95 OFFCURVE",
"372 161 OFFCURVE",
"470 194 CURVE SMOOTH"
);
},
{
closed = 1;
nodes = (
"454 301 LINE",
"447 289 OFFCURVE",
"433 286 OFFCURVE",
"422 286 CURVE SMOOTH",
"401 286 OFFCURVE",
"379 292 OFFCURVE",
"360 303 CURVE",
"384 309 OFFCURVE",
"408 312 OFFCURVE",
"432 312 CURVE SMOOTH",
"437 312 OFFCURVE",
"455 313 OFFCURVE",
"454 304 CURVE SMOOTH"
);
}
);
width = 793;
}
);
note = ampersand;
unicode = 0026;
},
{
color = 3;
glyphname = quotesingle;
lastChange = "2021-08-03 12:26:09 +0000";
layers = (
{
hints = (
{
horizontal = 1;
place = "{423, 177}";
type = Stem;
},
{
place = "{155, 122}";
type = Stem;
}
);
layerId = "C7EEC47D-2D39-4E2B-85C4-E2E866CE7804";
paths = (
{
closed = 1;
nodes = (
"179 428 OFFCURVE",
"267 539 OFFCURVE",
"273 553 CURVE SMOOTH",
"278 562 OFFCURVE",
"278 584 OFFCURVE",
"273 592 CURVE SMOOTH",
"270 598 OFFCURVE",
"260 603 OFFCURVE",
"251 598 CURVE SMOOTH",
"243 595 OFFCURVE",
"239 587 OFFCURVE",
"234 579 CURVE",
"225 559 OFFCURVE",
"146 436 OFFCURVE",
"156 425 CURVE",
"157 423 OFFCURVE",
"165 421 OFFCURVE",
"169 424 CURVE"
);
}
);
width = 277;
}
);
note = quotesingle;
unicode = 0027;
},
{
color = 3;
glyphname = parenleft;
lastChange = "2021-08-03 12:26:09 +0000";
layers = (
{
hints = (
{
horizontal = 1;
place = "{-34, 25}";
type = Stem;
},
{
horizontal = 1;
place = "{737, 23}";
type = Stem;
},
{
place = "{-5, 57}";
type = Stem;
}
);
layerId = "C7EEC47D-2D39-4E2B-85C4-E2E866CE7804";
paths = (
{
closed = 1;
nodes = (
"584 760 OFFCURVE",
"544 751 OFFCURVE",
"514 743 CURVE SMOOTH",
"336 697 OFFCURVE",
"115 547 OFFCURVE",
"36 376 CURVE SMOOTH",
"12 323 OFFCURVE",
"-5 264 OFFCURVE",
"-5 206 CURVE SMOOTH",
"-5 87 OFFCURVE",
"68 -19 OFFCURVE",
"191 -34 CURVE",
"196 -34 LINE SMOOTH",
"203 -34 OFFCURVE",
"224 -31 OFFCURVE",
"224 -20 CURVE SMOOTH",
"224 -11 OFFCURVE",
"206 -10 OFFCURVE",
"201 -9 CURVE SMOOTH",
"184 -7 OFFCURVE",
"169 -5 OFFCURVE",
"153 1 CURVE SMOOTH",
"81 26 OFFCURVE",
"52 91 OFFCURVE",
"52 163 CURVE SMOOTH",
"52 235 OFFCURVE",
"79 310 OFFCURVE",
"112 373 CURVE SMOOTH",
"189 520 OFFCURVE",
"332 658 OFFCURVE",
"490 711 CURVE SMOOTH",
"530 725 OFFCURVE",
"569 731 OFFCURVE",
"610 737 CURVE SMOOTH",
"614 738 OFFCURVE",
"635 739 OFFCURVE",
"635 748 CURVE SMOOTH",
"635 755 OFFCURVE",
"620 760 OFFCURVE",
"615 760 CURVE SMOOTH"
);
}
);
width = 375;
}
);
note = parenleft;
unicode = 0028;
},
{
color = 3;
glyphname = parenright;
lastChange = "2021-08-03 12:26:09 +0000";
layers = (
{
hints = (
{
horizontal = 1;
place = "{-35, 23}";
type = Stem;
},
{
horizontal = 1;
place = "{734, 25}";
type = Stem;
},
{
place = "{592, 57}";
type = Stem;
}
);
layerId = "C7EEC47D-2D39-4E2B-85C4-E2E866CE7804";
paths = (
{
closed = 1;
nodes = (
"61 -35 OFFCURVE",
"100 -26 OFFCURVE",
"131 -18 CURVE SMOOTH",
"309 28 OFFCURVE",
"529 178 OFFCURVE",
"608 349 CURVE SMOOTH",
"633 402 OFFCURVE",
"649 461 OFFCURVE",
"649 520 CURVE SMOOTH",
"649 639 OFFCURVE",
"576 744 OFFCURVE",
"453 759 CURVE",
"448 759 LINE SMOOTH",
"442 759 OFFCURVE",
"421 756 OFFCURVE",
"421 745 CURVE SMOOTH",
"421 736 OFFCURVE",
"438 735 OFFCURVE",
"443 734 CURVE SMOOTH",
"460 732 OFFCURVE",
"475 730 OFFCURVE",
"492 724 CURVE SMOOTH",
"564 699 OFFCURVE",
"593 633 OFFCURVE",
"593 561 CURVE SMOOTH",
"593 489 OFFCURVE",
"566 414 OFFCURVE",
"533 351 CURVE SMOOTH",
"456 205 OFFCURVE",
"311 67 OFFCURVE",
"154 14 CURVE SMOOTH",
"114 0 OFFCURVE",
"75 -6 OFFCURVE",
"34 -12 CURVE SMOOTH",
"30 -13 OFFCURVE",
"9 -14 OFFCURVE",
"9 -23 CURVE SMOOTH",
"9 -30 OFFCURVE",
"25 -35 OFFCURVE",
"30 -35 CURVE SMOOTH"
);
}
);
width = 651;
}
);
note = parenright;
unicode = 0029;
},
{
color = 3;
glyphname = asterisk;
lastChange = "2021-08-03 12:26:09 +0000";
layers = (
{
hints = (
{
horizontal = 1;
place = "{337, 26}";
type = Stem;
},
{
place = "{144, 136}";
type = Stem;
}
);
layerId = "C7EEC47D-2D39-4E2B-85C4-E2E866CE7804";
paths = (
{
closed = 1;
nodes = (
"229 338 OFFCURVE",
"325 338 OFFCURVE",
"325 356 CURVE SMOOTH",
"325 364 OFFCURVE",
"306 364 OFFCURVE",
"301 364 CURVE SMOOTH",
"222 364 LINE",
"238 375 OFFCURVE",
"295 413 OFFCURVE",
"295 433 CURVE SMOOTH",
"295 436 OFFCURVE",
"293 438 OFFCURVE",
"290 438 CURVE SMOOTH",
"279 438 OFFCURVE",
"205 383 OFFCURVE",
"202 381 CURVE",
"207 409 OFFCURVE",
"214 437 OFFCURVE",
"214 465 CURVE SMOOTH",
"214 470 OFFCURVE",
"214 493 OFFCURVE",
"206 493 CURVE SMOOTH",
"198 493 OFFCURVE",
"193 466 OFFCURVE",
"192 459 CURVE SMOOTH",
"174 385 LINE",
"123 449 LINE",
"120 454 OFFCURVE",
"108 461 OFFCURVE",
"103 461 CURVE SMOOTH",
"98 461 OFFCURVE",
"96 458 OFFCURVE",
"96 454 CURVE SMOOTH",
"96 442 OFFCURVE",
"142 379 OFFCURVE",
"151 367 CURVE",
"62 363 LINE SMOOTH",
"57 363 OFFCURVE",
"39 358 OFFCURVE",
"39 351 CURVE SMOOTH",
"39 333 OFFCURVE",
"130 338 OFFCURVE",
"143 338 CURVE",
"77 290 LINE SMOOTH",
"73 287 OFFCURVE",
"65 276 OFFCURVE",
"65 271 CURVE SMOOTH",
"65 266 OFFCURVE",
"69 265 OFFCURVE",
"73 265 CURVE SMOOTH",
"93 265 OFFCURVE",
"151 313 OFFCURVE",
"159 319 CURVE",
"156 299 OFFCURVE",
"145 256 OFFCURVE",
"145 239 CURVE SMOOTH",
"145 233 OFFCURVE",
"146 218 OFFCURVE",
"154 218 CURVE SMOOTH",
"168 218 OFFCURVE",
"189 302 OFFCURVE",
"192 317 CURVE",
"205 302 OFFCURVE",
"258 241 OFFCURVE",
"276 241 CURVE SMOOTH",
"279 241 OFFCURVE",
"281 243 OFFCURVE",
"281 246 CURVE SMOOTH",
"281 254 OFFCURVE",
"216 337 OFFCURVE",
"216 337 CURVE"
);
}
);
width = 352;
}
);
note = asterisk;
unicode = 002A;
},
{
color = 3;
glyphname = plus;
lastChange = "2021-08-03 12:26:09 +0000";
layers = (
{
hints = (
{
horizontal = 1;
place = "{67, 194}";
type = Stem;
}
);
layerId = "C7EEC47D-2D39-4E2B-85C4-E2E866CE7804";
paths = (
{
closed = 1;
nodes = (
"222 377 OFFCURVE",
"202 319 OFFCURVE",
"185 260 CURVE",
"138 260 OFFCURVE",
"91 259 OFFCURVE",
"44 259 CURVE SMOOTH",
"32 259 OFFCURVE",
"19 247 OFFCURVE",
"19 235 CURVE SMOOTH",
"19 214 OFFCURVE",
"151 212 OFFCURVE",
"171 212 CURVE",
"167 197 OFFCURVE",
"139 103 OFFCURVE",
"139 93 CURVE SMOOTH",
"139 83 OFFCURVE",
"146 67 OFFCURVE",
"158 67 CURVE SMOOTH",
"178 67 OFFCURVE",
"217 196 OFFCURVE",
"223 216 CURVE",
"247 220 OFFCURVE",
"397 236 OFFCURVE",
"397 259 CURVE SMOOTH",
"397 260 OFFCURVE",
"396 261 OFFCURVE",
"396 262 CURVE",
"365 259 OFFCURVE",
"333 260 OFFCURVE",
"302 260 CURVE SMOOTH",
"231 260 LINE",
"237 307 OFFCURVE",
"246 355 OFFCURVE",
"246 402 CURVE SMOOTH",
"246 408 OFFCURVE",
"246 439 OFFCURVE",
"234 437 CURVE"
);
}
);
width = 406;
}
);
note = plus;
unicode = 002B;
},
{
color = 3;
glyphname = comma;
lastChange = "2021-08-03 12:26:09 +0000";
layers = (
{
hints = (
{
horizontal = 1;
place = "{-125, 178}";
type = Stem;
},
{
place = "{35, 142}";
type = Stem;
}
);
layerId = "C7EEC47D-2D39-4E2B-85C4-E2E866CE7804";
paths = (
{
closed = 1;
nodes = (
"59 -120 OFFCURVE",
"154 -10 OFFCURVE",
"165 0 CURVE SMOOTH",
"183 17 OFFCURVE",
"177 33 OFFCURVE",
"172 41 CURVE SMOOTH",
"169 47 OFFCURVE",
"148 57 OFFCURVE",
"139 52 CURVE SMOOTH",
"131 49 OFFCURVE",
"127 41 OFFCURVE",
"122 33 CURVE",
"113 13 OFFCURVE",
"26 -112 OFFCURVE",
"36 -123 CURVE",
"37 -125 OFFCURVE",
"45 -127 OFFCURVE",
"49 -124 CURVE"
);
}
);
width = 146;
}
);
note = comma;
unicode = 002C;
},
{
color = 3;
glyphname = hyphen;
lastChange = "2021-08-03 12:26:09 +0000";
layers = (
{
hints = (
{
horizontal = 1;
place = "{216, 37}";
type = Stem;
},
{
place = "{107, 271}";
type = Stem;
}
);
layerId = "C7EEC47D-2D39-4E2B-85C4-E2E866CE7804";
paths = (
{
closed = 1;
nodes = (
"284 216 LINE SMOOTH",
"325 216 OFFCURVE",
"378 225 OFFCURVE",
"378 241 CURVE SMOOTH",
"378 252 OFFCURVE",
"333 253 OFFCURVE",
"316 253 CURVE SMOOTH",
"161 253 LINE SMOOTH",
"129 253 OFFCURVE",
"86 216 OFFCURVE",
"119 216 CURVE SMOOTH"
);
}
);
width = 402;
}
);
note = hyphen;
unicode = 002D;
},
{
color = 3;
glyphname = period;
lastChange = "2021-08-03 12:26:09 +0000";
layers = (
{
hints = (
{
horizontal = 1;
place = "{-30, 64}";
type = Stem;
}
);
layerId = "C7EEC47D-2D39-4E2B-85C4-E2E866CE7804";
paths = (
{
closed = 1;
nodes = (
"173 58 OFFCURVE",
"161 69 OFFCURVE",
"150 69 CURVE SMOOTH",
"130 69 OFFCURVE",
"99 33 OFFCURVE",
"99 16 CURVE SMOOTH",
"99 -3 OFFCURVE",
"122 -6 OFFCURVE",
"134 -6 CURVE SMOOTH",
"145 -6 OFFCURVE",
"171 35 OFFCURVE",
"172 45 CURVE SMOOTH"
);
}
);
width = 258;
}
);
note = period;
unicode = 002E;
},
{
color = 3;
glyphname = colon;
lastChange = "2021-08-03 12:26:09 +0000";
layers = (
{
hints = (
{
horizontal = 1;
place = "{19, -20}";
target = down;
type = TopGhost;
}
);
layerId = "C7EEC47D-2D39-4E2B-85C4-E2E866CE7804";
paths = (
{
closed = 1;
nodes = (
"272 240 OFFCURVE",
"260 251 OFFCURVE",
"249 251 CURVE SMOOTH",
"229 251 OFFCURVE",
"198 215 OFFCURVE",
"198 198 CURVE SMOOTH",
"198 179 OFFCURVE",
"221 176 OFFCURVE",
"233 176 CURVE SMOOTH",
"244 176 OFFCURVE",
"270 217 OFFCURVE",
"271 227 CURVE SMOOTH"
);
},
{
closed = 1;
nodes = (
"173 58 OFFCURVE",
"161 69 OFFCURVE",
"150 69 CURVE SMOOTH",
"130 69 OFFCURVE",
"99 33 OFFCURVE",
"99 16 CURVE SMOOTH",
"99 -3 OFFCURVE",
"122 -6 OFFCURVE",
"134 -6 CURVE SMOOTH",
"145 -6 OFFCURVE",
"171 35 OFFCURVE",
"172 45 CURVE SMOOTH"
);
}
);
width = 310;
}
);
note = colon;
unicode = 003A;
},
{
color = 3;
glyphname = semicolon;
lastChange = "2021-08-03 12:26:09 +0000";
layers = (
{
hints = (
{
horizontal = 1;
place = "{-125, 368}";
type = Stem;
},
{
place = "{35, 232}";
type = Stem;
},
{
horizontal = 1;
place = "{176, 67}";
type = Stem;
},
{
place = "{201, 66}";
type = Stem;
}
);
layerId = "C7EEC47D-2D39-4E2B-85C4-E2E866CE7804";
paths = (
{
closed = 1;
nodes = (
"268 234 OFFCURVE",
"257 243 OFFCURVE",
"247 243 CURVE SMOOTH",
"229 243 OFFCURVE",
"201 211 OFFCURVE",
"201 196 CURVE SMOOTH",
"201 179 OFFCURVE",
"222 176 OFFCURVE",
"233 176 CURVE SMOOTH",
"243 176 OFFCURVE",
"266 213 OFFCURVE",
"267 222 CURVE SMOOTH"
);
},
{
closed = 1;
nodes = (
"59 -120 OFFCURVE",
"154 -10 OFFCURVE",
"165 0 CURVE SMOOTH",
"183 17 OFFCURVE",
"177 33 OFFCURVE",
"172 41 CURVE SMOOTH",
"169 47 OFFCURVE",
"148 57 OFFCURVE",
"139 52 CURVE SMOOTH",
"131 49 OFFCURVE",
"127 41 OFFCURVE",
"122 33 CURVE",
"113 13 OFFCURVE",
"26 -112 OFFCURVE",
"36 -123 CURVE",
"37 -125 OFFCURVE",
"45 -127 OFFCURVE",
"49 -124 CURVE"
);
}
);
width = 291;
}
);
note = semicolon;
unicode = 003B;
},
{
color = 3;
glyphname = less;
lastChange = "2021-08-03 12:26:09 +0000";
layers = (
{
hints = (
{
place = "{85, 45}";
type = Stem;
}
);
layerId = "C7EEC47D-2D39-4E2B-85C4-E2E866CE7804";
paths = (
{
closed = 1;
nodes = (
"145 237 OFFCURVE",
"146 235 OFFCURVE",
"147 233 CURVE",
"182 192 OFFCURVE",
"216 162 OFFCURVE",
"238 110 CURVE",
"252 104 OFFCURVE",
"256 110 OFFCURVE",
"258 117 CURVE SMOOTH",
"263 135 OFFCURVE",
"213 234 OFFCURVE",
"203 256 CURVE",
"222 273 OFFCURVE",
"360 375 OFFCURVE",
"365 385 CURVE",
"366 389 OFFCURVE",
"364 392 OFFCURVE",
"360 393 CURVE SMOOTH",
"352 394 OFFCURVE",
"345 390 OFFCURVE",
"337 385 CURVE SMOOTH",
"311 367 OFFCURVE",
"151 256 OFFCURVE",
"146 239 CURVE SMOOTH"
);
}
);
width = 318;
}
);
note = less;
unicode = 003C;
},
{
color = 3;
glyphname = equal;
lastChange = "2021-08-03 12:26:09 +0000";
layers = (
{
hints = (
{
horizontal = 1;
place = "{212, 49}";
type = Stem;
},
{
horizontal = 1;
place = "{332, 49}";
type = Stem;
}
);
layerId = "C7EEC47D-2D39-4E2B-85C4-E2E866CE7804";
paths = (
{
closed = 1;
nodes = (
"353 144 LINE SMOOTH",
"394 144 OFFCURVE",
"447 153 OFFCURVE",
"447 169 CURVE SMOOTH",
"447 180 OFFCURVE",
"402 181 OFFCURVE",
"385 181 CURVE SMOOTH",
"181 181 LINE SMOOTH",
"149 181 OFFCURVE",
"106 144 OFFCURVE",
"139 144 CURVE SMOOTH"
);
},
{
closed = 1;
nodes = (
"411 259 LINE SMOOTH",
"452 259 OFFCURVE",
"505 268 OFFCURVE",
"505 284 CURVE SMOOTH",
"505 295 OFFCURVE",
"460 296 OFFCURVE",
"443 296 CURVE SMOOTH",
"239 296 LINE SMOOTH",
"207 296 OFFCURVE",
"164 259 OFFCURVE",
"197 259 CURVE SMOOTH"
);
}
);
width = 478;
}
);
note = equal;
unicode = 003D;
},
{
color = 3;
glyphname = greater;
lastChange = "2021-08-03 12:26:09 +0000";
layers = (
{
hints = (
{
place = "{184, 45}";
type = Stem;
}
);
layerId = "C7EEC47D-2D39-4E2B-85C4-E2E866CE7804";
paths = (
{
closed = 1;
nodes = (
"328 261 OFFCURVE",
"327 263 OFFCURVE",
"326 265 CURVE",
"291 306 OFFCURVE",
"257 336 OFFCURVE",
"235 388 CURVE",
"221 394 OFFCURVE",
"217 388 OFFCURVE",
"215 381 CURVE SMOOTH",
"210 363 OFFCURVE",
"260 264 OFFCURVE",
"270 242 CURVE",
"251 225 OFFCURVE",
"113 123 OFFCURVE",
"108 113 CURVE",
"107 109 OFFCURVE",
"109 106 OFFCURVE",
"113 105 CURVE SMOOTH",
"121 104 OFFCURVE",
"128 108 OFFCURVE",
"136 113 CURVE SMOOTH",
"162 131 OFFCURVE",
"322 242 OFFCURVE",
"327 259 CURVE SMOOTH"
);
}
);
width = 357;
}
);
note = greater;
unicode = 003E;
},
{
color = 3;
glyphname = question;
lastChange = "2021-08-03 12:26:09 +0000";
layers = (
{
hints = (
{
place = "{99, 72}";
type = Stem;
}
);
layerId = "C7EEC47D-2D39-4E2B-85C4-E2E866CE7804";
paths = (
{
closed = 1;
nodes = (
"246 230 OFFCURVE",
"309 259 OFFCURVE",
"373 282 CURVE SMOOTH",
"447 309 OFFCURVE",
"583 365 OFFCURVE",
"583 463 CURVE SMOOTH",
"583 540 OFFCURVE",
"499 567 OFFCURVE",
"435 567 CURVE SMOOTH",
"340 567 OFFCURVE",
"258 541 OFFCURVE",
"258 469 CURVE SMOOTH",
"258 452 OFFCURVE",
"269 430 OFFCURVE",
"285 430 CURVE",
"290 431 OFFCURVE",
"291 436 OFFCURVE",
"291 440 CURVE SMOOTH",
"291 451 OFFCURVE",
"287 462 OFFCURVE",
"287 473 CURVE SMOOTH",
"287 527 OFFCURVE",
"380 535 OFFCURVE",
"416 535 CURVE SMOOTH",
"461 535 OFFCURVE",
"541 512 OFFCURVE",
"541 455 CURVE SMOOTH",
"541 451 OFFCURVE",
"541 446 OFFCURVE",
"539 442 CURVE SMOOTH",
"492 317 OFFCURVE",
"229 288 OFFCURVE",
"190 185 CURVE SMOOTH",
"170 132 OFFCURVE",
"203 156 OFFCURVE",
"211 169 CURVE SMOOTH"
);
},
{
closed = 1;
nodes = (
"173 58 OFFCURVE",
"161 69 OFFCURVE",
"150 69 CURVE SMOOTH",
"130 69 OFFCURVE",
"99 33 OFFCURVE",
"99 16 CURVE SMOOTH",
"99 -3 OFFCURVE",
"122 -6 OFFCURVE",
"134 -6 CURVE SMOOTH",
"145 -6 OFFCURVE",
"171 35 OFFCURVE",
"172 45 CURVE SMOOTH"
);
}
);
width = 510;
}
);
note = question;
unicode = 003F;
},
{
color = 3;
glyphname = at;
lastChange = "2021-08-03 12:26:09 +0000";
layers = (
{
hints = (
{
horizontal = 1;
place = "{26, 21}";
type = Stem;
},
{
horizontal = 1;
place = "{183, 22}";
type = Stem;
},
{
horizontal = 1;
place = "{488, 36}";
type = Stem;
},
{
horizontal = 1;
place = "{615, 23}";
type = Stem;
},
{
horizontal = 1;
place = "{693, 23}";
type = Stem;
},
{
place = "{14, 53}";
type = Stem;
},
{
place = "{791, 30}";
type = Stem;
}
);
layerId = "C7EEC47D-2D39-4E2B-85C4-E2E866CE7804";
paths = (
{
closed = 1;
nodes = (
"835 507 OFFCURVE",
"777 595 OFFCURVE",
"607 583 CURVE SMOOTH",
"412 567 OFFCURVE",
"229 414 OFFCURVE",
"178 301 CURVE SMOOTH",
"97 125 OFFCURVE",
"172 25 OFFCURVE",
"289 19 CURVE SMOOTH",
"407 13 OFFCURVE",
"543 36 OFFCURVE",
"685 161 CURVE SMOOTH",
"773 238 OFFCURVE",
"805 329 OFFCURVE",
"785 400 CURVE",
"784 402 OFFCURVE",
"792 416 OFFCURVE",
"793 418 CURVE SMOOTH"
);
},
{
closed = 1;
nodes = (
"716 516 OFFCURVE",
"589 535 OFFCURVE",
"500 507 CURVE",
"492 503 OFFCURVE",
"489 489 OFFCURVE",
"506 493 CURVE SMOOTH",
"531 501 OFFCURVE",
"591 500 OFFCURVE",
"617 493 CURVE SMOOTH",
"673 477 OFFCURVE",
"730 437 OFFCURVE",
"739 373 CURVE",
"740 373 OFFCURVE",
"739 372 OFFCURVE",
"739 371 CURVE",
"725 354 OFFCURVE",
"667 288 OFFCURVE",
"611 236 CURVE SMOOTH",
"599 225 OFFCURVE",
"500 130 OFFCURVE",
"490 190 CURVE SMOOTH",
"487 208 OFFCURVE",
"502 239 OFFCURVE",
"521 269 CURVE SMOOTH",
"541 299 OFFCURVE",
"564 329 OFFCURVE",
"575 346 CURVE SMOOTH",
"585 361 OFFCURVE",
"591 371 OFFCURVE",
"591 375 CURVE",
"589 381 OFFCURVE",
"580 395 OFFCURVE",
"566 395 CURVE SMOOTH",
"562 395 OFFCURVE",
"558 392 OFFCURVE",
"554 392 CURVE",
"548 415 OFFCURVE",
"534 426 OFFCURVE",
"511 426 CURVE SMOOTH",
"420 426 OFFCURVE",
"265 278 OFFCURVE",
"275 192 CURVE SMOOTH",
"279 166 OFFCURVE",
"311 146 OFFCURVE",
"337 146 CURVE SMOOTH",
"369 146 OFFCURVE",
"431 211 OFFCURVE",
"454 233 CURVE",
"456 234 OFFCURVE",
"458 234 OFFCURVE",
"457 231 CURVE SMOOTH",
"452 203 OFFCURVE",
"455 169 OFFCURVE",
"492 156 CURVE SMOOTH",
"573 127 OFFCURVE",
"686 282 OFFCURVE",
"737 336 CURVE SMOOTH",
"739 338 OFFCURVE",
"741 337 OFFCURVE",
"740 334 CURVE",
"733 287 OFFCURVE",
"701 229 OFFCURVE",
"628 164 CURVE SMOOTH",
"537 84 OFFCURVE",
"419 29 OFFCURVE",
"297 36 CURVE SMOOTH",
"42 51 OFFCURVE",
"262 523 OFFCURVE",
"590 554 CURVE SMOOTH",
"645 559 OFFCURVE",
"736 557 OFFCURVE",
"763 518 CURVE SMOOTH",
"792 479 OFFCURVE",
"775 439 OFFCURVE",
"771 430 CURVE"
);
},
{
closed = 1;
nodes = (
"546 386 OFFCURVE",
"545 384 OFFCURVE",
"545 384 CURVE",
"543 381 OFFCURVE",
"539 375 OFFCURVE",
"534 370 CURVE",
"498 320 OFFCURVE",
"396 164 OFFCURVE",
"329 164 CURVE SMOOTH",
"315 164 OFFCURVE",
"310 179 OFFCURVE",
"310 184 CURVE",
"296 268 OFFCURVE",
"516 439 OFFCURVE",
"545 386 CURVE"
);
}
);
width = 842;
}
);
note = at;
unicode = 0040;
},
{
color = 3;
glyphname = A;
lastChange = "2021-08-03 12:26:09 +0000";
layers = (
{
hints = (
{
horizontal = 1;
place = "{542, 33}";
type = Stem;
},
{
place = "{344, 29}";
type = Stem;
}
);
layerId = "C7EEC47D-2D39-4E2B-85C4-E2E866CE7804";
paths = (
{
closed = 1;
nodes = (
"485 218 OFFCURVE",
"615 504 OFFCURVE",
"615 547 CURVE SMOOTH",
"615 568 OFFCURVE",
"570 575 OFFCURVE",
"555 575 CURVE SMOOTH",
"446 575 OFFCURVE",
"188 341 OFFCURVE",
"118 254 CURVE",
"88 246 OFFCURVE",
"-28 255 OFFCURVE",
"-38 226 CURVE",
"-36 218 OFFCURVE",
"-25 211 OFFCURVE",
"-17 211 CURVE SMOOTH",
"17 211 OFFCURVE",
"52 212 OFFCURVE",
"86 212 CURVE",
"41 155 OFFCURVE",
"-39 23 OFFCURVE",
"-39 -49 CURVE SMOOTH",
"-39 -56 OFFCURVE",
"-28 -75 OFFCURVE",
"-20 -75 CURVE SMOOTH",
"-16 -75 OFFCURVE",
"-15 -70 OFFCURVE",
"-15 -67 CURVE",
"5 12 OFFCURVE",
"104 214 OFFCURVE",
"169 214 CURVE SMOOTH",
"216 214 OFFCURVE",
"405 219 OFFCURVE",
"405 245 CURVE SMOOTH",
"405 257 OFFCURVE",
"329 259 OFFCURVE",
"318 259 CURVE SMOOTH",
"177 259 LINE",
"284 383 OFFCURVE",
"384 479 OFFCURVE",
"540 542 CURVE",
"527 485 OFFCURVE",
"450 242 OFFCURVE",
"408 133 CURVE SMOOTH",
"375 47 OFFCURVE",
"335 -59 OFFCURVE",
"382 -78 CURVE SMOOTH",
"386 -80 OFFCURVE",
"395 -74 OFFCURVE",
"394 -72 CURVE SMOOTH",
"381 -48 OFFCURVE",
"389 -6 OFFCURVE",
"432 98 CURVE SMOOTH"
);
}
);
width = 469;
}
);
note = A;
unicode = 0041;
},
{
color = 3;
glyphname = B;
lastChange = "2021-08-03 12:26:09 +0000";
layers = (
{
hints = (
{
horizontal = 1;
place = "{258, 25}";
type = Stem;
},
{
horizontal = 1;
place = "{552, 50}";
type = Stem;
},
{
place = "{562, 44}";
type = Stem;
},
{
place = "{697, 26}";
type = Stem;
}
);
layerId = "C7EEC47D-2D39-4E2B-85C4-E2E866CE7804";
paths = (
{
closed = 1;
nodes = (
"710 574 OFFCURVE",
"429 602 OFFCURVE",
"331 602 CURVE SMOOTH",
"300 602 OFFCURVE",
"166 587 OFFCURVE",
"171 537 CURVE SMOOTH",
"171 533 OFFCURVE",
"181 533 OFFCURVE",
"182 533 CURVE SMOOTH",
"196 533 OFFCURVE",
"210 538 OFFCURVE",
"223 542 CURVE SMOOTH",
"256 553 OFFCURVE",
"311 553 OFFCURVE",
"346 553 CURVE SMOOTH",
"364 553 OFFCURVE",
"381 553 OFFCURVE",
"398 552 CURVE",
"312 457 OFFCURVE",
"123 163 OFFCURVE",
"137 27 CURVE SMOOTH",
"137 22 OFFCURVE",
"139 15 OFFCURVE",
"141 7 CURVE",
"114 10 LINE SMOOTH",
"97 12 OFFCURVE",
"80 13 OFFCURVE",
"63 13 CURVE SMOOTH",
"60 13 OFFCURVE",
"45 13 OFFCURVE",
"46 7 CURVE SMOOTH",
"48 -18 OFFCURVE",
"143 -22 OFFCURVE",
"163 -24 CURVE SMOOTH",
"165 -24 LINE SMOOTH",
"314 -37 OFFCURVE",
"616 31 OFFCURVE",
"605 141 CURVE SMOOTH",
"598 209 OFFCURVE",
"533 264 OFFCURVE",
"469 281 CURVE",
"536 313 OFFCURVE",
"732 347 OFFCURVE",
"723 446 CURVE SMOOTH"
);
},
{
closed = 1;
nodes = (
"167 99 OFFCURVE",
"220 190 OFFCURVE",
"267 262 CURVE",
"267 251 OFFCURVE",
"278 231 OFFCURVE",
"291 231 CURVE SMOOTH",
"314 231 OFFCURVE",
"365 258 OFFCURVE",
"407 258 CURVE SMOOTH",
"456 258 OFFCURVE",
"555 231 OFFCURVE",
"561 169 CURVE SMOOTH",
"570 78 OFFCURVE",
"325 7 OFFCURVE",
"169 6 CURVE"
);
},
{
closed = 1;
nodes = (
"705 370 OFFCURVE",
"375 283 OFFCURVE",
"302 283 CURVE SMOOTH",
"278 283 LINE",
"317 368 OFFCURVE",
"383 437 OFFCURVE",
"440 510 CURVE SMOOTH",
"443 514 OFFCURVE",
"446 519 OFFCURVE",
"445 525 CURVE SMOOTH",
"444 534 OFFCURVE",
"437 542 OFFCURVE",
"432 549 CURVE",
"487 550 OFFCURVE",
"690 521 OFFCURVE",
"696 454 CURVE SMOOTH"
);
}
);
width = 594;
}
);
note = B;
unicode = 0042;
},
{
color = 3;
glyphname = C;
lastChange = "2021-08-03 12:26:09 +0000";
layers = (
{
hints = (
{
horizontal = 1;
place = "{-32, 29}";
type = Stem;
},
{
horizontal = 1;
place = "{565, 24}";
type = Stem;
},
{
place = "{45, 56}";
type = Stem;
},
{
place = "{543, 40}";
type = Stem;
}
);
layerId = "C7EEC47D-2D39-4E2B-85C4-E2E866CE7804";
paths = (
{
closed = 1;
nodes = (
"358 -35 OFFCURVE",
"539 71 OFFCURVE",
"625 159 CURVE SMOOTH",
"637 171 OFFCURVE",
"635 187 OFFCURVE",
"629 182 CURVE SMOOTH",
"581 145 OFFCURVE",
"371 -6 OFFCURVE",
"215 -4 CURVE SMOOTH",
"161 -3 OFFCURVE",
"107 26 OFFCURVE",
"101 85 CURVE SMOOTH",
"86 251 OFFCURVE",
"331 569 OFFCURVE",
"501 565 CURVE SMOOTH",
"523 565 OFFCURVE",
"541 555 OFFCURVE",
"543 532 CURVE SMOOTH",
"549 471 OFFCURVE",
"502 463 OFFCURVE",
"492 440 CURVE",
"493 433 OFFCURVE",
"505 432 OFFCURVE",
"510 432 CURVE SMOOTH",
"554 431 OFFCURVE",
"587 466 OFFCURVE",
"583 511 CURVE SMOOTH",
"579 558 OFFCURVE",
"539 588 OFFCURVE",
"494 589 CURVE SMOOTH",
"315 592 OFFCURVE",
"29 299 OFFCURVE",
"45 117 CURVE SMOOTH",
"54 15 OFFCURVE",
"132 -31 OFFCURVE",
"226 -32 CURVE SMOOTH"
);
}
);
width = 554;
}
);
note = C;
unicode = 0043;
},
{
color = 3;
glyphname = D;
lastChange = "2021-08-03 12:26:09 +0000";
layers = (
{
hints = (
{
horizontal = 1;
place = "{-22, 39}";
type = Stem;
},
{
horizontal = 1;
place = "{557, 39}";
type = Stem;
}
);
layerId = "C7EEC47D-2D39-4E2B-85C4-E2E866CE7804";
paths = (
{
closed = 1;
nodes = (
"649 569 OFFCURVE",
"424 596 OFFCURVE",
"269 596 CURVE SMOOTH",
"240 596 OFFCURVE",
"86 584 OFFCURVE",
"92 537 CURVE SMOOTH",
"92 533 OFFCURVE",
"102 533 OFFCURVE",
"103 533 CURVE SMOOTH",
"117 533 OFFCURVE",
"131 538 OFFCURVE",
"144 542 CURVE SMOOTH",
"189 557 OFFCURVE",
"244 557 OFFCURVE",
"293 557 CURVE SMOOTH",
"419 557 OFFCURVE",
"617 555 OFFCURVE",
"636 383 CURVE SMOOTH",
"654 214 OFFCURVE",
"346 34 OFFCURVE",
"197 34 CURVE SMOOTH",
"192 34 OFFCURVE",
"146 34 OFFCURVE",
"147 23 CURVE SMOOTH",
"148 11 OFFCURVE",
"203 -1 OFFCURVE",
"217 -1 CURVE SMOOTH",
"402 -1 OFFCURVE",
"694 157 OFFCURVE",
"671 367 CURVE SMOOTH"
);
},
{
closed = 1;
nodes = (
"72 176 OFFCURVE",
"384 490 OFFCURVE",
"382 507 CURVE SMOOTH",
"380 522 OFFCURVE",
"348 538 OFFCURVE",
"335 538 CURVE SMOOTH",
"261 538 OFFCURVE",
"44 117 OFFCURVE",
"53 33 CURVE SMOOTH",
"55 14 OFFCURVE",
"68 -22 OFFCURVE",
"92 -22 CURVE SMOOTH",
"115 -22 OFFCURVE",
"134 3 OFFCURVE",
"132 26 CURVE",
"132 26 OFFCURVE",
"131 31 OFFCURVE",
"129 31 CURVE SMOOTH",
"125 31 OFFCURVE",
"113 18 OFFCURVE",
"99 18 CURVE SMOOTH",
"90 18 OFFCURVE",
"88 24 OFFCURVE",
"87 32 CURVE SMOOTH"
);
}
);
width = 587;
}
);
note = D;
unicode = 0044;
},
{
color = 3;
glyphname = E;
lastChange = "2021-08-03 12:26:09 +0000";
layers = (
{
hints = (
{
horizontal = 1;
place = "{-26, 50}";
type = Stem;
},
{
horizontal = 1;
place = "{549, 35}";
type = Stem;
}
);
layerId = "C7EEC47D-2D39-4E2B-85C4-E2E866CE7804";
paths = (
{
closed = 1;
nodes = (
"699 501 OFFCURVE",
"734 559 OFFCURVE",
"680 575 CURVE",
"632 583 OFFCURVE",
"583 584 OFFCURVE",
"536 584 CURVE SMOOTH",
"489 584 OFFCURVE",
"268 586 OFFCURVE",
"274 529 CURVE SMOOTH",
"277 505 OFFCURVE",
"290 517 OFFCURVE",
"297 504 CURVE",
"257 454 OFFCURVE",
"208 339 OFFCURVE",
"133 339 CURVE SMOOTH",
"124 339 OFFCURVE",
"96 347 OFFCURVE",
"98 330 CURVE SMOOTH",
"101 303 OFFCURVE",
"141 303 OFFCURVE",
"159 302 CURVE",
"130 242 OFFCURVE",
"79 157 OFFCURVE",
"87 85 CURVE SMOOTH",
"97 4 OFFCURVE",
"154 -26 OFFCURVE",
"228 -26 CURVE SMOOTH",
"332 -26 OFFCURVE",
"604 65 OFFCURVE",
"657 142 CURVE SMOOTH",
"663 151 OFFCURVE",
"664 160 OFFCURVE",
"650 153 CURVE SMOOTH",
"551 98 OFFCURVE",
"352 13 OFFCURVE",
"231 13 CURVE SMOOTH",
"40 13 OFFCURVE",
"197 261 OFFCURVE",
"215 300 CURVE",
"323 345 OFFCURVE",
"456 324 OFFCURVE",
"571 343 CURVE SMOOTH",
"581 345 OFFCURVE",
"630 362 OFFCURVE",
"596 366 CURVE SMOOTH",
"560 370 OFFCURVE",
"522 369 OFFCURVE",
"486 369 CURVE SMOOTH",
"409 369 OFFCURVE",
"333 358 OFFCURVE",
"256 360 CURVE",
"279 391 OFFCURVE",
"370 506 OFFCURVE",
"396 523 CURVE SMOOTH",
"425 543 OFFCURVE",
"558 549 OFFCURVE",
"598 549 CURVE SMOOTH",
"619 549 OFFCURVE",
"656 550 OFFCURVE",
"677 541 CURVE"
);
}
);
width = 589;
}
);
note = E;
unicode = 0045;
},
{
color = 3;
glyphname = F;
lastChange = "2021-08-03 12:26:09 +0000";
layers = (
{
hints = (
{
horizontal = 1;
place = "{542, 34}";
type = Stem;
},
{
place = "{66, 52}";
type = Stem;
}
);
layerId = "C7EEC47D-2D39-4E2B-85C4-E2E866CE7804";
paths = (
{
closed = 1;
nodes = (
"816 542 OFFCURVE",
"785 576 OFFCURVE",
"738 576 CURVE SMOOTH",
"663 576 OFFCURVE",
"524 574 OFFCURVE",
"449 571 CURVE SMOOTH",
"376 568 OFFCURVE",
"259 546 OFFCURVE",
"325 495 CURVE",
"280 442 OFFCURVE",
"246 376 OFFCURVE",
"208 318 CURVE",
"192 316 OFFCURVE",
"154 307 OFFCURVE",
"154 287 CURVE SMOOTH",
"154 278 OFFCURVE",
"161 271 OFFCURVE",
"167 266 CURVE",
"133 208 OFFCURVE",
"66 92 OFFCURVE",
"66 27 CURVE SMOOTH",
"66 -31 OFFCURVE",
"149 -25 OFFCURVE",
"105 10 CURVE SMOOTH",
"100 14 OFFCURVE",
"100 25 OFFCURVE",
"100 30 CURVE SMOOTH",
"100 65 OFFCURVE",
"195 253 OFFCURVE",
"219 253 CURVE SMOOTH",
"326 253 OFFCURVE",
"450 267 OFFCURVE",
"554 281 CURVE SMOOTH",
"575 284 OFFCURVE",
"659 314 OFFCURVE",
"580 314 CURVE SMOOTH",
"518 314 OFFCURVE",
"457 308 OFFCURVE",
"394 308 CURVE SMOOTH",
"366 308 OFFCURVE",
"285 308 OFFCURVE",
"261 317 CURVE",
"343 446 OFFCURVE",
"368 520 OFFCURVE",
"532 531 CURVE SMOOTH",
"600 536 OFFCURVE",
"668 542 OFFCURVE",
"736 542 CURVE SMOOTH"
);
}
);
width = 484;
}
);
note = F;
unicode = 0046;
},
{
color = 3;
glyphname = G;
lastChange = "2021-08-03 12:26:09 +0000";
layers = (
{
hints = (
{
horizontal = 1;
place = "{-30, 45}";
type = Stem;
},
{
horizontal = 1;
place = "{227, 34}";
type = Stem;
},
{
horizontal = 1;
place = "{569, 39}";
type = Stem;
},
{
place = "{37, 34}";
type = Stem;
},
{
place = "{523, 44}";
type = Stem;
},
{
place = "{669, 40}";
type = Stem;
}
);
layerId = "C7EEC47D-2D39-4E2B-85C4-E2E866CE7804";
paths = (
{
closed = 1;
nodes = (
"857 264 OFFCURVE",
"693 261 OFFCURVE",
"674 261 CURVE SMOOTH",
"621 261 OFFCURVE",
"253 256 OFFCURVE",
"253 184 CURVE SMOOTH",
"253 137 OFFCURVE",
"306 175 OFFCURVE",
"407 200 CURVE",
"453 206 OFFCURVE",
"616 237 OFFCURVE",
"652 224 CURVE",
"616 101 OFFCURVE",
"312 15 OFFCURVE",
"198 15 CURVE SMOOTH",
"146 15 OFFCURVE",
"71 27 OFFCURVE",
"71 94 CURVE SMOOTH",
"71 269 OFFCURVE",
"448 569 OFFCURVE",
"613 569 CURVE SMOOTH",
"641 569 OFFCURVE",
"669 559 OFFCURVE",
"669 527 CURVE SMOOTH",
"669 471 OFFCURVE",
"603 426 OFFCURVE",
"603 412 CURVE SMOOTH",
"603 406 OFFCURVE",
"609 404 OFFCURVE",
"614 404 CURVE SMOOTH",
"660 404 OFFCURVE",
"708 462 OFFCURVE",
"708 507 CURVE SMOOTH",
"708 558 OFFCURVE",
"666 608 OFFCURVE",
"613 608 CURVE SMOOTH",
"393 608 OFFCURVE",
"37 337 OFFCURVE",
"37 105 CURVE SMOOTH",
"37 10 OFFCURVE",
"94 -30 OFFCURVE",
"184 -30 CURVE SMOOTH",
"298 -30 OFFCURVE",
"484 41 OFFCURVE",
"578 105 CURVE",
"563 71 OFFCURVE",
"523 18 OFFCURVE",
"523 -18 CURVE SMOOTH",
"523 -36 OFFCURVE",
"531 -57 OFFCURVE",
"552 -57 CURVE SMOOTH",
"557 -57 OFFCURVE",
"563 -55 OFFCURVE",
"568 -53 CURVE",
"552 13 OFFCURVE",
"692 230 OFFCURVE",
"784 230 CURVE SMOOTH",
"797 230 OFFCURVE",
"857 221 OFFCURVE",
"857 237 CURVE SMOOTH"
);
}
);
width = 750;
}
);
note = G;
unicode = 0047;
},
{
color = 3;
glyphname = H;
lastChange = "2021-08-03 12:26:09 +0000";
layers = (
{
hints = (
{
horizontal = 1;
place = "{-46, 17}";
type = Stem;
},
{
horizontal = 1;
place = "{599, -20}";
target = down;
type = TopGhost;
},
{
place = "{10, 72}";
type = Stem;
},
{
place = "{428, 27}";
type = Stem;
}
);
layerId = "C7EEC47D-2D39-4E2B-85C4-E2E866CE7804";
paths = (
{
closed = 1;
nodes = (
"633 358 OFFCURVE",
"710 464 OFFCURVE",
"798 546 CURVE SMOOTH",
"802 550 OFFCURVE",
"805 554 OFFCURVE",
"805 560 CURVE SMOOTH",
"805 576 OFFCURVE",
"788 598 OFFCURVE",
"771 598 CURVE SMOOTH",
"722 598 OFFCURVE",
"537 304 OFFCURVE",
"520 262 CURVE",
"408 269 OFFCURVE",
"293 263 OFFCURVE",
"181 259 CURVE",
"244 368 OFFCURVE",
"330 469 OFFCURVE",
"410 566 CURVE",
"409 580 OFFCURVE",
"392 599 OFFCURVE",
"377 599 CURVE SMOOTH",
"331 599 OFFCURVE",
"157 313 OFFCURVE",
"125 262 CURVE",
"107 260 OFFCURVE",
"47 243 OFFCURVE",
"47 218 CURVE SMOOTH",
"47 204 OFFCURVE",
"71 203 OFFCURVE",
"80 203 CURVE SMOOTH",
"93 204 LINE",
"64 153 OFFCURVE",
"10 54 OFFCURVE",
"10 -4 CURVE SMOOTH",
"10 -29 OFFCURVE",
"21 -46 OFFCURVE",
"47 -46 CURVE SMOOTH",
"64 -46 OFFCURVE",
"82 -28 OFFCURVE",
"82 -12 CURVE SMOOTH",
"82 -11 OFFCURVE",
"81 -10 OFFCURVE",
"80 -10 CURVE SMOOTH",
"76 -10 OFFCURVE",
"58 -29 OFFCURVE",
"45 -29 CURVE SMOOTH",
"38 -29 OFFCURVE",
"37 -22 OFFCURVE",
"37 -17 CURVE SMOOTH",
"37 19 OFFCURVE",
"86 108 OFFCURVE",
"104 140 CURVE SMOOTH",
"148 217 OFFCURVE",
"156 210 OFFCURVE",
"245 220 CURVE SMOOTH",
"321 228 OFFCURVE",
"400 234 OFFCURVE",
"476 234 CURVE SMOOTH",
"486 234 OFFCURVE",
"496 235 OFFCURVE",
"506 232 CURVE",
"479 167 OFFCURVE",
"428 79 OFFCURVE",
"428 8 CURVE SMOOTH",
"428 -21 OFFCURVE",
"438 -37 OFFCURVE",
"469 -37 CURVE SMOOTH",
"482 -37 OFFCURVE",
"489 -22 OFFCURVE",
"463 -22 CURVE SMOOTH",
"456 -22 OFFCURVE",
"455 -14 OFFCURVE",
"455 -9 CURVE SMOOTH",
"455 28 OFFCURVE",
"513 155 OFFCURVE",
"533 190 CURVE SMOOTH",
"548 217 OFFCURVE",
"604 228 OFFCURVE",
"604 237 CURVE SMOOTH",
"604 250 OFFCURVE",
"577 255 OFFCURVE",
"568 257 CURVE"
);
}
);
width = 593;
}
);
note = H;
unicode = 0048;
},
{
color = 3;
glyphname = I;
lastChange = "2021-08-03 12:26:09 +0000";
layers = (
{
hints = (
{
horizontal = 1;
place = "{33, 25}";
type = Stem;
},
{
horizontal = 1;
place = "{612, -20}";
target = down;
type = TopGhost;
}
);
layerId = "C7EEC47D-2D39-4E2B-85C4-E2E866CE7804";
paths = (
{
closed = 1;
nodes = (
"708 578 OFFCURVE",
"698 579 OFFCURVE",
"694 579 CURVE SMOOTH",
"646 583 OFFCURVE",
"596 584 OFFCURVE",
"549 584 CURVE",
"539 594 OFFCURVE",
"520 612 OFFCURVE",
"505 612 CURVE SMOOTH",
"495 612 OFFCURVE",
"484 588 OFFCURVE",
"475 584 CURVE SMOOTH",
"449 570 OFFCURVE",
"281 576 OFFCURVE",
"285 533 CURVE SMOOTH",
"285 523 OFFCURVE",
"296 509 OFFCURVE",
"307 509 CURVE SMOOTH",
"341 509 OFFCURVE",
"395 543 OFFCURVE",
"443 542 CURVE",
"349 462 OFFCURVE",
"205 174 OFFCURVE",
"172 52 CURVE",
"138 49 OFFCURVE",
"1 46 OFFCURVE",
"5 -1 CURVE SMOOTH",
"6 -10 OFFCURVE",
"13 -15 OFFCURVE",
"21 -15 CURVE SMOOTH",
"25 -15 OFFCURVE",
"28 -14 OFFCURVE",
"31 -14 CURVE",
"140 11 OFFCURVE",
"256 24 OFFCURVE",
"368 33 CURVE SMOOTH",
"376 34 OFFCURVE",
"407 38 OFFCURVE",
"406 50 CURVE SMOOTH",
"406 58 OFFCURVE",
"381 58 OFFCURVE",
"379 58 CURVE SMOOTH",
"321 58 OFFCURVE",
"264 55 OFFCURVE",
"206 56 CURVE",
"247 180 OFFCURVE",
"386 409 OFFCURVE",
"482 498 CURVE SMOOTH",
"554 565 OFFCURVE",
"696 545 OFFCURVE",
"709 571 CURVE"
);
}
);
width = 407;
}
);
note = I;
unicode = 0049;
},
{
color = 3;
glyphname = J;
lastChange = "2021-08-03 12:26:09 +0000";
layers = (
{
hints = (
{
horizontal = 1;
place = "{-53, 23}";
type = Stem;
},
{
horizontal = 1;
place = "{609, -20}";
target = down;
type = TopGhost;
},
{
place = "{36, 40}";
type = Stem;
},
{
place = "{279, 135}";
type = Stem;
}
);
layerId = "C7EEC47D-2D39-4E2B-85C4-E2E866CE7804";
paths = (
{
closed = 1;
nodes = (
"6 160 OFFCURVE",
"9 -53 OFFCURVE",
"130 -53 CURVE SMOOTH",
"314 -53 OFFCURVE",
"534 399 OFFCURVE",
"624 543 CURVE",
"651 544 OFFCURVE",
"678 545 OFFCURVE",
"705 545 CURVE SMOOTH",
"710 545 OFFCURVE",
"778 538 OFFCURVE",
"778 549 CURVE SMOOTH",
"778 578 OFFCURVE",
"646 578 OFFCURVE",
"623 583 CURVE",
"615 590 OFFCURVE",
"596 609 OFFCURVE",
"585 609 CURVE SMOOTH",
"570 609 OFFCURVE",
"555 588 OFFCURVE",
"548 578 CURVE",
"491 572 OFFCURVE",
"279 571 OFFCURVE",
"279 489 CURVE SMOOTH",
"279 444 OFFCURVE",
"322 420 OFFCURVE",
"363 420 CURVE SMOOTH",
"370 420 OFFCURVE",
"414 422 OFFCURVE",
"414 435 CURVE SMOOTH",
"414 452 OFFCURVE",
"305 451 OFFCURVE",
"305 477 CURVE SMOOTH",
"305 520 OFFCURVE",
"505 537 OFFCURVE",
"540 539 CURVE",
"504 417 OFFCURVE",
"271 -29 OFFCURVE",
"136 -29 CURVE SMOOTH",
"56 -29 OFFCURVE",
"57 176 OFFCURVE",
"125 230 CURVE SMOOTH",
"136 239 OFFCURVE",
"123 254 OFFCURVE",
"113 246 CURVE SMOOTH"
);
}
);
width = 484;
}
);
note = J;
unicode = 004A;
},
{
color = 3;
glyphname = K;
lastChange = "2021-08-03 12:26:09 +0000";
layers = (
{
hints = (
{
horizontal = 1;
place = "{-15, 23}";
type = Stem;
},
{
horizontal = 1;
place = "{592, -20}";
target = down;
type = TopGhost;
},
{
place = "{51, 33}";
type = Stem;
},
{
place = "{548, 36}";
type = Stem;
}
);
layerId = "C7EEC47D-2D39-4E2B-85C4-E2E866CE7804";
paths = (
{
closed = 1;
nodes = (
"378 325 OFFCURVE",
"752 540 OFFCURVE",
"750 573 CURVE SMOOTH",
"749 580 OFFCURVE",
"742 583 OFFCURVE",
"736 583 CURVE SMOOTH",
"726 583 OFFCURVE",
"718 578 OFFCURVE",
"710 573 CURVE SMOOTH",
"538 460 OFFCURVE",
"369 339 OFFCURVE",
"181 250 CURVE",
"227 355 OFFCURVE",
"294 449 OFFCURVE",
"354 546 CURVE SMOOTH",
"359 554 OFFCURVE",
"365 564 OFFCURVE",
"365 574 CURVE SMOOTH",
"364 589 OFFCURVE",
"347 592 OFFCURVE",
"336 592 CURVE SMOOTH",
"326 592 OFFCURVE",
"307 590 OFFCURVE",
"300 581 CURVE SMOOTH",
"280 556 OFFCURVE",
"264 520 OFFCURVE",
"247 492 CURVE SMOOTH",
"194 399 OFFCURVE",
"43 135 OFFCURVE",
"51 29 CURVE SMOOTH",
"53 4 OFFCURVE",
"64 -15 OFFCURVE",
"91 -15 CURVE SMOOTH",
"105 -15 OFFCURVE",
"104 8 OFFCURVE",
"96 8 CURVE SMOOTH",
"87 8 OFFCURVE",
"85 18 OFFCURVE",
"84 25 CURVE SMOOTH",
"78 112 OFFCURVE",
"189 224 OFFCURVE",
"263 250 CURVE",
"298 187 OFFCURVE",
"386 48 OFFCURVE",
"434 0 CURVE SMOOTH",
"451 -16 OFFCURVE",
"471 -27 OFFCURVE",
"494 -27 CURVE SMOOTH",
"545 -27 OFFCURVE",
"587 22 OFFCURVE",
"584 72 CURVE SMOOTH",
"583 86 OFFCURVE",
"570 127 OFFCURVE",
"553 127 CURVE SMOOTH",
"545 127 OFFCURVE",
"548 116 OFFCURVE",
"548 112 CURVE SMOOTH",
"550 80 OFFCURVE",
"546 0 OFFCURVE",
"502 0 CURVE SMOOTH",
"442 0 OFFCURVE",
"334 234 OFFCURVE",
"322 286 CURVE"
);
}
);
width = 586;
}
);
note = K;
unicode = 004B;
},
{
color = 3;
glyphname = L;
lastChange = "2021-08-03 12:26:09 +0000";
layers = (
{
hints = (
{
horizontal = 1;
place = "{0, 37}";
type = Stem;
},
{
horizontal = 1;
place = "{549, 57}";
type = Stem;
}
);
layerId = "C7EEC47D-2D39-4E2B-85C4-E2E866CE7804";
paths = (
{
closed = 1;
nodes = (
"527 568 OFFCURVE",
"471 606 OFFCURVE",
"446 606 CURVE SMOOTH",
"311 606 OFFCURVE",
"50 165 OFFCURVE",
"47 31 CURVE",
"15 32 OFFCURVE",
"15 13 OFFCURVE",
"17 -12 CURVE SMOOTH",
"18 -23 OFFCURVE",
"22 -27 OFFCURVE",
"34 -27 CURVE SMOOTH",
"42 -27 OFFCURVE",
"138 -3 OFFCURVE",
"160 0 CURVE SMOOTH",
"260 15 OFFCURVE",
"291 19 OFFCURVE",
"393 19 CURVE SMOOTH",
"402 19 OFFCURVE",
"507 10 OFFCURVE",
"506 25 CURVE SMOOTH",
"503 56 OFFCURVE",
"403 56 OFFCURVE",
"372 56 CURVE SMOOTH",
"273 56 OFFCURVE",
"172 53 OFFCURVE",
"75 38 CURVE",
"90 163 OFFCURVE",
"352 549 OFFCURVE",
"483 549 CURVE SMOOTH",
"508 549 OFFCURVE",
"508 539 OFFCURVE",
"525 530 CURVE",
"530 530 OFFCURVE",
"530 538 OFFCURVE",
"529 541 CURVE"
);
}
);
width = 515;
}
);
note = L;
unicode = 004C;
},
{
color = 3;
glyphname = M;
lastChange = "2021-08-03 12:26:09 +0000";
layers = (
{
hints = (
{
horizontal = 1;
place = "{-9, 33}";
type = Stem;
},
{
horizontal = 1;
place = "{153, 30}";
type = Stem;
},
{
horizontal = 1;
place = "{599, -20}";
target = down;
type = TopGhost;
},
{
place = "{369, 57}";
type = Stem;
},
{
place = "{728, 34}";
type = Stem;
}
);
layerId = "C7EEC47D-2D39-4E2B-85C4-E2E866CE7804";
paths = (
{
closed = 1;
nodes = (
"763 216 OFFCURVE",
"1013 553 OFFCURVE",
"1013 565 CURVE SMOOTH",
"1013 579 OFFCURVE",
"982 592 OFFCURVE",
"971 592 CURVE SMOOTH",
"895 592 OFFCURVE",
"728 139 OFFCURVE",
"728 50 CURVE SMOOTH",
"728 27 OFFCURVE",
"734 -9 OFFCURVE",
"763 -9 CURVE SMOOTH",
"788 -9 OFFCURVE",
"794 24 OFFCURVE",
"774 24 CURVE SMOOTH",
"761 24 OFFCURVE",
"763 43 OFFCURVE",
"763 52 CURVE SMOOTH"
);
},
{
closed = 1;
nodes = (
"600 153 OFFCURVE",
"824 414 OFFCURVE",
"874 509 CURVE",
"876 511 OFFCURVE",
"885 530 OFFCURVE",
"877 530 CURVE SMOOTH",
"855 530 OFFCURVE",
"569 183 OFFCURVE",
"463 183 CURVE SMOOTH",
"391 183 OFFCURVE",
"445 448 OFFCURVE",
"451 483 CURVE SMOOTH",
"455 507 OFFCURVE",
"463 536 OFFCURVE",
"463 560 CURVE SMOOTH",
"463 574 OFFCURVE",
"425 599 OFFCURVE",
"412 599 CURVE SMOOTH",
"341 599 OFFCURVE",
"32 86 OFFCURVE",
"32 -2 CURVE SMOOTH",
"32 -13 OFFCURVE",
"35 -41 OFFCURVE",
"51 -41 CURVE SMOOTH",
"61 -41 OFFCURVE",
"65 -33 OFFCURVE",
"66 -25 CURVE SMOOTH",
"98 149 OFFCURVE",
"270 377 OFFCURVE",
"391 503 CURVE",
"388 483 OFFCURVE",
"379 431 OFFCURVE",
"377 402 CURVE SMOOTH",
"368 295 OFFCURVE",
"368 153 OFFCURVE",
"486 153 CURVE SMOOTH"
);
}
);
width = 820;
}
);
note = M;
unicode = 004D;
},
{
color = 3;
glyphname = N;
lastChange = "2021-08-03 12:26:09 +0000";
layers = (
{
hints = (
{
horizontal = 1;
place = "{-37, 17}";
type = Stem;
},
{
horizontal = 1;
place = "{-6, 45}";
type = Stem;
},
{
horizontal = 1;
place = "{577, 36}";
type = Stem;
},
{
place = "{18, 28}";
type = Stem;
},
{
place = "{291, 52}";
type = Stem;
},
{
place = "{681, 52}";
type = Stem;
}
);
layerId = "C7EEC47D-2D39-4E2B-85C4-E2E866CE7804";
paths = (
{
closed = 1;
nodes = (
"560 -6 OFFCURVE",
"858 613 OFFCURVE",
"676 613 CURVE SMOOTH",
"659 613 OFFCURVE",
"613 596 OFFCURVE",
"613 577 CURVE SMOOTH",
"613 571 OFFCURVE",
"621 570 OFFCURVE",
"625 570 CURVE SMOOTH",
"638 570 OFFCURVE",
"649 577 OFFCURVE",
"660 577 CURVE SMOOTH",
"719 577 OFFCURVE",
"636 334 OFFCURVE",
"604 264 CURVE SMOOTH",
"551 147 OFFCURVE",
"477 39 OFFCURVE",
"410 39 CURVE SMOOTH",
"272 39 OFFCURVE",
"386 478 OFFCURVE",
"401 539 CURVE",
"402 541 OFFCURVE",
"403 545 OFFCURVE",
"403 547 CURVE SMOOTH",
"403 569 OFFCURVE",
"381 590 OFFCURVE",
"360 590 CURVE SMOOTH",
"343 590 OFFCURVE",
"250 502 OFFCURVE",
"250 490 CURVE SMOOTH",
"250 483 OFFCURVE",
"261 481 OFFCURVE",
"265 480 CURVE",
"197 390 OFFCURVE",
"18 109 OFFCURVE",
"18 6 CURVE SMOOTH",
"18 -25 OFFCURVE",
"31 -37 OFFCURVE",
"61 -37 CURVE SMOOTH",
"76 -37 OFFCURVE",
"82 -21 OFFCURVE",
"56 -21 CURVE SMOOTH",
"47 -21 OFFCURVE",
"46 -11 OFFCURVE",
"46 -4 CURVE SMOOTH",
"46 122 OFFCURVE",
"273 399 OFFCURVE",
"357 494 CURVE",
"330 420 OFFCURVE",
"210 -6 OFFCURVE",
"380 -6 CURVE SMOOTH"
);
}
);
width = 578;
}
);
note = N;
unicode = 004E;
},
{
color = 3;
glyphname = O;
lastChange = "2021-08-03 12:26:09 +0000";
layers = (
{
hints = (
{
horizontal = 1;
place = "{-25, 33}";
type = Stem;
},
{
horizontal = 1;
place = "{560, 31}";
type = Stem;
},
{
place = "{100, 35}";
type = Stem;
},
{
place = "{756, 46}";
type = Stem;
}
);
layerId = "C7EEC47D-2D39-4E2B-85C4-E2E866CE7804";
paths = (
{
closed = 1;
nodes = (
"802 530 OFFCURVE",
"666 591 OFFCURVE",
"532 591 CURVE SMOOTH",
"396 591 OFFCURVE",
"228 527 OFFCURVE",
"145 416 CURVE SMOOTH",
"131 398 OFFCURVE",
"141 384 OFFCURVE",
"161 402 CURVE SMOOTH",
"213 449 OFFCURVE",
"274 488 OFFCURVE",
"340 511 CURVE",
"235 421 OFFCURVE",
"100 284 OFFCURVE",
"100 136 CURVE SMOOTH",
"100 30 OFFCURVE",
"155 -25 OFFCURVE",
"260 -25 CURVE SMOOTH",
"451 -25 OFFCURVE",
"802 161 OFFCURVE",
"802 377 CURVE SMOOTH"
);
},
{
closed = 1;
nodes = (
"755 218 OFFCURVE",
"439 8 OFFCURVE",
"252 8 CURVE SMOOTH",
"175 8 OFFCURVE",
"135 48 OFFCURVE",
"135 126 CURVE SMOOTH",
"135 264 OFFCURVE",
"329 447 OFFCURVE",
"453 486 CURVE SMOOTH",
"459 488 OFFCURVE",
"464 492 OFFCURVE",
"464 499 CURVE SMOOTH",
"464 523 OFFCURVE",
"427 535 OFFCURVE",
"409 538 CURVE",
"455 553 OFFCURVE",
"503 560 OFFCURVE",
"551 560 CURVE SMOOTH",
"640 560 OFFCURVE",
"755 531 OFFCURVE",
"755 421 CURVE SMOOTH"
);
}
);
width = 698;
}
);
note = O;
unicode = 004F;
},
{
color = 3;
glyphname = P;
lastChange = "2021-08-03 12:26:09 +0000";
layers = (
{
hints = (
{
horizontal = 1;
place = "{569, 27}";
type = Stem;
},
{
place = "{48, 33}";
type = Stem;
},
{
place = "{592, 39}";
type = Stem;
}
);
layerId = "C7EEC47D-2D39-4E2B-85C4-E2E866CE7804";
paths = (
{
closed = 1;
nodes = (
"418 569 OFFCURVE",
"584 554 OFFCURVE",
"591 457 CURVE SMOOTH",
"601 324 OFFCURVE",
"337 263 OFFCURVE",
"224 248 CURVE SMOOTH",
"209 246 OFFCURVE",
"192 239 OFFCURVE",
"221 229 CURVE SMOOTH",
"234 225 OFFCURVE",
"252 225 OFFCURVE",
"260 225 CURVE SMOOTH",
"383 225 OFFCURVE",
"643 286 OFFCURVE",
"630 449 CURVE SMOOTH",
"621 574 OFFCURVE",
"434 596 OFFCURVE",
"344 596 CURVE SMOOTH",
"293 596 OFFCURVE",
"-11 568 OFFCURVE",
"-5 487 CURVE SMOOTH",
"-5 478 OFFCURVE",
"4 482 OFFCURVE",
"9 484 CURVE SMOOTH",
"100 529 OFFCURVE",
"246 569 OFFCURVE",
"351 569 CURVE SMOOTH"
);
},
{
closed = 1;
nodes = (
"64 206 OFFCURVE",
"369 502 OFFCURVE",
"368 524 CURVE SMOOTH",
"367 536 OFFCURVE",
"356 547 OFFCURVE",
"344 554 CURVE SMOOTH",
"315 572 OFFCURVE",
"291 519 OFFCURVE",
"276 499 CURVE SMOOTH",
"178 370 OFFCURVE",
"39 140 OFFCURVE",
"48 26 CURVE SMOOTH",
"49 14 OFFCURVE",
"58 -24 OFFCURVE",
"75 -24 CURVE SMOOTH",
"82 -24 OFFCURVE",
"81 -14 OFFCURVE",
"81 -10 CURVE SMOOTH"
);
}
);
width = 461;
}
);
note = P;
unicode = 0050;
},
{
color = 3;
glyphname = Q;
lastChange = "2021-08-03 12:26:09 +0000";
layers = (
{
hints = (
{
horizontal = 1;
place = "{-110, 35}";
type = Stem;
},
{
horizontal = 1;
place = "{-30, 37}";
type = Stem;
},
{
horizontal = 1;
place = "{107, 75}";
type = Stem;
},
{
horizontal = 1;
place = "{558, 34}";
type = Stem;
},
{
place = "{24, 32}";
type = Stem;
},
{
place = "{171, 272}";
type = Stem;
},
{
place = "{679, 30}";
type = Stem;
},
{
place = "{718, 37}";
type = Stem;
}
);
layerId = "C7EEC47D-2D39-4E2B-85C4-E2E866CE7804";
paths = (
{
closed = 1;
nodes = (
"755 511 OFFCURVE",
"613 592 OFFCURVE",
"475 592 CURVE SMOOTH",
"411 592 OFFCURVE",
"171 530 OFFCURVE",
"171 446 CURVE SMOOTH",
"171 440 OFFCURVE",
"173 435 OFFCURVE",
"176 431 CURVE",
"104 353 OFFCURVE",
"24 235 OFFCURVE",
"24 125 CURVE SMOOTH",
"24 19 OFFCURVE",
"98 -30 OFFCURVE",
"197 -30 CURVE SMOOTH",
"245 -30 OFFCURVE",
"294 -21 OFFCURVE",
"340 -8 CURVE SMOOTH",
"395 7 LINE",
"401 7 OFFCURVE",
"556 -110 OFFCURVE",
"644 -110 CURVE SMOOTH",
"680 -110 OFFCURVE",
"709 -89 OFFCURVE",
"709 -51 CURVE SMOOTH",
"709 -26 OFFCURVE",
"679 11 OFFCURVE",
"679 -40 CURVE SMOOTH",
"679 -68 OFFCURVE",
"664 -75 OFFCURVE",
"639 -75 CURVE SMOOTH",
"575 -75 OFFCURVE",
"489 -13 OFFCURVE",
"444 29 CURVE",
"564 72 OFFCURVE",
"755 218 OFFCURVE",
"755 359 CURVE SMOOTH"
);
},
{
closed = 1;
nodes = (
"718 269 OFFCURVE",
"513 91 OFFCURVE",
"414 55 CURVE",
"380 84 OFFCURVE",
"276 182 OFFCURVE",
"236 182 CURVE SMOOTH",
"211 182 OFFCURVE",
"200 161 OFFCURVE",
"200 139 CURVE SMOOTH",
"200 98 OFFCURVE",
"213 103 OFFCURVE",
"236 117 CURVE",
"281 104 OFFCURVE",
"320 64 OFFCURVE",
"357 36 CURVE",
"301 23 OFFCURVE",
"251 7 OFFCURVE",
"193 7 CURVE SMOOTH",
"124 7 OFFCURVE",
"56 31 OFFCURVE",
"56 112 CURVE SMOOTH",
"56 219 OFFCURVE",
"139 345 OFFCURVE",
"221 410 CURVE SMOOTH",
"281 457 OFFCURVE",
"352 489 OFFCURVE",
"423 516 CURVE SMOOTH",
"429 518 OFFCURVE",
"443 522 OFFCURVE",
"443 532 CURVE SMOOTH",
"443 541 OFFCURVE",
"427 549 OFFCURVE",
"418 552 CURVE",
"435 554 OFFCURVE",
"454 558 OFFCURVE",
"472 558 CURVE SMOOTH",
"576 558 OFFCURVE",
"718 505 OFFCURVE",
"718 381 CURVE SMOOTH"
);
}
);
width = 694;
}
);
note = Q;
unicode = 0051;
},
{
color = 3;
glyphname = R;
lastChange = "2021-08-03 12:26:09 +0000";
layers = (
{
hints = (
{
horizontal = 1;
place = "{-59, 23}";
type = Stem;
},
{
horizontal = 1;
place = "{-27, 27}";
type = Stem;
},
{
horizontal = 1;
place = "{569, 27}";
type = Stem;
},
{
place = "{59, 33}";
type = Stem;
},
{
place = "{540, 36}";
type = Stem;
},
{
place = "{601, 39}";
type = Stem;
}
);
layerId = "C7EEC47D-2D39-4E2B-85C4-E2E866CE7804";
paths = (
{
closed = 1;
nodes = (
"87 47 OFFCURVE",
"165 174 OFFCURVE",
"188 218 CURVE SMOOTH",
"240 320 OFFCURVE",
"301 405 OFFCURVE",
"361 502 CURVE",
"367 510 OFFCURVE",
"373 520 OFFCURVE",
"372 530 CURVE SMOOTH",
"371 545 OFFCURVE",
"354 548 OFFCURVE",
"344 548 CURVE SMOOTH",
"334 548 OFFCURVE",
"314 546 OFFCURVE",
"308 537 CURVE SMOOTH",
"288 512 OFFCURVE",
"271 476 OFFCURVE",
"255 448 CURVE SMOOTH",
"201 355 OFFCURVE",
"51 91 OFFCURVE",
"59 -15 CURVE SMOOTH",
"60 -40 OFFCURVE",
"72 -59 OFFCURVE",
"99 -59 CURVE SMOOTH",
"112 -59 OFFCURVE",
"112 -36 OFFCURVE",
"104 -36 CURVE SMOOTH",
"95 -36 OFFCURVE",
"92 -26 OFFCURVE",
"92 -19 CURVE SMOOTH"
);
},
{
closed = 1;
nodes = (
"428 569 OFFCURVE",
"593 554 OFFCURVE",
"601 457 CURVE SMOOTH",
"611 323 OFFCURVE",
"346 263 OFFCURVE",
"234 248 CURVE SMOOTH",
"218 246 OFFCURVE",
"202 239 OFFCURVE",
"230 229 CURVE SMOOTH",
"240 226 OFFCURVE",
"254 225 OFFCURVE",
"263 225 CURVE",
"300 160 OFFCURVE",
"380 46 OFFCURVE",
"427 0 CURVE SMOOTH",
"444 -16 OFFCURVE",
"463 -27 OFFCURVE",
"487 -27 CURVE SMOOTH",
"537 -27 OFFCURVE",
"580 22 OFFCURVE",
"576 72 CURVE SMOOTH",
"575 86 OFFCURVE",
"563 127 OFFCURVE",
"545 127 CURVE SMOOTH",
"538 127 OFFCURVE",
"540 116 OFFCURVE",
"540 112 CURVE SMOOTH",
"543 80 OFFCURVE",
"539 0 OFFCURVE",
"494 0 CURVE SMOOTH",
"442 0 OFFCURVE",
"357 154 OFFCURVE",
"328 229 CURVE",
"460 244 OFFCURVE",
"650 308 OFFCURVE",
"640 449 CURVE SMOOTH",
"630 574 OFFCURVE",
"444 596 OFFCURVE",
"354 596 CURVE SMOOTH",
"302 596 OFFCURVE",
"-2 568 OFFCURVE",
"4 487 CURVE SMOOTH",
"5 478 OFFCURVE",
"14 482 OFFCURVE",
"18 484 CURVE SMOOTH",
"109 529 OFFCURVE",
"256 569 OFFCURVE",
"360 569 CURVE SMOOTH"
);
}
);
width = 554;
}
);
note = R;
unicode = 0052;
},
{
color = 3;
glyphname = S;
lastChange = "2021-08-03 12:26:09 +0000";
layers = (
{
hints = (
{
horizontal = 1;
place = "{-44, 55}";
type = Stem;
},
{
horizontal = 1;
place = "{540, 42}";
type = Stem;
},
{
place = "{153, 32}";
type = Stem;
},
{
place = "{336, 49}";
type = Stem;
},
{
place = "{581, 37}";
type = Stem;
}
);
layerId = "C7EEC47D-2D39-4E2B-85C4-E2E866CE7804";
paths = (
{
closed = 1;
nodes = (
"621 546 OFFCURVE",
"537 573 OFFCURVE",
"483 579 CURVE SMOOTH",
"350 596 OFFCURVE",
"158 536 OFFCURVE",
"154 378 CURVE SMOOTH",
"149 230 OFFCURVE",
"337 112 OFFCURVE",
"336 66 CURVE SMOOTH",
"334 7 OFFCURVE",
"220 8 OFFCURVE",
"179 13 CURVE SMOOTH",
"154 16 OFFCURVE",
"133 31 OFFCURVE",
"111 33 CURVE SMOOTH",
"106 34 OFFCURVE",
"101 33 OFFCURVE",
"101 27 CURVE SMOOTH",
"100 -10 OFFCURVE",
"203 -40 OFFCURVE",
"228 -43 CURVE SMOOTH",
"273 -48 OFFCURVE",
"383 -41 OFFCURVE",
"385 18 CURVE SMOOTH",
"388 106 OFFCURVE",
"183 235 OFFCURVE",
"185 330 CURVE SMOOTH",
"189 463 OFFCURVE",
"392 553 OFFCURVE",
"508 539 CURVE SMOOTH",
"534 535 OFFCURVE",
"583 525 OFFCURVE",
"582 489 CURVE SMOOTH",
"580 416 OFFCURVE",
"469 340 OFFCURVE",
"456 310 CURVE",
"456 307 OFFCURVE",
"458 306 OFFCURVE",
"461 305 CURVE",
"465 305 OFFCURVE",
"469 306 OFFCURVE",
"473 308 CURVE SMOOTH",
"535 333 OFFCURVE",
"616 400 OFFCURVE",
"619 475 CURVE SMOOTH"
);
}
);
width = 448;
}
);
note = S;
unicode = 0053;
},
{
color = 3;
glyphname = T;
lastChange = "2021-08-03 12:26:09 +0000";
layers = (
{
hints = (
{
horizontal = 1;
place = "{-75, 23}";
type = Stem;
},
{
horizontal = 1;
place = "{552, 35}";
type = Stem;
},
{
place = "{93, 33}";
type = Stem;
}
);
layerId = "C7EEC47D-2D39-4E2B-85C4-E2E866CE7804";
paths = (
{
closed = 1;
nodes = (
"751 558 OFFCURVE",
"715 565 OFFCURVE",
"707 567 CURVE SMOOTH",
"592 589 OFFCURVE",
"461 587 OFFCURVE",
"344 587 CURVE SMOOTH",
"306 587 OFFCURVE",
"15 587 OFFCURVE",
"15 531 CURVE SMOOTH",
"15 506 OFFCURVE",
"26 495 OFFCURVE",
"52 495 CURVE SMOOTH",
"74 495 OFFCURVE",
"191 516 OFFCURVE",
"196 538 CURVE",
"297 550 OFFCURVE",
"401 552 OFFCURVE",
"502 552 CURVE SMOOTH",
"559 552 OFFCURVE",
"618 552 OFFCURVE",
"673 543 CURVE SMOOTH",
"690 540 OFFCURVE",
"708 537 OFFCURVE",
"725 537 CURVE SMOOTH",
"728 537 OFFCURVE",
"751 536 OFFCURVE",
"751 545 CURVE SMOOTH"
);
},
{
closed = 1;
nodes = (
"122 31 OFFCURVE",
"199 158 OFFCURVE",
"222 202 CURVE SMOOTH",
"274 304 OFFCURVE",
"336 389 OFFCURVE",
"396 486 CURVE SMOOTH",
"401 494 OFFCURVE",
"407 504 OFFCURVE",
"407 515 CURVE SMOOTH",
"406 529 OFFCURVE",
"389 532 OFFCURVE",
"378 532 CURVE SMOOTH",
"368 532 OFFCURVE",
"349 530 OFFCURVE",
"342 521 CURVE SMOOTH",
"322 496 OFFCURVE",
"305 460 OFFCURVE",
"289 432 CURVE SMOOTH",
"236 340 OFFCURVE",
"85 75 OFFCURVE",
"93 -31 CURVE SMOOTH",
"95 -56 OFFCURVE",
"106 -75 OFFCURVE",
"133 -75 CURVE SMOOTH",
"146 -75 OFFCURVE",
"146 -52 OFFCURVE",
"138 -52 CURVE SMOOTH",
"129 -52 OFFCURVE",
"127 -42 OFFCURVE",
"126 -35 CURVE SMOOTH"
);
}
);
width = 390;
}
);
note = T;
unicode = 0054;
},
{
color = 3;
glyphname = U;
lastChange = "2021-08-03 12:26:09 +0000";
layers = (
{
hints = (
{
horizontal = 1;
place = "{-3, 31}";
type = Stem;
},
{
horizontal = 1;
place = "{596, -20}";
target = down;
type = TopGhost;
},
{
place = "{22, 39}";
type = Stem;
},
{
place = "{405, 47}";
type = Stem;
}
);
layerId = "C7EEC47D-2D39-4E2B-85C4-E2E866CE7804";
paths = (
{
closed = 1;
nodes = (
"425 40 OFFCURVE",
"453 212 OFFCURVE",
"558 415 CURVE SMOOTH",
"605 506 OFFCURVE",
"651 569 OFFCURVE",
"651 576 CURVE SMOOTH",
"651 592 OFFCURVE",
"619 596 OFFCURVE",
"609 596 CURVE SMOOTH",
"592 596 OFFCURVE",
"578 592 OFFCURVE",
"568 577 CURVE SMOOTH",
"546 544 OFFCURVE",
"530 499 OFFCURVE",
"512 463 CURVE SMOOTH",
"445 329 OFFCURVE",
"273 28 OFFCURVE",
"101 28 CURVE SMOOTH",
"68 28 OFFCURVE",
"61 58 OFFCURVE",
"61 84 CURVE SMOOTH",
"61 215 OFFCURVE",
"206 423 OFFCURVE",
"273 518 CURVE SMOOTH",
"291 543 OFFCURVE",
"336 583 OFFCURVE",
"275 583 CURVE SMOOTH",
"225 583 OFFCURVE",
"210 540 OFFCURVE",
"183 500 CURVE SMOOTH",
"133 419 OFFCURVE",
"22 184 OFFCURVE",
"22 95 CURVE SMOOTH",
"22 41 OFFCURVE",
"51 -3 OFFCURVE",
"108 -3 CURVE SMOOTH",
"204 -3 OFFCURVE",
"352 148 OFFCURVE",
"413 217 CURVE",
"408 179 OFFCURVE",
"404 141 OFFCURVE",
"404 102 CURVE SMOOTH",
"404 65 OFFCURVE",
"414 -65 OFFCURVE",
"469 -65 CURVE SMOOTH",
"474 -65 OFFCURVE",
"480 -62 OFFCURVE",
"478 -57 CURVE"
);
}
);
width = 492;
}
);
note = U;
unicode = 0055;
},
{
color = 3;
glyphname = V;
lastChange = "2021-08-03 12:26:09 +0000";
layers = (
{
hints = (
{
horizontal = 1;
place = "{616, -20}";
target = down;
type = TopGhost;
},
{
place = "{120, 50}";
type = Stem;
}
);
layerId = "C7EEC47D-2D39-4E2B-85C4-E2E866CE7804";
paths = (
{
closed = 1;
nodes = (
"119 -10 OFFCURVE",
"159 16 OFFCURVE",
"165 33 CURVE SMOOTH",
"197 126 OFFCURVE",
"336 323 OFFCURVE",
"458 457 CURVE SMOOTH",
"475 475 OFFCURVE",
"640 616 OFFCURVE",
"586 616 CURVE SMOOTH",
"534 616 OFFCURVE",
"207 199 OFFCURVE",
"159 129 CURVE",
"169 179 OFFCURVE",
"170 234 OFFCURVE",
"170 285 CURVE SMOOTH",
"170 330 OFFCURVE",
"154 591 OFFCURVE",
"97 596 CURVE SMOOTH",
"85 597 OFFCURVE",
"44 570 OFFCURVE",
"51 560 CURVE SMOOTH",
"139 439 OFFCURVE",
"126 245 OFFCURVE",
"106 104 CURVE SMOOTH",
"102 74 OFFCURVE",
"90 36 OFFCURVE",
"90 7 CURVE SMOOTH",
"90 -2 OFFCURVE",
"89 -10 OFFCURVE",
"100 -10 CURVE SMOOTH"
);
}
);
width = 336;
}
);
note = V;
unicode = 0056;
},
{
color = 3;
glyphname = W;
lastChange = "2021-08-03 12:26:09 +0000";
layers = (
{
hints = (
{
horizontal = 1;
place = "{0, 28}";
type = Stem;
},
{
horizontal = 1;
place = "{597, -20}";
target = down;
type = TopGhost;
},
{
place = "{22, 38}";
type = Stem;
},
{
place = "{480, 48}";
type = Stem;
},
{
place = "{916, 55}";
type = Stem;
}
);
layerId = "C7EEC47D-2D39-4E2B-85C4-E2E866CE7804";
paths = (
{
closed = 1;
nodes = (
"967 397 OFFCURVE",
"1016 597 OFFCURVE",
"882 597 CURVE SMOOTH",
"874 597 OFFCURVE",
"857 597 OFFCURVE",
"857 585 CURVE SMOOTH",
"857 573 OFFCURVE",
"871 574 OFFCURVE",
"878 573 CURVE SMOOTH",
"954 557 OFFCURVE",
"895 382 OFFCURVE",
"880 346 CURVE SMOOTH",
"821 201 OFFCURVE",
"698 28 OFFCURVE",
"593 28 CURVE SMOOTH",
"537 28 OFFCURVE",
"528 89 OFFCURVE",
"528 132 CURVE SMOOTH",
"528 237 OFFCURVE",
"563 326 OFFCURVE",
"592 421 CURVE SMOOTH",
"597 438 OFFCURVE",
"614 472 OFFCURVE",
"601 488 CURVE SMOOTH",
"592 500 OFFCURVE",
"572 504 OFFCURVE",
"559 504 CURVE SMOOTH",
"530 504 OFFCURVE",
"514 447 OFFCURVE",
"500 425 CURVE SMOOTH",
"454 349 OFFCURVE",
"393 273 OFFCURVE",
"328 205 CURVE SMOOTH",
"283 158 OFFCURVE",
"156 30 OFFCURVE",
"94 30 CURVE SMOOTH",
"67 30 OFFCURVE",
"60 57 OFFCURVE",
"60 79 CURVE SMOOTH",
"60 160 OFFCURVE",
"105 250 OFFCURVE",
"160 332 CURVE SMOOTH",
"251 467 OFFCURVE",
"329 542 OFFCURVE",
"372 578 CURVE SMOOTH",
"406 606 OFFCURVE",
"332 587 OFFCURVE",
"315 577 CURVE SMOOTH",
"184 506 OFFCURVE",
"22 226 OFFCURVE",
"22 94 CURVE SMOOTH",
"22 51 OFFCURVE",
"34 -9 OFFCURVE",
"89 -9 CURVE SMOOTH",
"162 -9 OFFCURVE",
"264 87 OFFCURVE",
"352 180 CURVE SMOOTH",
"406 237 OFFCURVE",
"456 293 OFFCURVE",
"490 325 CURVE",
"487 275 OFFCURVE",
"480 226 OFFCURVE",
"480 176 CURVE SMOOTH",
"480 95 OFFCURVE",
"496 0 OFFCURVE",
"597 0 CURVE SMOOTH",
"714 0 OFFCURVE",
"865 176 OFFCURVE",
"935 327 CURVE SMOOTH"
);
}
);
width = 867;
}
);
note = W;
unicode = 0057;
},
{
color = 3;
glyphname = X;
lastChange = "2021-08-03 12:26:09 +0000";
layers = (
{
hints = (
{
horizontal = 1;
place = "{-6, 55}";
type = Stem;
},
{
horizontal = 1;
place = "{596, -20}";
target = down;
type = TopGhost;
},
{
place = "{4, 41}";
type = Stem;
}
);
layerId = "C7EEC47D-2D39-4E2B-85C4-E2E866CE7804";
paths = (
{
closed = 1;
nodes = (
"359 384 OFFCURVE",
"439 451 OFFCURVE",
"522 513 CURVE SMOOTH",
"552 536 OFFCURVE",
"585 556 OFFCURVE",
"615 579 CURVE SMOOTH",
"625 586 OFFCURVE",
"630 596 OFFCURVE",
"613 596 CURVE SMOOTH",
"601 596 OFFCURVE",
"571 587 OFFCURVE",
"543 569 CURVE SMOOTH",
"451 509 OFFCURVE",
"309 374 OFFCURVE",
"276 345 CURVE",
"263 415 OFFCURVE",
"250 495 OFFCURVE",
"234 562 CURVE SMOOTH",
"231 575 OFFCURVE",
"226 581 OFFCURVE",
"212 581 CURVE SMOOTH",
"191 581 OFFCURVE",
"175 575 OFFCURVE",
"175 551 CURVE SMOOTH",
"175 525 OFFCURVE",
"219 337 OFFCURVE",
"228 301 CURVE",
"173 251 OFFCURVE",
"4 96 OFFCURVE",
"4 19 CURVE SMOOTH",
"4 0 OFFCURVE",
"10 -18 OFFCURVE",
"32 -18 CURVE SMOOTH",
"37 -18 OFFCURVE",
"48 -7 OFFCURVE",
"50 -4 CURVE",
"47 2 OFFCURVE",
"45 10 OFFCURVE",
"45 17 CURVE SMOOTH",
"45 91 OFFCURVE",
"182 216 OFFCURVE",
"235 268 CURVE",
"252 195 OFFCURVE",
"296 -6 OFFCURVE",
"397 -6 CURVE SMOOTH",
"449 -6 OFFCURVE",
"565 101 OFFCURVE",
"565 148 CURVE SMOOTH",
"565 151 OFFCURVE",
"563 155 OFFCURVE",
"559 155 CURVE SMOOTH",
"543 155 OFFCURVE",
"514 93 OFFCURVE",
"474 64 CURVE SMOOTH",
"462 55 OFFCURVE",
"443 40 OFFCURVE",
"429 40 CURVE SMOOTH",
"344 40 OFFCURVE",
"297 251 OFFCURVE",
"283 314 CURVE"
);
}
);
width = 531;
}
);
note = X;
unicode = 0058;
},
{
color = 3;
glyphname = Y;
lastChange = "2021-08-03 12:26:09 +0000";
layers = (
{
hints = (
{
horizontal = 1;
place = "{600, -20}";
target = down;
type = TopGhost;
},
{
place = "{137, 35}";
type = Stem;
}
);
layerId = "C7EEC47D-2D39-4E2B-85C4-E2E866CE7804";
paths = (
{
closed = 1;
nodes = (
"171 143 OFFCURVE",
"487 458 OFFCURVE",
"611 544 CURVE SMOOTH",
"617 548 OFFCURVE",
"621 553 OFFCURVE",
"621 561 CURVE SMOOTH",
"621 579 OFFCURVE",
"601 600 OFFCURVE",
"583 600 CURVE SMOOTH",
"560 600 OFFCURVE",
"505 554 OFFCURVE",
"502 529 CURVE",
"420 453 OFFCURVE",
"352 362 OFFCURVE",
"280 277 CURVE",
"275 348 OFFCURVE",
"186 591 OFFCURVE",
"102 591 CURVE SMOOTH",
"85 591 OFFCURVE",
"61 580 OFFCURVE",
"61 560 CURVE SMOOTH",
"61 554 OFFCURVE",
"65 550 OFFCURVE",
"70 546 CURVE SMOOTH",
"154 486 OFFCURVE",
"163 372 OFFCURVE",
"172 455 CURVE",
"206 407 OFFCURVE",
"244 342 OFFCURVE",
"244 281 CURVE SMOOTH",
"244 266 OFFCURVE",
"231 247 OFFCURVE",
"231 241 CURVE SMOOTH",
"231 233 OFFCURVE",
"235 228 OFFCURVE",
"235 220 CURVE SMOOTH",
"235 214 OFFCURVE",
"137 58 OFFCURVE",
"137 -11 CURVE SMOOTH",
"137 -39 OFFCURVE",
"149 -54 OFFCURVE",
"178 -57 CURVE SMOOTH",
"197 -59 OFFCURVE",
"213 -34 OFFCURVE",
"192 -33 CURVE SMOOTH",
"171 -33 OFFCURVE",
"171 -34 OFFCURVE",
"171 -7 CURVE SMOOTH"
);
}
);
width = 336;
}
);
note = Y;
unicode = 0059;
},
{
color = 3;
glyphname = Z;
lastChange = "2021-08-03 12:26:09 +0000";
layers = (
{
hints = (
{
horizontal = 1;
place = "{-4, 28}";
type = Stem;
},
{
horizontal = 1;
place = "{537, 57}";
type = Stem;
},
{
place = "{617, 43}";
type = Stem;
}
);
layerId = "C7EEC47D-2D39-4E2B-85C4-E2E866CE7804";
paths = (
{
closed = 1;
nodes = (
"116 72 LINE",
"236 166 OFFCURVE",
"360 280 OFFCURVE",
"480 373 CURVE SMOOTH",
"538 419 OFFCURVE",
"599 457 OFFCURVE",
"660 499 CURVE SMOOTH",
"665 502 OFFCURVE",
"666 510 OFFCURVE",
"666 515 CURVE SMOOTH",
"666 541 OFFCURVE",
"650 561 OFFCURVE",
"627 571 CURVE SMOOTH",
"583 588 OFFCURVE",
"423 594 OFFCURVE",
"373 594 CURVE SMOOTH",
"305 594 OFFCURVE",
"157 575 OFFCURVE",
"117 509 CURVE SMOOTH",
"97 475 OFFCURVE",
"131 490 OFFCURVE",
"148 499 CURVE SMOOTH",
"211 533 OFFCURVE",
"285 539 OFFCURVE",
"356 539 CURVE SMOOTH",
"391 539 OFFCURVE",
"561 530 OFFCURVE",
"586 507 CURVE",
"438 384 OFFCURVE",
"292 257 OFFCURVE",
"137 142 CURVE SMOOTH",
"98 113 OFFCURVE",
"-11 44 OFFCURVE",
"11 15 CURVE SMOOTH",
"18 5 OFFCURVE",
"28 -3 OFFCURVE",
"40 -3 CURVE SMOOTH",
"53 -3 OFFCURVE",
"63 4 OFFCURVE",
"74 9 CURVE SMOOTH",
"92 18 OFFCURVE",
"136 17 OFFCURVE",
"155 17 CURVE SMOOTH",
"282 17 OFFCURVE",
"409 -4 OFFCURVE",
"534 -4 CURVE SMOOTH",
"594 -4 OFFCURVE",
"660 24 OFFCURVE",
"660 94 CURVE SMOOTH",
"660 157 OFFCURVE",
"597 210 OFFCURVE",
"536 210 CURVE SMOOTH",
"532 210 OFFCURVE",
"524 209 OFFCURVE",
"524 203 CURVE SMOOTH",
"524 189 OFFCURVE",
"618 146 OFFCURVE",
"618 82 CURVE SMOOTH",
"618 33 OFFCURVE",
"556 24 OFFCURVE",
"518 24 CURVE SMOOTH",
"392 24 OFFCURVE",
"255 78 OFFCURVE",
"129 73 CURVE SMOOTH"
);
}
);
width = 649;
}
);
note = Z;
unicode = 005A;
},
{
color = 3;
glyphname = bracketleft;
lastChange = "2021-08-03 12:26:09 +0000";
layers = (
{
hints = (
{
horizontal = 1;
place = "{-17, 22}";
type = Stem;
},
{
horizontal = 1;
place = "{687, 31}";
type = Stem;
},
{
place = "{48, 39}";
type = Stem;
}
);
layerId = "C7EEC47D-2D39-4E2B-85C4-E2E866CE7804";
paths = (
{
closed = 1;
nodes = (
"180 -85 LINE SMOOTH",
"221 -85 OFFCURVE",
"274 -76 OFFCURVE",
"274 -60 CURVE SMOOTH",
"274 -49 OFFCURVE",
"229 -48 OFFCURVE",
"212 -48 CURVE SMOOTH",
"63 -48 LINE",
"434 639 LINE",
"518 639 LINE SMOOTH",
"550 639 OFFCURVE",
"593 648 OFFCURVE",
"593 664 CURVE SMOOTH",
"593 675 OFFCURVE",
"557 676 OFFCURVE",
"543 676 CURVE SMOOTH",
"429 676 LINE SMOOTH",
"391 676 OFFCURVE",
"383 662 OFFCURVE",
"375 645 CURVE SMOOTH",
"256 407 OFFCURVE",
"93 111 OFFCURVE",
"16 -40 CURVE SMOOTH",
"8 -55 OFFCURVE",
"16 -85 OFFCURVE",
"36 -85 CURVE SMOOTH"
);
}
);
width = 585;
}
);
note = bracketleft;
unicode = 005B;
},
{
color = 3;
glyphname = backslash;
lastChange = "2021-08-03 12:26:09 +0000";
layers = (
{
hints = (
{
place = "{497, 26}";
type = Stem;
}
);
layerId = "C7EEC47D-2D39-4E2B-85C4-E2E866CE7804";
paths = (
{
closed = 1;
nodes = (
"449 98 OFFCURVE",
"269 444 OFFCURVE",
"149 638 CURVE SMOOTH",
"133 664 OFFCURVE",
"63 667 OFFCURVE",
"87 628 CURVE SMOOTH",
"530 -101 LINE",
"542 -114 OFFCURVE",
"589 -122 OFFCURVE",
"574 -99 CURVE SMOOTH"
);
}
);
width = 603;
}
);
note = backslash;
unicode = 005C;
},
{
color = 3;
glyphname = bracketright;
lastChange = "2021-08-03 12:26:09 +0000";
layers = (
{
hints = (
{
horizontal = 1;
place = "{-17, 25}";
type = Stem;
},
{
horizontal = 1;
place = "{688, 28}";
type = Stem;
},
{
place = "{498, 39}";
type = Stem;
}
);
layerId = "C7EEC47D-2D39-4E2B-85C4-E2E866CE7804";
paths = (
{
closed = 1;
nodes = (
"421 676 LINE SMOOTH",
"380 676 OFFCURVE",
"327 667 OFFCURVE",
"327 651 CURVE SMOOTH",
"327 640 OFFCURVE",
"372 639 OFFCURVE",
"389 639 CURVE SMOOTH",
"538 639 LINE",
"167 -48 LINE",
"83 -48 LINE SMOOTH",
"51 -48 OFFCURVE",
"8 -57 OFFCURVE",
"8 -73 CURVE SMOOTH",
"8 -84 OFFCURVE",
"44 -85 OFFCURVE",
"58 -85 CURVE SMOOTH",
"172 -85 LINE SMOOTH",
"210 -85 OFFCURVE",
"218 -71 OFFCURVE",
"226 -54 CURVE SMOOTH",
"345 184 OFFCURVE",
"508 480 OFFCURVE",
"585 631 CURVE SMOOTH",
"593 646 OFFCURVE",
"585 676 OFFCURVE",
"565 676 CURVE SMOOTH"
);
}
);
width = 556;
}
);
note = bracketright;
unicode = 005D;
},
{
color = 3;
glyphname = asciicircum;
lastChange = "2021-08-03 12:26:09 +0000";
layers = (
{
hints = (
{
horizontal = 1;
place = "{324, 127}";
type = Stem;
},
{
place = "{64, 272}";
type = Stem;
}
);
layerId = "C7EEC47D-2D39-4E2B-85C4-E2E866CE7804";
paths = (
{
closed = 1;
nodes = (
"336 331 LINE",
"331 341 LINE",
"287 374 OFFCURVE",
"243 408 OFFCURVE",
"206 449 CURVE",
"200 451 LINE",
"181 447 OFFCURVE",
"64 352 OFFCURVE",
"64 338 CURVE SMOOTH",
"64 334 OFFCURVE",
"68 328 OFFCURVE",
"72 328 CURVE SMOOTH",
"82 328 OFFCURVE",
"172 400 OFFCURVE",
"186 412 CURVE",
"208 389 OFFCURVE",
"301 326 OFFCURVE",
"332 324 CURVE"
);
}
);
width = 370;
}
);
note = asciicircum;
unicode = 005E;
},
{
color = 3;
glyphname = underscore;
lastChange = "2021-08-03 12:26:09 +0000";
layers = (
{
hints = (
{
horizontal = 1;
place = "{-60, 35}";
type = Stem;
}
);
layerId = "C7EEC47D-2D39-4E2B-85C4-E2E866CE7804";
paths = (
{
closed = 1;
nodes = (
"793 -53 LINE",
"791 -39 OFFCURVE",
"780 -25 OFFCURVE",
"765 -25 CURVE SMOOTH",
"25 -25 LINE SMOOTH",
"14 -25 OFFCURVE",
"8 -34 OFFCURVE",
"8 -44 CURVE SMOOTH",
"8 -53 OFFCURVE",
"13 -73 OFFCURVE",
"25 -73 CURVE SMOOTH",
"90 -73 OFFCURVE",
"154 -68 OFFCURVE",
"219 -67 CURVE SMOOTH",
"408 -62 OFFCURVE",
"597 -60 OFFCURVE",
"786 -60 CURVE"
);
}
);
width = 806;
}
);
note = underscore;
unicode = 005F;
},
{
color = 3;
glyphname = a;
lastChange = "2021-08-03 12:26:09 +0000";
layers = (
{
hints = (
{
horizontal = 1;
place = "{-11, 21}";
target = up;
type = BottomGhost;
},
{
horizontal = 1;
place = "{252, 40}";
type = Stem;
},
{
place = "{25, 33}";
type = Stem;
},
{
horizontal = 1;
place = "{-19, 21}";
target = up;
type = BottomGhost;
},
{
place = "{182, 42}";
type = Stem;
},
{
horizontal = 1;
place = "{-11, 29}";
type = Stem;
}
);
layerId = "C7EEC47D-2D39-4E2B-85C4-E2E866CE7804";
paths = (
{
closed = 1;
nodes = (
"246 -19 OFFCURVE",
"402 142 OFFCURVE",
"402 157 CURVE SMOOTH",
"402 161 OFFCURVE",
"399 164 OFFCURVE",
"395 164 CURVE SMOOTH",
"391 164 OFFCURVE",
"388 160 OFFCURVE",
"385 157 CURVE SMOOTH",
"365 134 OFFCURVE",
"254 19 OFFCURVE",
"227 11 CURVE SMOOTH",
"220 9 OFFCURVE",
"223 18 OFFCURVE",
"224 22 CURVE SMOOTH",
"234 63 OFFCURVE",
"268 145 OFFCURVE",
"301 171 CURVE",
"302 173 OFFCURVE",
"302 175 OFFCURVE",
"302 177 CURVE SMOOTH",
"302 191 OFFCURVE",
"285 218 OFFCURVE",
"270 218 CURVE SMOOTH",
"265 218 OFFCURVE",
"263 215 OFFCURVE",
"260 211 CURVE SMOOTH",
"250 197 OFFCURVE",
"242 182 OFFCURVE",
"231 168 CURVE SMOOTH",
"189 111 OFFCURVE",
"131 54 OFFCURVE",
"69 20 CURVE SMOOTH",
"67 19 OFFCURVE",
"64 18 OFFCURVE",
"62 18 CURVE SMOOTH",
"58 18 OFFCURVE",
"58 24 OFFCURVE",
"58 27 CURVE SMOOTH",
"58 38 OFFCURVE",
"62 49 OFFCURVE",
"66 58 CURVE SMOOTH",
"94 123 OFFCURVE",
"189 252 OFFCURVE",
"264 252 CURVE SMOOTH",
"298 252 OFFCURVE",
"312 216 OFFCURVE",
"319 216 CURVE SMOOTH",
"327 216 OFFCURVE",
"328 236 OFFCURVE",
"328 242 CURVE SMOOTH",
"328 275 OFFCURVE",
"303 292 OFFCURVE",
"267 292 CURVE SMOOTH",
"184 292 OFFCURVE",
"25 143 OFFCURVE",
"25 42 CURVE SMOOTH",
"25 13 OFFCURVE",
"44 -11 OFFCURVE",
"74 -11 CURVE SMOOTH",
"116 -11 OFFCURVE",
"204 124 OFFCURVE",
"241 155 CURVE",
"224 130 OFFCURVE",
"182 57 OFFCURVE",
"182 27 CURVE SMOOTH",
"182 9 OFFCURVE",
"212 -19 OFFCURVE",
"230 -19 CURVE SMOOTH"
);
}
);
width = 314;
}
);
note = a;
unicode = 0061;
},
{
color = 3;
glyphname = b;
lastChange = "2021-08-03 12:26:09 +0000";
layers = (
{
hints = (
{
horizontal = 1;
place = "{-34, 30}";
type = Stem;
},
{
horizontal = 1;
place = "{245, 54}";
type = Stem;
},
{
place = "{32, 46}";
type = Stem;
},
{
place = "{329, 57}";
type = Stem;
}
);
layerId = "C7EEC47D-2D39-4E2B-85C4-E2E866CE7804";
paths = (
{
closed = 1;
nodes = (
"418 457 OFFCURVE",
"433 467 OFFCURVE",
"449 480 CURVE",
"455 483 OFFCURVE",
"458 488 OFFCURVE",
"458 495 CURVE SMOOTH",
"458 511 OFFCURVE",
"441 532 OFFCURVE",
"428 524 CURVE SMOOTH",
"285 437 OFFCURVE",
"139 214 OFFCURVE",
"68 82 CURVE SMOOTH",
"58 63 OFFCURVE",
"32 25 OFFCURVE",
"32 -5 CURVE SMOOTH",
"32 -29 OFFCURVE",
"74 -34 OFFCURVE",
"92 -34 CURVE SMOOTH",
"166 -34 OFFCURVE",
"257 26 OFFCURVE",
"303 82 CURVE SMOOTH",
"347 134 OFFCURVE",
"386 197 OFFCURVE",
"386 241 CURVE SMOOTH",
"386 253 OFFCURVE",
"385 264 OFFCURVE",
"378 275 CURVE SMOOTH",
"368 291 OFFCURVE",
"353 299 OFFCURVE",
"344 299 CURVE SMOOTH",
"319 299 OFFCURVE",
"184 176 OFFCURVE",
"132 125 CURVE",
"202 249 OFFCURVE",
"309 364 OFFCURVE",
"403 444 CURVE SMOOTH"
);
},
{
closed = 1;
nodes = (
"246 74 OFFCURVE",
"181 -4 OFFCURVE",
"119 -4 CURVE SMOOTH",
"105 -4 OFFCURVE",
"78 0 OFFCURVE",
"78 18 CURVE SMOOTH",
"78 30 OFFCURVE",
"100 60 OFFCURVE",
"144 103 CURVE SMOOTH",
"171 130 OFFCURVE",
"280 245 OFFCURVE",
"319 245 CURVE SMOOTH",
"347 245 OFFCURVE",
"310 163 OFFCURVE",
"279 120 CURVE SMOOTH"
);
}
);
width = 323;
}
);
note = b;
unicode = 0062;
},
{
color = 3;
glyphname = c;
lastChange = "2021-08-03 12:26:09 +0000";
layers = (
{
hints = (
{
horizontal = 1;
place = "{19, -20}";
target = down;
type = TopGhost;
}
);
layerId = "C7EEC47D-2D39-4E2B-85C4-E2E866CE7804";
paths = (
{
closed = 1;
nodes = (
"143 -24 OFFCURVE",
"197 16 OFFCURVE",
"230 44 CURVE SMOOTH",
"245 57 OFFCURVE",
"350 157 OFFCURVE",
"350 168 CURVE SMOOTH",
"350 173 OFFCURVE",
"345 176 OFFCURVE",
"341 176 CURVE SMOOTH",
"338 176 OFFCURVE",
"336 175 OFFCURVE",
"334 173 CURVE SMOOTH",
"299 138 OFFCURVE",
"264 104 OFFCURVE",
"227 71 CURVE SMOOTH",
"197 44 OFFCURVE",
"134 0 OFFCURVE",
"92 0 CURVE SMOOTH",
"74 0 OFFCURVE",
"66 13 OFFCURVE",
"66 30 CURVE SMOOTH",
"66 89 OFFCURVE",
"201 258 OFFCURVE",
"259 258 CURVE SMOOTH",
"264 258 OFFCURVE",
"268 255 OFFCURVE",
"268 249 CURVE SMOOTH",
"268 231 OFFCURVE",
"240 211 OFFCURVE",
"240 198 CURVE SMOOTH",
"240 190 OFFCURVE",
"246 187 OFFCURVE",
"253 187 CURVE SMOOTH",
"281 187 OFFCURVE",
"298 229 OFFCURVE",
"298 252 CURVE SMOOTH",
"298 262 OFFCURVE",
"296 268 OFFCURVE",
"287 273 CURVE SMOOTH",
"274 280 OFFCURVE",
"281 303 OFFCURVE",
"255 303 CURVE SMOOTH",
"247 303 OFFCURVE",
"239 301 OFFCURVE",
"231 298 CURVE SMOOTH",
"155 272 OFFCURVE",
"27 139 OFFCURVE",
"27 54 CURVE SMOOTH",
"27 9 OFFCURVE",
"55 -24 OFFCURVE",
"99 -24 CURVE SMOOTH"
);
}
);
width = 249;
}
);
note = c;
unicode = 0063;
},
{
color = 3;
glyphname = d;
lastChange = "2021-08-03 12:26:09 +0000";
layers = (
{
hints = (
{
horizontal = 1;
place = "{-9, 20}";
type = Stem;
},
{
horizontal = 1;
place = "{256, 50}";
type = Stem;
},
{
place = "{28, 41}";
type = Stem;
},
{
place = "{172, 43}";
type = Stem;
},
{
horizontal = 1;
place = "{-19, 21}";
target = up;
type = BottomGhost;
},
{
horizontal = 1;
place = "{-9, 35}";
type = Stem;
}
);
layerId = "C7EEC47D-2D39-4E2B-85C4-E2E866CE7804";
paths = (
{
closed = 1;
nodes = (
"570 475 OFFCURVE",
"530 495 OFFCURVE",
"521 491 CURVE SMOOTH",
"488 479 OFFCURVE",
"419 397 OFFCURVE",
"405 382 CURVE SMOOTH",
"350 322 OFFCURVE",
"326 291 OFFCURVE",
"297 253 CURVE",
"293 293 OFFCURVE",
"266 306 OFFCURVE",
"242 306 CURVE SMOOTH",
"164 306 OFFCURVE",
"28 123 OFFCURVE",
"28 46 CURVE SMOOTH",
"28 21 OFFCURVE",
"40 1 OFFCURVE",
"64 -8 CURVE",
"65 -8 OFFCURVE",
"67 -9 OFFCURVE",
"68 -9 CURVE SMOOTH",
"105 -9 OFFCURVE",
"213 131 OFFCURVE",
"241 165 CURVE",
"224 139 OFFCURVE",
"172 57 OFFCURVE",
"172 26 CURVE SMOOTH",
"172 7 OFFCURVE",
"204 -19 OFFCURVE",
"222 -19 CURVE SMOOTH",
"238 -19 OFFCURVE",
"394 142 OFFCURVE",
"394 157 CURVE SMOOTH",
"394 161 OFFCURVE",
"391 164 OFFCURVE",
"387 164 CURVE SMOOTH",
"383 164 OFFCURVE",
"380 160 OFFCURVE",
"377 157 CURVE SMOOTH",
"357 134 OFFCURVE",
"246 19 OFFCURVE",
"219 11 CURVE SMOOTH",
"212 9 OFFCURVE",
"214 27 OFFCURVE",
"215 31 CURVE SMOOTH",
"246 127 OFFCURVE",
"331 235 OFFCURVE",
"443 354 CURVE SMOOTH",
"460 374 OFFCURVE",
"536 437 OFFCURVE",
"551 456 CURVE"
);
},
{
closed = 1;
nodes = (
"217 161 OFFCURVE",
"155 90 OFFCURVE",
"87 31 CURVE SMOOTH",
"85 29 OFFCURVE",
"81 26 OFFCURVE",
"78 26 CURVE SMOOTH",
"70 26 OFFCURVE",
"69 40 OFFCURVE",
"69 45 CURVE SMOOTH",
"69 83 OFFCURVE",
"96 136 OFFCURVE",
"120 165 CURVE SMOOTH",
"143 193 OFFCURVE",
"198 256 OFFCURVE",
"239 256 CURVE SMOOTH",
"254 256 OFFCURVE",
"265 246 OFFCURVE",
"272 233 CURVE"
);
}
);
width = 306;
}
);
note = d;
unicode = 0064;
},
{
color = 3;
glyphname = e;
lastChange = "2021-08-03 12:26:09 +0000";
layers = (
{
hints = (
{
horizontal = 1;
place = "{-1, 17}";
type = Stem;
},
{
horizontal = 1;
place = "{251, 39}";
type = Stem;
},
{
place = "{42, 33}";
type = Stem;
},
{
place = "{246, 27}";
type = Stem;
}
);
layerId = "C7EEC47D-2D39-4E2B-85C4-E2E866CE7804";
paths = (
{
closed = 1;
nodes = (
"140 -1 OFFCURVE",
"178 28 OFFCURVE",
"206 52 CURVE SMOOTH",
"222 66 OFFCURVE",
"333 166 OFFCURVE",
"333 182 CURVE SMOOTH",
"333 185 OFFCURVE",
"331 187 OFFCURVE",
"327 187 CURVE SMOOTH",
"323 187 OFFCURVE",
"317 184 OFFCURVE",
"314 181 CURVE SMOOTH",
"282 147 LINE SMOOTH",
"251 115 OFFCURVE",
"136 16 OFFCURVE",
"94 16 CURVE SMOOTH",
"81 16 OFFCURVE",
"75 27 OFFCURVE",
"75 39 CURVE SMOOTH",
"75 62 OFFCURVE",
"91 92 OFFCURVE",
"103 111 CURVE",
"138 116 OFFCURVE",
"229 172 OFFCURVE",
"256 196 CURVE SMOOTH",
"265 204 OFFCURVE",
"273 214 OFFCURVE",
"273 227 CURVE SMOOTH",
"273 238 OFFCURVE",
"268 247 OFFCURVE",
"263 256 CURVE SMOOTH",
"260 262 OFFCURVE",
"259 269 OFFCURVE",
"257 275 CURVE SMOOTH",
"254 285 OFFCURVE",
"251 290 OFFCURVE",
"240 290 CURVE SMOOTH",
"159 290 OFFCURVE",
"42 136 OFFCURVE",
"42 58 CURVE SMOOTH",
"42 19 OFFCURVE",
"64 -1 OFFCURVE",
"102 -1 CURVE SMOOTH"
);
},
{
closed = 1;
nodes = (
"246 248 OFFCURVE",
"246 247 OFFCURVE",
"246 245 CURVE SMOOTH",
"246 214 OFFCURVE",
"146 152 OFFCURVE",
"120 137 CURVE",
"138 163 OFFCURVE",
"205 251 OFFCURVE",
"241 251 CURVE SMOOTH",
"242 251 OFFCURVE",
"244 251 OFFCURVE",
"245 250 CURVE SMOOTH"
);
}
);
width = 222;
}
);
note = e;
unicode = 0065;
},
{
color = 3;
glyphname = f;
lastChange = "2021-08-03 13:25:48 +0000";
layers = (
{
layerId = "C7EEC47D-2D39-4E2B-85C4-E2E866CE7804";
paths = (
{
closed = 1;
nodes = (
"194 293 LINE",
"166 290 OFFCURVE",
"130 287 OFFCURVE",
"109 284 CURVE SMOOTH",
"91 282 OFFCURVE",
"83 261 OFFCURVE",
"83 244 CURVE SMOOTH",
"83 237 OFFCURVE",
"84 229 OFFCURVE",
"91 226 CURVE",
"105 226 OFFCURVE",
"138 238 OFFCURVE",
"161 246 CURVE",
"63 108 OFFCURVE",
"-48 -64 OFFCURVE",
"-82 -177 CURVE SMOOTH",
"-124 -318 OFFCURVE",
"-92 -384 OFFCURVE",
"-6 -384 CURVE SMOOTH",
"133 -384 OFFCURVE",
"266 -195 OFFCURVE",
"312 -23 CURVE SMOOTH",
"349 116 OFFCURVE",
"319 232 OFFCURVE",
"183 228 CURVE",
"188 238 OFFCURVE",
"195 248 OFFCURVE",
"202 259 CURVE",
"227 266 OFFCURVE",
"261 274 OFFCURVE",
"273 277 CURVE SMOOTH",
"300 282 OFFCURVE",
"326 288 OFFCURVE",
"353 292 CURVE",
"356 293 OFFCURVE",
"375 294 OFFCURVE",
"375 300 CURVE SMOOTH",
"375 305 OFFCURVE",
"362 306 OFFCURVE",
"358 306 CURVE SMOOTH",
"327 306 OFFCURVE",
"266 298 OFFCURVE",
"229 296 CURVE",
"279 361 OFFCURVE",
"348 433 OFFCURVE",
"397 481 CURVE SMOOTH",
"437 521 OFFCURVE",
"608 688 OFFCURVE",
"667 688 CURVE SMOOTH",
"705 688 OFFCURVE",
"685 660 OFFCURVE",
"672 647 CURVE SMOOTH",
"602 576 OFFCURVE",
"501 471 OFFCURVE",
"535 418 CURVE SMOOTH",
"542 406 OFFCURVE",
"541 418 OFFCURVE",
"542 424 CURVE SMOOTH",
"562 532 OFFCURVE",
"714 560 OFFCURVE",
"714 663 CURVE SMOOTH",
"714 695 OFFCURVE",
"700 734 OFFCURVE",
"664 734 CURVE SMOOTH",
"511 734 OFFCURVE",
"286 421 OFFCURVE",
"209 313 CURVE SMOOTH"
);
},
{
closed = 1;
nodes = (
"283 198 OFFCURVE",
"300 89 OFFCURVE",
"271 -24 CURVE SMOOTH",
"240 -145 OFFCURVE",
"135 -359 OFFCURVE",
"9 -359 CURVE SMOOTH",
"-119 -359 OFFCURVE",
"-28 -148 OFFCURVE",
"-3 -95 CURVE SMOOTH",
"29 -26 OFFCURVE",
"146 163 OFFCURVE",
"177 204 CURVE"
);
}
);
width = 354;
}
);
unicode = 0066;
},
{
color = 3;
glyphname = g;
lastChange = "2021-08-03 12:26:09 +0000";
layers = (
{
hints = (
{
horizontal = 1;
place = "{-393, 25}";
type = Stem;
},
{
horizontal = 1;
place = "{-8, 17}";
type = Stem;
},
{
horizontal = 1;
place = "{238, 51}";
type = Stem;
},
{
place = "{-197, 31}";
type = Stem;
},
{
place = "{18, 35}";
type = Stem;
},
{
place = "{221, 61}";
type = Stem;
}
);
layerId = "C7EEC47D-2D39-4E2B-85C4-E2E866CE7804";
paths = (
{
closed = 1;
nodes = (
"269 23 OFFCURVE",
"408 155 OFFCURVE",
"408 171 CURVE SMOOTH",
"408 174 OFFCURVE",
"405 177 OFFCURVE",
"402 177 CURVE SMOOTH",
"398 177 OFFCURVE",
"395 174 OFFCURVE",
"392 172 CURVE",
"371 152 OFFCURVE",
"352 128 OFFCURVE",
"331 107 CURVE SMOOTH",
"308 83 OFFCURVE",
"285 64 OFFCURVE",
"259 43 CURVE",
"279 99 OFFCURVE",
"282 136 OFFCURVE",
"282 195 CURVE SMOOTH",
"282 205 OFFCURVE",
"272 209 OFFCURVE",
"264 209 CURVE SMOOTH",
"252 209 OFFCURVE",
"242 202 OFFCURVE",
"238 190 CURVE",
"234 184 LINE SMOOTH",
"199 131 OFFCURVE",
"126 35 OFFCURVE",
"68 11 CURVE SMOOTH",
"65 10 OFFCURVE",
"63 9 OFFCURVE",
"60 9 CURVE SMOOTH",
"54 9 OFFCURVE",
"53 14 OFFCURVE",
"53 19 CURVE SMOOTH",
"53 29 OFFCURVE",
"57 42 OFFCURVE",
"61 52 CURVE SMOOTH",
"74 87 OFFCURVE",
"99 127 OFFCURVE",
"125 154 CURVE SMOOTH",
"154 184 OFFCURVE",
"212 238 OFFCURVE",
"257 238 CURVE SMOOTH",
"287 238 OFFCURVE",
"284 216 OFFCURVE",
"299 216 CURVE SMOOTH",
"310 216 OFFCURVE",
"314 229 OFFCURVE",
"314 238 CURVE SMOOTH",
"314 267 OFFCURVE",
"287 289 OFFCURVE",
"259 289 CURVE SMOOTH",
"170 289 OFFCURVE",
"18 138 OFFCURVE",
"18 45 CURVE SMOOTH",
"18 22 OFFCURVE",
"31 -8 OFFCURVE",
"57 -8 CURVE SMOOTH",
"106 -8 OFFCURVE",
"190 89 OFFCURVE",
"221 125 CURVE",
"222 80 OFFCURVE",
"209 32 OFFCURVE",
"194 -5 CURVE",
"140 -38 OFFCURVE",
"70 -80 OFFCURVE",
"37 -101 CURVE SMOOTH",
"-40 -150 OFFCURVE",
"-174 -231 OFFCURVE",
"-195 -327 CURVE SMOOTH",
"-196 -334 OFFCURVE",
"-197 -340 OFFCURVE",
"-197 -347 CURVE SMOOTH",
"-197 -377 OFFCURVE",
"-180 -393 OFFCURVE",
"-151 -393 CURVE SMOOTH",
"-121 -393 OFFCURVE",
"-86 -377 OFFCURVE",
"-61 -362 CURVE SMOOTH",
"89 -275 OFFCURVE",
"184 -159 OFFCURVE",
"245 3 CURVE"
);
},
{
closed = 1;
nodes = (
"178 -58 OFFCURVE",
"166 -81 OFFCURVE",
"153 -103 CURVE SMOOTH",
"134 -135 OFFCURVE",
"113 -165 OFFCURVE",
"90 -195 CURVE SMOOTH",
"51 -245 OFFCURVE",
"-57 -368 OFFCURVE",
"-128 -368 CURVE SMOOTH",
"-145 -368 OFFCURVE",
"-166 -360 OFFCURVE",
"-166 -339 CURVE SMOOTH",
"-166 -272 OFFCURVE",
"6 -151 OFFCURVE",
"58 -117 CURVE SMOOTH",
"101 -89 OFFCURVE",
"142 -60 OFFCURVE",
"184 -31 CURVE",
"184 -31 OFFCURVE",
"189 -31 OFFCURVE",
"188 -35 CURVE"
);
}
);
width = 307;
}
);
note = g;
unicode = 0067;
},
{
color = 3;
glyphname = h;
lastChange = "2021-08-03 12:26:09 +0000";
layers = (
{
hints = (
{
horizontal = 1;
place = "{-21, 29}";
type = Stem;
},
{
place = "{162, 45}";
type = Stem;
},
{
place = "{299, 69}";
type = Stem;
},
{
place = "{472, 47}";
type = Stem;
},
{
horizontal = 1;
place = "{-3, 21}";
target = up;
type = BottomGhost;
}
);
layerId = "C7EEC47D-2D39-4E2B-85C4-E2E866CE7804";
paths = (
{
closed = 1;
nodes = (
"47 67 OFFCURVE",
"26 43 OFFCURVE",
"14 13 CURVE",
"11 0 OFFCURVE",
"33 -3 OFFCURVE",
"41 -3 CURVE SMOOTH",
"44 -3 OFFCURVE",
"50 -3 OFFCURVE",
"52 -1 CURVE",
"95 66 OFFCURVE",
"140 122 OFFCURVE",
"215 187 CURVE SMOOTH",
"230 201 OFFCURVE",
"283 239 OFFCURVE",
"299 251 CURVE",
"298 247 OFFCURVE",
"296 244 OFFCURVE",
"278 219 CURVE",
"268 200 OFFCURVE",
"162 65 OFFCURVE",
"162 16 CURVE SMOOTH",
"162 -7 OFFCURVE",
"197 -21 OFFCURVE",
"217 -21 CURVE SMOOTH",
"224 -21 OFFCURVE",
"230 -20 OFFCURVE",
"235 -17 CURVE SMOOTH",
"283 11 OFFCURVE",
"397 112 OFFCURVE",
"431 158 CURVE SMOOTH",
"433 161 OFFCURVE",
"435 164 OFFCURVE",
"435 167 CURVE SMOOTH",
"435 171 OFFCURVE",
"433 173 OFFCURVE",
"429 173 CURVE SMOOTH",
"425 173 OFFCURVE",
"422 170 OFFCURVE",
"419 167 CURVE SMOOTH",
"388 134 OFFCURVE",
"252 8 OFFCURVE",
"213 8 CURVE SMOOTH",
"208 8 OFFCURVE",
"207 13 OFFCURVE",
"207 18 CURVE SMOOTH",
"207 37 OFFCURVE",
"229 74 OFFCURVE",
"239 90 CURVE SMOOTH",
"272 142 OFFCURVE",
"316 191 OFFCURVE",
"356 227 CURVE SMOOTH",
"390 257 OFFCURVE",
"341 290 OFFCURVE",
"316 290 CURVE SMOOTH",
"309 290 OFFCURVE",
"298 289 OFFCURVE",
"291 284 CURVE SMOOTH",
"245 246 OFFCURVE",
"171 178 OFFCURVE",
"116 127 CURVE",
"125 146 OFFCURVE",
"182 230 OFFCURVE",
"194 251 CURVE",
"265 302 OFFCURVE",
"519 465 OFFCURVE",
"519 520 CURVE SMOOTH",
"519 527 OFFCURVE",
"517 532 OFFCURVE",
"511 536 CURVE SMOOTH",
"493 547 OFFCURVE",
"489 569 OFFCURVE",
"464 569 CURVE SMOOTH",
"456 569 OFFCURVE",
"449 567 OFFCURVE",
"441 564 CURVE SMOOTH",
"274 508 OFFCURVE",
"135 231 OFFCURVE",
"105 175 CURVE SMOOTH"
);
},
{
closed = 1;
nodes = (
"444 463 OFFCURVE",
"418 444 OFFCURVE",
"375 407 CURVE SMOOTH",
"332 370 OFFCURVE",
"236 306 OFFCURVE",
"215 290 CURVE",
"262 366 OFFCURVE",
"383 502 OFFCURVE",
"441 521 CURVE SMOOTH",
"457 526 OFFCURVE",
"485 522 OFFCURVE",
"466 495 CURVE SMOOTH"
);
}
);
width = 339;
}
);
note = h;
unicode = 0068;
},
{
color = 3;
glyphname = i;
lastChange = "2021-08-03 12:26:09 +0000";
layers = (
{
hints = (
{
horizontal = 1;
place = "{-31, 34}";
type = Stem;
},
{
horizontal = 1;
place = "{367, 63}";
type = Stem;
},
{
place = "{64, 36}";
type = Stem;
}
);
layerId = "C7EEC47D-2D39-4E2B-85C4-E2E866CE7804";
paths = (
{
closed = 1;
nodes = (
"329 434 OFFCURVE",
"318 435 OFFCURVE",
"298 430 CURVE SMOOTH",
"245 417 OFFCURVE",
"230 367 OFFCURVE",
"270 367 CURVE SMOOTH",
"277 367 OFFCURVE",
"285 368 OFFCURVE",
"292 370 CURVE SMOOTH",
"319 377 OFFCURVE",
"335 412 OFFCURVE",
"341 438 CURVE"
);
},
{
closed = 1;
nodes = (
"301 168 OFFCURVE",
"300 171 OFFCURVE",
"296 171 CURVE SMOOTH",
"291 171 OFFCURVE",
"286 164 OFFCURVE",
"283 161 CURVE SMOOTH",
"250 122 OFFCURVE",
"212 87 OFFCURVE",
"173 54 CURVE SMOOTH",
"163 46 OFFCURVE",
"115 3 OFFCURVE",
"104 3 CURVE SMOOTH",
"101 3 OFFCURVE",
"100 6 OFFCURVE",
"100 9 CURVE SMOOTH",
"100 52 OFFCURVE",
"229 228 OFFCURVE",
"251 264 CURVE SMOOTH",
"262 282 OFFCURVE",
"221 290 OFFCURVE",
"209 290 CURVE SMOOTH",
"190 290 OFFCURVE",
"185 280 OFFCURVE",
"173 266 CURVE SMOOTH",
"135 223 OFFCURVE",
"95 184 OFFCURVE",
"59 144 CURVE SMOOTH",
"53 138 OFFCURVE",
"53 129 OFFCURVE",
"62 129 CURVE SMOOTH",
"66 129 OFFCURVE",
"71 134 OFFCURVE",
"73 136 CURVE SMOOTH",
"98 160 OFFCURVE",
"128 190 OFFCURVE",
"154 213 CURVE",
"126 169 OFFCURVE",
"73 60 OFFCURVE",
"64 10 CURVE",
"68 -10 OFFCURVE",
"89 -31 OFFCURVE",
"110 -31 CURVE SMOOTH",
"121 -31 OFFCURVE",
"131 -23 OFFCURVE",
"138 -15 CURVE SMOOTH",
"170 21 OFFCURVE",
"202 54 OFFCURVE",
"237 89 CURVE SMOOTH",
"256 109 OFFCURVE",
"279 129 OFFCURVE",
"296 151 CURVE SMOOTH",
"299 155 OFFCURVE",
"301 160 OFFCURVE",
"301 165 CURVE SMOOTH"
);
}
);
width = 209;
}
);
note = i;
unicode = 0069;
},
{
color = 3;
glyphname = j;
lastChange = "2021-08-03 12:26:09 +0000";
layers = (
{
hints = (
{
place = "{144, 60}";
type = Stem;
}
);
layerId = "C7EEC47D-2D39-4E2B-85C4-E2E866CE7804";
paths = (
{
closed = 1;
nodes = (
"189 101 OFFCURVE",
"207 178 OFFCURVE",
"207 239 CURVE SMOOTH",
"207 260 OFFCURVE",
"203 263 OFFCURVE",
"184 267 CURVE",
"181 267 OFFCURVE",
"179 268 OFFCURVE",
"176 268 CURVE SMOOTH",
"151 268 OFFCURVE",
"136 225 OFFCURVE",
"136 205 CURVE SMOOTH",
"136 194 OFFCURVE",
"144 183 OFFCURVE",
"150 174 CURVE",
"148 126 OFFCURVE",
"125 39 OFFCURVE",
"106 -5 CURVE",
"52 -38 OFFCURVE",
"-18 -80 OFFCURVE",
"-51 -101 CURVE SMOOTH",
"-128 -150 OFFCURVE",
"-262 -231 OFFCURVE",
"-283 -327 CURVE SMOOTH",
"-284 -334 OFFCURVE",
"-285 -340 OFFCURVE",
"-285 -347 CURVE SMOOTH",
"-285 -377 OFFCURVE",
"-268 -393 OFFCURVE",
"-239 -393 CURVE SMOOTH",
"-209 -393 OFFCURVE",
"-174 -377 OFFCURVE",
"-149 -362 CURVE SMOOTH",
"1 -275 OFFCURVE",
"96 -159 OFFCURVE",
"157 3 CURVE",
"181 23 OFFCURVE",
"320 155 OFFCURVE",
"320 171 CURVE SMOOTH",
"320 174 OFFCURVE",
"317 177 OFFCURVE",
"314 177 CURVE SMOOTH",
"310 177 OFFCURVE",
"307 174 OFFCURVE",
"304 172 CURVE",
"283 152 OFFCURVE",
"264 128 OFFCURVE",
"243 107 CURVE SMOOTH",
"220 83 OFFCURVE",
"197 64 OFFCURVE",
"171 43 CURVE"
);
},
{
closed = 1;
nodes = (
"264 434 OFFCURVE",
"253 435 OFFCURVE",
"233 430 CURVE SMOOTH",
"180 417 OFFCURVE",
"165 367 OFFCURVE",
"205 367 CURVE SMOOTH",
"212 367 OFFCURVE",
"220 368 OFFCURVE",
"227 370 CURVE SMOOTH",
"254 377 OFFCURVE",
"270 412 OFFCURVE",
"276 438 CURVE"
);
},
{
closed = 1;
nodes = (
"90 -58 OFFCURVE",
"78 -81 OFFCURVE",
"65 -103 CURVE SMOOTH",
"46 -135 OFFCURVE",
"25 -165 OFFCURVE",
"2 -195 CURVE SMOOTH",
"-37 -245 OFFCURVE",
"-145 -368 OFFCURVE",
"-216 -368 CURVE SMOOTH",
"-233 -368 OFFCURVE",
"-254 -360 OFFCURVE",
"-254 -339 CURVE SMOOTH",
"-254 -272 OFFCURVE",
"-82 -151 OFFCURVE",
"-30 -117 CURVE SMOOTH",
"13 -89 OFFCURVE",
"54 -60 OFFCURVE",
"96 -31 CURVE",
"96 -31 OFFCURVE",
"101 -31 OFFCURVE",
"100 -35 CURVE"
);
}
);
width = 219;
}
);
note = j;
unicode = 006A;
},
{
color = 3;
glyphname = k;
lastChange = "2021-08-03 12:26:09 +0000";
layers = (
{
hints = (
{
horizontal = 1;
place = "{-26, 32}";
type = Stem;
},
{
place = "{174, 42}";
type = Stem;
},
{
place = "{443, 12}";
type = Stem;
},
{
horizontal = 1;
place = "{-12, 21}";
target = up;
type = BottomGhost;
},
{
horizontal = 1;
place = "{302, 42}";
type = Stem;
},
{
place = "{387, 56}";
type = Stem;
}
);
layerId = "C7EEC47D-2D39-4E2B-85C4-E2E866CE7804";
paths = (
{
closed = 1;
nodes = (
"149 148 OFFCURVE",
"172 167 OFFCURVE",
"188 177 CURVE",
"165 83 OFFCURVE",
"160 -26 OFFCURVE",
"256 -26 CURVE SMOOTH",
"263 -26 OFFCURVE",
"270 -24 OFFCURVE",
"276 -21 CURVE SMOOTH",
"316 0 OFFCURVE",
"371 62 OFFCURVE",
"426 124 CURVE SMOOTH",
"434 133 OFFCURVE",
"443 143 OFFCURVE",
"443 143 CURVE",
"465 166 OFFCURVE",
"451 175 OFFCURVE",
"447 170 CURVE SMOOTH",
"435 155 OFFCURVE",
"382 106 OFFCURVE",
"365 91 CURVE SMOOTH",
"344 72 OFFCURVE",
"279 6 OFFCURVE",
"249 6 CURVE SMOOTH",
"201 6 OFFCURVE",
"213 109 OFFCURVE",
"234 193 CURVE",
"291 203 OFFCURVE",
"356 224 OFFCURVE",
"402 254 CURVE SMOOTH",
"417 264 OFFCURVE",
"443 284 OFFCURVE",
"443 304 CURVE SMOOTH",
"443 320 OFFCURVE",
"427 329 OFFCURVE",
"414 333 CURVE",
"408 341 OFFCURVE",
"397 344 OFFCURVE",
"387 344 CURVE SMOOTH",
"370 344 OFFCURVE",
"354 335 OFFCURVE",
"340 326 CURVE SMOOTH",
"289 291 OFFCURVE",
"232 247 OFFCURVE",
"185 207 CURVE SMOOTH",
"172 196 OFFCURVE",
"166 192 OFFCURVE",
"162 196 CURVE",
"224 292 OFFCURVE",
"333 422 OFFCURVE",
"406 487 CURVE SMOOTH",
"420 500 OFFCURVE",
"434 510 OFFCURVE",
"450 523 CURVE",
"456 526 OFFCURVE",
"458 531 OFFCURVE",
"458 538 CURVE SMOOTH",
"457 554 OFFCURVE",
"439 575 OFFCURVE",
"426 567 CURVE SMOOTH",
"375 533 OFFCURVE",
"244 377 OFFCURVE",
"203 317 CURVE SMOOTH",
"149 235 OFFCURVE",
"103 194 OFFCURVE",
"73 156 CURVE SMOOTH",
"62 142 OFFCURVE",
"71 136 OFFCURVE",
"81 145 CURVE SMOOTH",
"94 157 OFFCURVE",
"104 167 OFFCURVE",
"116 177 CURVE",
"44 49 LINE",
"21 28 OFFCURVE",
"9 -12 OFFCURVE",
"43 -12 CURVE SMOOTH",
"49 -12 OFFCURVE",
"57 -12 OFFCURVE",
"61 -6 CURVE SMOOTH",
"82 28 OFFCURVE",
"97 71 OFFCURVE",
"120 117 CURVE"
);
},
{
closed = 1;
nodes = (
"380 261 OFFCURVE",
"271 224 OFFCURVE",
"241 219 CURVE",
"262 236 OFFCURVE",
"356 302 OFFCURVE",
"376 302 CURVE SMOOTH",
"380 302 OFFCURVE",
"385 300 OFFCURVE",
"387 295 CURVE"
);
}
);
width = 363;
}
);
note = k;
unicode = 006B;
},
{
color = 3;
glyphname = l;
lastChange = "2021-08-03 12:26:09 +0000";
layers = (
{
hints = (
{
horizontal = 1;
place = "{-20, 32}";
type = Stem;
},
{
horizontal = 1;
place = "{524, 45}";
type = Stem;
},
{
place = "{39, 50}";
type = Stem;
}
);
layerId = "C7EEC47D-2D39-4E2B-85C4-E2E866CE7804";
paths = (
{
closed = 1;
nodes = (
"74 163 OFFCURVE",
"39 87 OFFCURVE",
"39 45 CURVE SMOOTH",
"39 36 OFFCURVE",
"40 29 OFFCURVE",
"45 21 CURVE SMOOTH",
"57 1 OFFCURVE",
"96 -20 OFFCURVE",
"119 -20 CURVE SMOOTH",
"126 -20 OFFCURVE",
"133 -18 OFFCURVE",
"139 -15 CURVE SMOOTH",
"209 21 OFFCURVE",
"266 91 OFFCURVE",
"319 150 CURVE SMOOTH",
"322 153 OFFCURVE",
"324 156 OFFCURVE",
"324 161 CURVE SMOOTH",
"324 164 OFFCURVE",
"322 168 OFFCURVE",
"318 168 CURVE SMOOTH",
"314 168 OFFCURVE",
"311 165 OFFCURVE",
"309 163 CURVE SMOOTH",
"273 125 OFFCURVE",
"250 98 OFFCURVE",
"216 70 CURVE SMOOTH",
"194 52 OFFCURVE",
"142 12 OFFCURVE",
"112 12 CURVE SMOOTH",
"91 12 OFFCURVE",
"89 37 OFFCURVE",
"89 53 CURVE SMOOTH",
"89 96 OFFCURVE",
"110 147 OFFCURVE",
"130 185 CURVE",
"161 204 OFFCURVE",
"505 429 OFFCURVE",
"505 520 CURVE SMOOTH",
"505 527 OFFCURVE",
"503 532 OFFCURVE",
"497 536 CURVE SMOOTH",
"479 547 OFFCURVE",
"475 569 OFFCURVE",
"450 569 CURVE SMOOTH",
"442 569 OFFCURVE",
"435 567 OFFCURVE",
"427 564 CURVE SMOOTH",
"319 528 OFFCURVE",
"175 338 OFFCURVE",
"122 246 CURVE SMOOTH"
);
},
{
closed = 1;
nodes = (
"455 471 OFFCURVE",
"221 258 OFFCURVE",
"162 237 CURVE",
"209 313 OFFCURVE",
"369 502 OFFCURVE",
"427 521 CURVE SMOOTH",
"443 526 OFFCURVE",
"479 526 OFFCURVE",
"468 502 CURVE SMOOTH"
);
}
);
width = 233;
}
);
note = l;
unicode = 006C;
},
{
color = 3;
glyphname = m;
lastChange = "2021-08-03 12:26:09 +0000";
layers = (
{
hints = (
{
horizontal = 1;
place = "{334, -20}";
target = down;
type = TopGhost;
}
);
layerId = "C7EEC47D-2D39-4E2B-85C4-E2E866CE7804";
paths = (
{
closed = 1;
nodes = (
"443 -22 OFFCURVE",
"447 -21 OFFCURVE",
"450 -19 CURVE SMOOTH",
"487 2 OFFCURVE",
"522 42 OFFCURVE",
"550 74 CURVE SMOOTH",
"574 100 OFFCURVE",
"591 124 OFFCURVE",
"614 151 CURVE SMOOTH",
"617 155 OFFCURVE",
"624 163 OFFCURVE",
"624 168 CURVE SMOOTH",
"624 172 OFFCURVE",
"618 173 OFFCURVE",
"615 171 CURVE SMOOTH",
"591 157 OFFCURVE",
"510 47 OFFCURVE",
"454 16 CURVE SMOOTH",
"439 8 OFFCURVE",
"427 0 OFFCURVE",
"427 22 CURVE SMOOTH",
"427 84 OFFCURVE",
"500 172 OFFCURVE",
"535 205 CURVE SMOOTH",
"582 245 LINE SMOOTH",
"588 250 OFFCURVE",
"595 258 OFFCURVE",
"595 266 CURVE SMOOTH",
"595 287 OFFCURVE",
"551 295 OFFCURVE",
"534 295 CURVE SMOOTH",
"525 295 OFFCURVE",
"517 293 OFFCURVE",
"510 288 CURVE SMOOTH",
"453 250 OFFCURVE",
"398 196 OFFCURVE",
"337 142 CURVE",
"344 157 OFFCURVE",
"361 183 OFFCURVE",
"375 207 CURVE SMOOTH",
"384 222 OFFCURVE",
"398 239 OFFCURVE",
"398 257 CURVE SMOOTH",
"398 273 OFFCURVE",
"387 284 OFFCURVE",
"371 284 CURVE SMOOTH",
"356 284 OFFCURVE",
"343 276 OFFCURVE",
"332 267 CURVE SMOOTH",
"258 205 OFFCURVE",
"177 125 OFFCURVE",
"107 58 CURVE",
"104 56 OFFCURVE",
"140 116 OFFCURVE",
"142 120 CURVE SMOOTH",
"183 182 OFFCURVE",
"228 249 OFFCURVE",
"288 299 CURVE",
"290 300 OFFCURVE",
"290 302 OFFCURVE",
"290 304 CURVE SMOOTH",
"290 319 OFFCURVE",
"269 331 OFFCURVE",
"257 331 CURVE SMOOTH",
"235 331 OFFCURVE",
"213 310 OFFCURVE",
"184 280 CURVE SMOOTH",
"173 267 OFFCURVE",
"53 146 OFFCURVE",
"49 130 CURVE SMOOTH",
"48 127 OFFCURVE",
"52 122 OFFCURVE",
"55 122 CURVE SMOOTH",
"63 123 OFFCURVE",
"72 134 OFFCURVE",
"75 137 CURVE SMOOTH",
"116 188 OFFCURVE",
"145 211 OFFCURVE",
"186 247 CURVE",
"161 209 OFFCURVE",
"56 55 OFFCURVE",
"56 16 CURVE SMOOTH",
"56 3 OFFCURVE",
"75 -2 OFFCURVE",
"83 -2 CURVE SMOOTH",
"91 -2 OFFCURVE",
"102 1 OFFCURVE",
"107 7 CURVE SMOOTH",
"118 19 OFFCURVE",
"128 32 OFFCURVE",
"138 44 CURVE SMOOTH",
"187 102 OFFCURVE",
"248 175 OFFCURVE",
"313 219 CURVE SMOOTH",
"314 220 OFFCURVE",
"339 233 OFFCURVE",
"339 230 CURVE SMOOTH",
"339 215 OFFCURVE",
"298 159 OFFCURVE",
"272 116 CURVE SMOOTH",
"245 71 OFFCURVE",
"215 30 OFFCURVE",
"215 11 CURVE SMOOTH",
"215 1 OFFCURVE",
"224 -6 OFFCURVE",
"233 -6 CURVE SMOOTH",
"250 -6 OFFCURVE",
"264 12 OFFCURVE",
"274 26 CURVE SMOOTH",
"290 50 OFFCURVE",
"306 73 OFFCURVE",
"325 95 CURVE SMOOTH",
"364 142 OFFCURVE",
"451 220 OFFCURVE",
"507 248 CURVE",
"507 244 OFFCURVE",
"514 246 OFFCURVE",
"495 222 CURVE SMOOTH",
"464 183 OFFCURVE",
"375 78 OFFCURVE",
"375 33 CURVE SMOOTH",
"375 8 OFFCURVE",
"417 -22 OFFCURVE",
"439 -22 CURVE SMOOTH"
);
}
);
width = 528;
}
);
note = m;
unicode = 006D;
},
{
color = 3;
glyphname = n;
lastChange = "2021-08-03 12:26:09 +0000";
layers = (
{
hints = (
{
horizontal = 1;
place = "{-17, 21}";
target = up;
type = BottomGhost;
},
{
place = "{198, 48}";
type = Stem;
},
{
horizontal = 1;
place = "{-21, 21}";
target = up;
type = BottomGhost;
},
{
horizontal = 1;
place = "{-21, 27}";
type = Stem;
}
);
layerId = "C7EEC47D-2D39-4E2B-85C4-E2E866CE7804";
paths = (
{
closed = 1;
nodes = (
"173 164 OFFCURVE",
"230 248 OFFCURVE",
"290 298 CURVE",
"292 299 OFFCURVE",
"292 301 OFFCURVE",
"292 303 CURVE SMOOTH",
"292 318 OFFCURVE",
"269 331 OFFCURVE",
"257 331 CURVE SMOOTH",
"235 331 OFFCURVE",
"221 319 OFFCURVE",
"208 302 CURVE SMOOTH",
"189 277 OFFCURVE",
"53 148 OFFCURVE",
"53 132 CURVE SMOOTH",
"53 129 OFFCURVE",
"55 127 OFFCURVE",
"58 127 CURVE SMOOTH",
"63 127 OFFCURVE",
"72 134 OFFCURVE",
"75 137 CURVE SMOOTH",
"99 162 OFFCURVE",
"122 188 OFFCURVE",
"148 212 CURVE SMOOTH",
"155 218 OFFCURVE",
"184 242 OFFCURVE",
"189 248 CURVE",
"164 210 OFFCURVE",
"43 36 OFFCURVE",
"43 -3 CURVE SMOOTH",
"43 -29 OFFCURVE",
"79 -13 OFFCURVE",
"87 -2 CURVE SMOOTH",
"99 14 OFFCURVE",
"110 32 OFFCURVE",
"121 48 CURVE SMOOTH",
"163 106 OFFCURVE",
"202 149 OFFCURVE",
"259 192 CURVE SMOOTH",
"271 201 OFFCURVE",
"311 228 OFFCURVE",
"324 234 CURVE",
"300 181 OFFCURVE",
"198 69 OFFCURVE",
"198 14 CURVE SMOOTH",
"198 -10 OFFCURVE",
"230 -21 OFFCURVE",
"250 -21 CURVE SMOOTH",
"256 -21 OFFCURVE",
"261 -20 OFFCURVE",
"266 -17 CURVE SMOOTH",
"319 15 OFFCURVE",
"406 102 OFFCURVE",
"444 153 CURVE SMOOTH",
"446 156 OFFCURVE",
"447 158 OFFCURVE",
"447 162 CURVE SMOOTH",
"447 165 OFFCURVE",
"446 169 OFFCURVE",
"442 169 CURVE SMOOTH",
"437 169 OFFCURVE",
"434 164 OFFCURVE",
"431 161 CURVE SMOOTH",
"392 114 OFFCURVE",
"302 28 OFFCURVE",
"247 6 CURVE",
"246 10 OFFCURVE",
"246 14 OFFCURVE",
"246 18 CURVE SMOOTH",
"246 87 OFFCURVE",
"347 189 OFFCURVE",
"392 233 CURVE SMOOTH",
"403 244 OFFCURVE",
"413 250 OFFCURVE",
"413 267 CURVE SMOOTH",
"413 284 OFFCURVE",
"396 292 OFFCURVE",
"381 292 CURVE SMOOTH",
"368 292 OFFCURVE",
"354 295 OFFCURVE",
"344 288 CURVE SMOOTH",
"334 281 OFFCURVE",
"324 271 OFFCURVE",
"315 263 CURVE SMOOTH",
"244 205 LINE SMOOTH",
"207 174 OFFCURVE",
"164 138 OFFCURVE",
"132 102 CURVE"
);
}
);
width = 356;
}
);
note = n;
unicode = 006E;
},
{
color = 3;
glyphname = o;
lastChange = "2021-08-03 12:26:09 +0000";
layers = (
{
hints = (
{
horizontal = 1;
place = "{38, 17}";
type = Stem;
}
);
layerId = "C7EEC47D-2D39-4E2B-85C4-E2E866CE7804";
paths = (
{
closed = 1;
nodes = (
"390 168 OFFCURVE",
"389 172 OFFCURVE",
"385 172 CURVE SMOOTH",
"377 172 OFFCURVE",
"373 168 OFFCURVE",
"368 163 CURVE SMOOTH",
"325 123 OFFCURVE",
"284 81 OFFCURVE",
"226 65 CURVE",
"236 75 OFFCURVE",
"245 86 OFFCURVE",
"254 98 CURVE SMOOTH",
"288 144 OFFCURVE",
"323 192 OFFCURVE",
"323 251 CURVE SMOOTH",
"323 280 OFFCURVE",
"307 297 OFFCURVE",
"278 297 CURVE SMOOTH",
"243 297 OFFCURVE",
"204 278 OFFCURVE",
"176 258 CURVE",
"167 265 OFFCURVE",
"154 270 OFFCURVE",
"145 259 CURVE SMOOTH",
"104 213 OFFCURVE",
"38 119 OFFCURVE",
"38 51 CURVE SMOOTH",
"38 17 OFFCURVE",
"56 -21 OFFCURVE",
"95 -21 CURVE SMOOTH",
"132 -21 OFFCURVE",
"175 12 OFFCURVE",
"200 37 CURVE",
"270 48 OFFCURVE",
"339 100 OFFCURVE",
"383 154 CURVE",
"384 156 OFFCURVE",
"390 163 OFFCURVE",
"390 165 CURVE SMOOTH"
);
},
{
closed = 1;
nodes = (
"281 190 OFFCURVE",
"228 106 OFFCURVE",
"188 59 CURVE",
"138 50 OFFCURVE",
"110 86 OFFCURVE",
"114 135 CURVE",
"129 160 OFFCURVE",
"188 212 OFFCURVE",
"188 233 CURVE SMOOTH",
"188 236 LINE",
"208 250 OFFCURVE",
"241 267 OFFCURVE",
"264 267 CURVE SMOOTH",
"276 267 OFFCURVE",
"281 261 OFFCURVE",
"281 249 CURVE SMOOTH"
);
},
{
closed = 1;
nodes = (
"148 20 OFFCURVE",
"121 -4 OFFCURVE",
"96 -4 CURVE SMOOTH",
"57 -4 OFFCURVE",
"79 70 OFFCURVE",
"86 85 CURVE",
"107 61 OFFCURVE",
"133 39 OFFCURVE",
"165 36 CURVE"
);
}
);
width = 293;
}
);
note = o;
unicode = 006F;
},
{
color = 3;
glyphname = p;
lastChange = "2021-08-03 12:26:09 +0000";
layers = (
{
hints = (
{
place = "{259, 39}";
type = Stem;
}
);
layerId = "C7EEC47D-2D39-4E2B-85C4-E2E866CE7804";
paths = (
{
closed = 1;
nodes = (
"294 227 OFFCURVE",
"281 243 OFFCURVE",
"260 263 CURVE",
"273 280 OFFCURVE",
"304 305 OFFCURVE",
"326 326 CURVE SMOOTH",
"336 336 OFFCURVE",
"344 345 OFFCURVE",
"344 359 CURVE SMOOTH",
"344 371 OFFCURVE",
"337 383 OFFCURVE",
"323 383 CURVE SMOOTH",
"314 383 OFFCURVE",
"306 378 OFFCURVE",
"300 372 CURVE SMOOTH",
"292 365 OFFCURVE",
"286 356 OFFCURVE",
"278 348 CURVE SMOOTH",
"225 293 LINE",
"209 305 OFFCURVE",
"184 305 OFFCURVE",
"182 305 CURVE SMOOTH",
"171 305 OFFCURVE",
"162 301 OFFCURVE",
"162 288 CURVE SMOOTH",
"162 277 OFFCURVE",
"179 266 OFFCURVE",
"186 257 CURVE",
"75 140 OFFCURVE",
"-6 3 OFFCURVE",
"-53 -152 CURVE SMOOTH",
"-74 -220 OFFCURVE",
"-98 -334 OFFCURVE",
"-4 -334 CURVE SMOOTH",
"22 -334 OFFCURVE",
"44 -318 OFFCURVE",
"42 -299 CURVE",
"27 -307 OFFCURVE",
"5 -306 OFFCURVE",
"1 -306 CURVE SMOOTH",
"-22 -306 OFFCURVE",
"-30 -288 OFFCURVE",
"-30 -260 CURVE SMOOTH",
"-30 -206 OFFCURVE",
"9 -66 OFFCURVE",
"44 -7 CURVE",
"55 -17 OFFCURVE",
"70 -21 OFFCURVE",
"83 -21 CURVE SMOOTH",
"198 -21 OFFCURVE",
"342 80 OFFCURVE",
"303 201 CURVE SMOOTH"
);
},
{
closed = 1;
nodes = (
"110 0 OFFCURVE",
"90 3 OFFCURVE",
"79 14 CURVE SMOOTH",
"76 17 OFFCURVE",
"65 31 OFFCURVE",
"55 19 CURVE",
"103 106 OFFCURVE",
"170 182 OFFCURVE",
"219 233 CURVE",
"243 218 OFFCURVE",
"257 190 OFFCURVE",
"261 164 CURVE SMOOTH",
"274 77 OFFCURVE",
"206 16 OFFCURVE",
"132 4 CURVE SMOOTH"
);
}
);
width = 284;
}
);
note = p;
unicode = 0070;
},
{
color = 3;
glyphname = q;
lastChange = "2021-08-03 12:26:09 +0000";
layers = (
{
hints = (
{
horizontal = 1;
place = "{-273, 21}";
type = Stem;
},
{
horizontal = 1;
place = "{-8, 39}";
type = Stem;
},
{
horizontal = 1;
place = "{254, 49}";
type = Stem;
},
{
place = "{27, 33}";
type = Stem;
},
{
place = "{59, 47}";
type = Stem;
}
);
layerId = "C7EEC47D-2D39-4E2B-85C4-E2E866CE7804";
paths = (
{
closed = 1;
nodes = (
"327 226 OFFCURVE",
"328 240 OFFCURVE",
"328 246 CURVE SMOOTH",
"328 278 OFFCURVE",
"303 303 OFFCURVE",
"271 303 CURVE SMOOTH",
"187 303 OFFCURVE",
"27 132 OFFCURVE",
"27 44 CURVE SMOOTH",
"27 22 OFFCURVE",
"39 -8 OFFCURVE",
"64 -8 CURVE SMOOTH",
"111 -8 OFFCURVE",
"208 115 OFFCURVE",
"239 153 CURVE",
"173 54 OFFCURVE",
"111 -79 OFFCURVE",
"96 -114 CURVE SMOOTH",
"68 -177 OFFCURVE",
"59 -199 OFFCURVE",
"59 -218 CURVE SMOOTH",
"59 -255 OFFCURVE",
"87 -259 OFFCURVE",
"115 -271 CURVE SMOOTH",
"118 -272 OFFCURVE",
"122 -273 OFFCURVE",
"125 -273 CURVE SMOOTH",
"136 -273 OFFCURVE",
"157 -271 OFFCURVE",
"157 -259 CURVE SMOOTH",
"157 -256 OFFCURVE",
"156 -254 OFFCURVE",
"153 -253 CURVE SMOOTH",
"151 -252 OFFCURVE",
"147 -252 OFFCURVE",
"145 -252 CURVE SMOOTH",
"117 -252 OFFCURVE",
"106 -259 OFFCURVE",
"106 -227 CURVE SMOOTH",
"106 -119 OFFCURVE",
"225 57 OFFCURVE",
"279 135 CURVE SMOOTH",
"291 153 OFFCURVE",
"306 171 OFFCURVE",
"317 190 CURVE SMOOTH",
"319 193 OFFCURVE",
"320 196 OFFCURVE",
"320 199 CURVE SMOOTH",
"320 216 OFFCURVE",
"280 219 OFFCURVE",
"267 219 CURVE",
"229 164 OFFCURVE",
"141 64 OFFCURVE",
"85 34 CURVE SMOOTH",
"82 32 OFFCURVE",
"75 31 OFFCURVE",
"72 31 CURVE SMOOTH",
"63 31 OFFCURVE",
"60 37 OFFCURVE",
"60 45 CURVE SMOOTH",
"60 79 OFFCURVE",
"107 139 OFFCURVE",
"128 163 CURVE SMOOTH",
"158 198 OFFCURVE",
"211 254 OFFCURVE",
"262 254 CURVE SMOOTH",
"297 254 OFFCURVE",
"310 226 OFFCURVE",
"318 226 CURVE SMOOTH"
);
}
);
width = 293;
}
);
note = q;
unicode = 0071;
},
{
color = 3;
glyphname = r;
lastChange = "2021-08-03 12:26:09 +0000";
layers = (
{
hints = (
{
horizontal = 1;
place = "{327, -20}";
target = down;
type = TopGhost;
}
);
layerId = "C7EEC47D-2D39-4E2B-85C4-E2E866CE7804";
paths = (
{
closed = 1;
nodes = (
"168 -22 OFFCURVE",
"172 -20 OFFCURVE",
"187 -8 CURVE SMOOTH",
"215 15 OFFCURVE",
"347 146 OFFCURVE",
"347 160 CURVE SMOOTH",
"347 172 OFFCURVE",
"335 165 OFFCURVE",
"331 161 CURVE SMOOTH",
"288 123 OFFCURVE",
"203 8 OFFCURVE",
"149 8 CURVE SMOOTH",
"147 8 OFFCURVE",
"146 8 OFFCURVE",
"145 9 CURVE SMOOTH",
"144 11 OFFCURVE",
"143 14 OFFCURVE",
"143 17 CURVE SMOOTH",
"143 60 OFFCURVE",
"234 140 OFFCURVE",
"265 165 CURVE SMOOTH",
"275 173 OFFCURVE",
"288 185 OFFCURVE",
"288 198 CURVE SMOOTH",
"288 214 OFFCURVE",
"271 222 OFFCURVE",
"258 222 CURVE SMOOTH",
"248 222 OFFCURVE",
"239 216 OFFCURVE",
"229 216 CURVE SMOOTH",
"219 216 OFFCURVE",
"189 226 OFFCURVE",
"181 232 CURVE",
"179 244 OFFCURVE",
"250 278 OFFCURVE",
"250 310 CURVE SMOOTH",
"250 324 OFFCURVE",
"240 332 OFFCURVE",
"227 332 CURVE SMOOTH",
"212 332 OFFCURVE",
"197 324 OFFCURVE",
"186 314 CURVE SMOOTH",
"161 293 OFFCURVE",
"153 269 OFFCURVE",
"142 239 CURVE SMOOTH",
"136 222 OFFCURVE",
"79 171 OFFCURVE",
"47 129 CURVE SMOOTH",
"40 121 OFFCURVE",
"41 109 OFFCURVE",
"60 123 CURVE SMOOTH",
"76 135 OFFCURVE",
"138 212 OFFCURVE",
"165 212 CURVE SMOOTH",
"183 212 OFFCURVE",
"192 200 OFFCURVE",
"204 189 CURVE",
"204 187 LINE SMOOTH",
"204 172 OFFCURVE",
"110 81 OFFCURVE",
"110 27 CURVE SMOOTH",
"110 5 OFFCURVE",
"140 -22 OFFCURVE",
"161 -22 CURVE SMOOTH"
);
}
);
width = 256;
}
);
note = r;
unicode = 0072;
},
{
color = 3;
glyphname = s;
lastChange = "2021-08-03 12:26:09 +0000";
layers = (
{
hints = (
{
horizontal = 1;
place = "{302, -20}";
target = down;
type = TopGhost;
}
);
layerId = "C7EEC47D-2D39-4E2B-85C4-E2E866CE7804";
paths = (
{
closed = 1;
nodes = (
"391 275 OFFCURVE",
"402 315 OFFCURVE",
"364 321 CURVE SMOOTH",
"323 327 OFFCURVE",
"292 299 OFFCURVE",
"268 260 CURVE",
"223 214 OFFCURVE",
"161 145 OFFCURVE",
"109 85 CURVE",
"105 86 OFFCURVE",
"102 88 OFFCURVE",
"99 90 CURVE",
"97 102 OFFCURVE",
"95 160 OFFCURVE",
"95 169 CURVE SMOOTH",
"93 204 OFFCURVE",
"53 157 OFFCURVE",
"53 120 CURVE SMOOTH",
"53 96 OFFCURVE",
"74 88 OFFCURVE",
"83 82 CURVE",
"83 74 OFFCURVE",
"84 67 OFFCURVE",
"86 59 CURVE",
"12 -25 LINE SMOOTH",
"3 -35 OFFCURVE",
"5 -52 OFFCURVE",
"14 -43 CURVE SMOOTH",
"91 41 LINE",
"101 11 OFFCURVE",
"119 -18 OFFCURVE",
"136 -32 CURVE SMOOTH",
"175 -63 OFFCURVE",
"224 -62 OFFCURVE",
"236 3 CURVE SMOOTH",
"237 11 OFFCURVE",
"242 29 OFFCURVE",
"247 57 CURVE",
"256 58 OFFCURVE",
"293 60 OFFCURVE",
"329 81 CURVE SMOOTH",
"346 91 OFFCURVE",
"373 115 OFFCURVE",
"389 136 CURVE SMOOTH",
"410 163 OFFCURVE",
"395 164 OFFCURVE",
"386 154 CURVE SMOOTH",
"325 91 OFFCURVE",
"291 82 OFFCURVE",
"250 74 CURVE",
"261 146 OFFCURVE",
"284 233 OFFCURVE",
"298 259 CURVE SMOOTH",
"307 275 OFFCURVE",
"329 276 OFFCURVE",
"359 275 CURVE SMOOTH"
);
},
{
closed = 1;
nodes = (
"225 160 OFFCURVE",
"214 104 OFFCURVE",
"208 74 CURVE",
"182 72 OFFCURVE",
"151 74 OFFCURVE",
"126 80 CURVE",
"166 125 OFFCURVE",
"210 172 OFFCURVE",
"245 211 CURVE"
);
},
{
closed = 1;
nodes = (
"203 54 OFFCURVE",
"203 52 OFFCURVE",
"203 51 CURVE SMOOTH",
"186 -16 OFFCURVE",
"170 -7 OFFCURVE",
"151 3 CURVE SMOOTH",
"132 12 OFFCURVE",
"117 37 OFFCURVE",
"107 59 CURVE",
"115 68 LINE",
"142 59 OFFCURVE",
"172 56 OFFCURVE",
"204 55 CURVE"
);
}
);
width = 318;
}
);
note = s;
unicode = 0073;
},
{
color = 3;
glyphname = t;
lastChange = "2021-08-03 12:26:09 +0000";
layers = (
{
hints = (
{
horizontal = 1;
place = "{348, 12}";
type = Stem;
}
);
layerId = "C7EEC47D-2D39-4E2B-85C4-E2E866CE7804";
paths = (
{
closed = 1;
nodes = (
"335 485 OFFCURVE",
"273 411 OFFCURVE",
"223 345 CURVE",
"189 340 OFFCURVE",
"161 334 OFFCURVE",
"140 327 CURVE SMOOTH",
"127 323 OFFCURVE",
"119 312 OFFCURVE",
"120 296 CURVE SMOOTH",
"120 290 OFFCURVE",
"122 284 OFFCURVE",
"127 283 CURVE",
"136 283 OFFCURVE",
"173 298 OFFCURVE",
"196 307 CURVE",
"151 244 OFFCURVE",
"107 158 OFFCURVE",
"81 101 CURVE SMOOTH",
"72 81 OFFCURVE",
"66 60 OFFCURVE",
"66 39 CURVE SMOOTH",
"66 7 OFFCURVE",
"85 -36 OFFCURVE",
"122 -36 CURVE SMOOTH",
"126 -36 OFFCURVE",
"130 -35 OFFCURVE",
"134 -34 CURVE",
"167 8 OFFCURVE",
"201 48 OFFCURVE",
"236 89 CURVE SMOOTH",
"253 110 OFFCURVE",
"273 130 OFFCURVE",
"289 152 CURVE SMOOTH",
"291 155 OFFCURVE",
"293 158 OFFCURVE",
"293 161 CURVE SMOOTH",
"293 165 OFFCURVE",
"290 169 OFFCURVE",
"286 169 CURVE SMOOTH",
"283 169 OFFCURVE",
"280 166 OFFCURVE",
"278 164 CURVE SMOOTH",
"248 133 OFFCURVE",
"217 103 OFFCURVE",
"188 71 CURVE SMOOTH",
"172 54 OFFCURVE",
"155 33 OFFCURVE",
"137 18 CURVE SMOOTH",
"131 13 OFFCURVE",
"124 7 OFFCURVE",
"116 7 CURVE SMOOTH",
"109 7 OFFCURVE",
"109 11 OFFCURVE",
"109 18 CURVE SMOOTH",
"109 61 OFFCURVE",
"137 137 OFFCURVE",
"172 204 CURVE",
"196 242 OFFCURVE",
"202 264 OFFCURVE",
"249 320 CURVE",
"276 328 OFFCURVE",
"306 333 OFFCURVE",
"346 338 CURVE SMOOTH",
"356 339 OFFCURVE",
"388 340 OFFCURVE",
"388 349 CURVE SMOOTH",
"388 361 OFFCURVE",
"340 357 OFFCURVE",
"330 357 CURVE SMOOTH",
"324 357 OFFCURVE",
"303 356 OFFCURVE",
"276 352 CURVE",
"324 405 OFFCURVE",
"366 447 OFFCURVE",
"420 480 CURVE SMOOTH",
"426 483 OFFCURVE",
"428 488 OFFCURVE",
"428 495 CURVE SMOOTH",
"427 511 OFFCURVE",
"408 532 OFFCURVE",
"396 524 CURVE SMOOTH"
);
}
);
width = 201;
}
);
note = t;
unicode = 0074;
},
{
color = 3;
glyphname = u;
lastChange = "2021-08-03 12:26:09 +0000";
layers = (
{
hints = (
{
horizontal = 1;
place = "{-17, 31}";
type = Stem;
},
{
place = "{44, 45}";
type = Stem;
},
{
place = "{211, 47}";
type = Stem;
},
{
horizontal = 1;
place = "{-10, 53}";
type = Stem;
}
);
layerId = "C7EEC47D-2D39-4E2B-85C4-E2E866CE7804";
paths = (
{
closed = 1;
nodes = (
"292 -17 OFFCURVE",
"305 -8 OFFCURVE",
"315 4 CURVE SMOOTH",
"356 52 OFFCURVE",
"396 102 OFFCURVE",
"438 150 CURVE SMOOTH",
"441 154 OFFCURVE",
"444 156 OFFCURVE",
"444 161 CURVE SMOOTH",
"444 165 OFFCURVE",
"441 169 OFFCURVE",
"437 169 CURVE SMOOTH",
"434 169 OFFCURVE",
"431 166 OFFCURVE",
"429 164 CURVE SMOOTH",
"401 133 OFFCURVE",
"319 35 OFFCURVE",
"289 19 CURVE SMOOTH",
"273 10 OFFCURVE",
"258 10 OFFCURVE",
"258 30 CURVE SMOOTH",
"258 53 OFFCURVE",
"269 91 OFFCURVE",
"279 111 CURVE SMOOTH",
"306 169 OFFCURVE",
"347 218 OFFCURVE",
"391 264 CURVE SMOOTH",
"395 268 OFFCURVE",
"399 273 OFFCURVE",
"399 279 CURVE SMOOTH",
"399 294 OFFCURVE",
"377 293 OFFCURVE",
"366 293 CURVE SMOOTH",
"347 293 OFFCURVE",
"332 278 OFFCURVE",
"321 262 CURVE SMOOTH",
"308 242 OFFCURVE",
"295 224 OFFCURVE",
"280 206 CURVE SMOOTH",
"256 176 OFFCURVE",
"133 43 OFFCURVE",
"98 43 CURVE SMOOTH",
"92 43 OFFCURVE",
"89 48 OFFCURVE",
"89 53 CURVE SMOOTH",
"89 75 OFFCURVE",
"127 126 OFFCURVE",
"140 144 CURVE SMOOTH",
"165 179 OFFCURVE",
"193 213 OFFCURVE",
"224 244 CURVE SMOOTH",
"231 252 OFFCURVE",
"239 258 OFFCURVE",
"246 265 CURVE SMOOTH",
"248 267 OFFCURVE",
"250 270 OFFCURVE",
"250 273 CURVE SMOOTH",
"250 281 OFFCURVE",
"218 289 OFFCURVE",
"210 289 CURVE SMOOTH",
"188 289 OFFCURVE",
"163 268 OFFCURVE",
"150 251 CURVE",
"151 244 OFFCURVE",
"152 234 OFFCURVE",
"148 227 CURVE SMOOTH",
"143 218 OFFCURVE",
"136 209 OFFCURVE",
"130 201 CURVE SMOOTH",
"113 177 OFFCURVE",
"96 154 OFFCURVE",
"81 129 CURVE SMOOTH",
"67 106 OFFCURVE",
"54 81 OFFCURVE",
"45 56 CURVE SMOOTH",
"44 53 OFFCURVE",
"44 51 OFFCURVE",
"44 48 CURVE SMOOTH",
"44 24 OFFCURVE",
"71 -10 OFFCURVE",
"96 -10 CURVE SMOOTH",
"106 -10 OFFCURVE",
"114 -5 OFFCURVE",
"120 2 CURVE SMOOTH",
"160 47 OFFCURVE",
"203 91 OFFCURVE",
"244 135 CURVE",
"226 105 OFFCURVE",
"211 65 OFFCURVE",
"211 39 CURVE SMOOTH",
"211 10 OFFCURVE",
"248 -17 OFFCURVE",
"275 -17 CURVE SMOOTH"
);
}
);
width = 353;
}
);
note = u;
unicode = 0075;
},
{
color = 3;
glyphname = v;
lastChange = "2021-08-03 12:26:09 +0000";
layers = (
{
hints = (
{
horizontal = 1;
place = "{20, -20}";
target = down;
type = TopGhost;
},
{
horizontal = 1;
place = "{333, -20}";
target = down;
type = TopGhost;
}
);
layerId = "C7EEC47D-2D39-4E2B-85C4-E2E866CE7804";
paths = (
{
closed = 1;
nodes = (
"309 274 OFFCURVE",
"350 286 OFFCURVE",
"350 312 CURVE SMOOTH",
"350 327 OFFCURVE",
"334 337 OFFCURVE",
"320 337 CURVE SMOOTH",
"304 337 OFFCURVE",
"293 325 OFFCURVE",
"287 311 CURVE SMOOTH",
"275 283 OFFCURVE",
"274 265 OFFCURVE",
"270 241 CURVE",
"220 173 OFFCURVE",
"148 107 OFFCURVE",
"86 49 CURVE",
"94 108 OFFCURVE",
"142 227 OFFCURVE",
"183 270 CURVE",
"183 271 OFFCURVE",
"184 272 OFFCURVE",
"184 273 CURVE SMOOTH",
"184 283 OFFCURVE",
"160 304 OFFCURVE",
"150 304 CURVE SMOOTH",
"129 304 OFFCURVE",
"106 270 OFFCURVE",
"97 254 CURVE",
"97 244 OFFCURVE",
"108 247 OFFCURVE",
"108 241 CURVE SMOOTH",
"108 239 OFFCURVE",
"107 237 OFFCURVE",
"106 235 CURVE SMOOTH",
"88 193 OFFCURVE",
"27 64 OFFCURVE",
"27 23 CURVE SMOOTH",
"27 20 OFFCURVE",
"27 16 OFFCURVE",
"29 13 CURVE SMOOTH",
"44 -8 OFFCURVE",
"48 -2 OFFCURVE",
"69 -6 CURVE",
"145 62 OFFCURVE",
"211 139 OFFCURVE",
"279 215 CURVE",
"280 205 OFFCURVE",
"293 192 OFFCURVE",
"303 192 CURVE SMOOTH",
"311 192 OFFCURVE",
"310 207 OFFCURVE",
"310 212 CURVE SMOOTH"
);
}
);
width = 228;
}
);
note = v;
unicode = 0076;
},
{
color = 3;
glyphname = w;
lastChange = "2021-08-03 12:26:09 +0000";
layers = (
{
hints = (
{
horizontal = 1;
place = "{14, -20}";
target = down;
type = TopGhost;
},
{
horizontal = 1;
place = "{333, -20}";
target = down;
type = TopGhost;
}
);
layerId = "C7EEC47D-2D39-4E2B-85C4-E2E866CE7804";
paths = (
{
closed = 1;
nodes = (
"505 274 OFFCURVE",
"546 286 OFFCURVE",
"546 312 CURVE SMOOTH",
"546 327 OFFCURVE",
"530 337 OFFCURVE",
"516 337 CURVE SMOOTH",
"500 337 OFFCURVE",
"489 325 OFFCURVE",
"483 311 CURVE SMOOTH",
"471 283 OFFCURVE",
"470 265 OFFCURVE",
"466 241 CURVE",
"416 173 OFFCURVE",
"315 52 OFFCURVE",
"282 49 CURVE",
"246 58 OFFCURVE",
"337 214 OFFCURVE",
"376 262 CURVE",
"383 268 OFFCURVE",
"388 278 OFFCURVE",
"377 288 CURVE SMOOTH",
"369 296 OFFCURVE",
"352 304 OFFCURVE",
"346 304 CURVE SMOOTH",
"333 304 OFFCURVE",
"320 292 OFFCURVE",
"310 279 CURVE SMOOTH",
"288 247 OFFCURVE",
"275 233 OFFCURVE",
"260 212 CURVE SMOOTH",
"236 183 OFFCURVE",
"114 43 OFFCURVE",
"79 43 CURVE SMOOTH",
"73 43 OFFCURVE",
"70 48 OFFCURVE",
"70 53 CURVE SMOOTH",
"70 94 OFFCURVE",
"190 235 OFFCURVE",
"225 262 CURVE",
"225 278 OFFCURVE",
"208 289 OFFCURVE",
"193 289 CURVE SMOOTH",
"174 289 OFFCURVE",
"128 261 OFFCURVE",
"128 241 CURVE SMOOTH",
"128 237 OFFCURVE",
"130 234 OFFCURVE",
"130 230 CURVE SMOOTH",
"130 229 OFFCURVE",
"130 228 OFFCURVE",
"129 227 CURVE SMOOTH",
"92 171 OFFCURVE",
"50 120 OFFCURVE",
"26 56 CURVE SMOOTH",
"25 53 OFFCURVE",
"25 51 OFFCURVE",
"25 48 CURVE SMOOTH",
"25 24 OFFCURVE",
"52 -10 OFFCURVE",
"77 -10 CURVE SMOOTH",
"87 -10 OFFCURVE",
"94 -5 OFFCURVE",
"101 2 CURVE SMOOTH",
"157 65 OFFCURVE",
"215 126 OFFCURVE",
"291 214 CURVE",
"266 158 OFFCURVE",
"204 62 OFFCURVE",
"223 23 CURVE SMOOTH",
"224 20 OFFCURVE",
"223 16 OFFCURVE",
"225 13 CURVE SMOOTH",
"240 -8 OFFCURVE",
"256 -12 OFFCURVE",
"275 -9 CURVE",
"317 2 OFFCURVE",
"407 139 OFFCURVE",
"475 215 CURVE",
"476 205 OFFCURVE",
"489 192 OFFCURVE",
"499 192 CURVE SMOOTH",
"507 192 OFFCURVE",
"506 207 OFFCURVE",
"506 212 CURVE SMOOTH"
);
}
);
width = 436;
}
);
note = w;
unicode = 0077;
},
{
color = 3;
glyphname = x;
lastChange = "2021-08-03 12:26:09 +0000";
layers = (
{
hints = (
{
place = "{142, 43}";
type = Stem;
}
);
layerId = "C7EEC47D-2D39-4E2B-85C4-E2E866CE7804";
paths = (
{
closed = 1;
nodes = (
"331 337 OFFCURVE",
"327 328 OFFCURVE",
"323 317 CURVE",
"308 302 OFFCURVE",
"277 271 OFFCURVE",
"263 258 CURVE SMOOTH",
"233 231 OFFCURVE",
"219 216 OFFCURVE",
"189 190 CURVE",
"188 205 OFFCURVE",
"186 276 OFFCURVE",
"178 287 CURVE SMOOTH",
"173 294 OFFCURVE",
"167 300 OFFCURVE",
"157 300 CURVE SMOOTH",
"147 300 OFFCURVE",
"122 280 OFFCURVE",
"115 273 CURVE SMOOTH",
"93 248 OFFCURVE",
"97 230 OFFCURVE",
"133 246 CURVE",
"137 212 OFFCURVE",
"139 185 OFFCURVE",
"139 148 CURVE",
"114 123 OFFCURVE",
"54 75 OFFCURVE",
"-26 -28 CURVE SMOOTH",
"-29 -32 OFFCURVE",
"-32 -37 OFFCURVE",
"-32 -42 CURVE SMOOTH",
"-32 -47 OFFCURVE",
"-23 -49 OFFCURVE",
"-19 -49 CURVE SMOOTH",
"-3 -48 OFFCURVE",
"2 -39 OFFCURVE",
"11 -27 CURVE SMOOTH",
"40 9 OFFCURVE",
"114 97 OFFCURVE",
"140 121 CURVE",
"140 98 OFFCURVE",
"142 16 OFFCURVE",
"153 -2 CURVE SMOOTH",
"159 -12 OFFCURVE",
"180 -24 OFFCURVE",
"192 -24 CURVE SMOOTH",
"221 -24 OFFCURVE",
"253 15 OFFCURVE",
"273 35 CURVE SMOOTH",
"297 58 OFFCURVE",
"318 83 OFFCURVE",
"340 108 CURVE SMOOTH",
"357 128 OFFCURVE",
"377 149 OFFCURVE",
"392 170 CURVE",
"394 174 OFFCURVE",
"397 178 OFFCURVE",
"396 183 CURVE SMOOTH",
"396 187 OFFCURVE",
"393 190 OFFCURVE",
"389 189 CURVE SMOOTH",
"378 188 OFFCURVE",
"257 31 OFFCURVE",
"211 24 CURVE SMOOTH",
"202 23 OFFCURVE",
"200 27 OFFCURVE",
"196 33 CURVE SMOOTH",
"186 50 OFFCURVE",
"189 140 OFFCURVE",
"189 163 CURVE",
"309 266 LINE",
"308 260 OFFCURVE",
"307 254 OFFCURVE",
"307 249 CURVE SMOOTH",
"306 236 OFFCURVE",
"311 226 OFFCURVE",
"321 225 CURVE SMOOTH",
"328 225 OFFCURVE",
"330 240 OFFCURVE",
"331 245 CURVE SMOOTH",
"344 307 OFFCURVE",
"381 313 OFFCURVE",
"387 339 CURVE SMOOTH",
"391 354 OFFCURVE",
"381 369 OFFCURVE",
"369 370 CURVE SMOOTH",
"356 370 OFFCURVE",
"344 359 OFFCURVE",
"336 345 CURVE SMOOTH"
);
}
);
width = 288;
}
);
note = x;
unicode = 0078;
},
{
color = 3;
glyphname = y;
lastChange = "2021-08-03 12:26:09 +0000";
layers = (
{
hints = (
{
horizontal = 1;
place = "{-393, 25}";
type = Stem;
},
{
horizontal = 1;
place = "{-11, 27}";
type = Stem;
},
{
place = "{-146, 31}";
type = Stem;
},
{
place = "{43, 41}";
type = Stem;
},
{
place = "{265, 64}";
type = Stem;
}
);
layerId = "C7EEC47D-2D39-4E2B-85C4-E2E866CE7804";
paths = (
{
closed = 1;
nodes = (
"335 37 OFFCURVE",
"368 72 OFFCURVE",
"400 107 CURVE SMOOTH",
"413 122 OFFCURVE",
"428 136 OFFCURVE",
"440 151 CURVE SMOOTH",
"443 155 OFFCURVE",
"446 162 OFFCURVE",
"446 167 CURVE SMOOTH",
"446 171 OFFCURVE",
"444 173 OFFCURVE",
"440 173 CURVE SMOOTH",
"437 173 OFFCURVE",
"431 167 OFFCURVE",
"430 165 CURVE",
"391 124 OFFCURVE",
"351 86 OFFCURVE",
"308 49 CURVE",
"324 98 OFFCURVE",
"329 132 OFFCURVE",
"329 184 CURVE SMOOTH",
"329 200 OFFCURVE",
"329 210 OFFCURVE",
"308 210 CURVE SMOOTH",
"293 210 OFFCURVE",
"282 203 OFFCURVE",
"275 190 CURVE SMOOTH",
"252 147 OFFCURVE",
"137 14 OFFCURVE",
"89 16 CURVE",
"84 20 OFFCURVE",
"84 25 OFFCURVE",
"84 29 CURVE SMOOTH",
"84 83 OFFCURVE",
"158 189 OFFCURVE",
"182 216 CURVE SMOOTH",
"203 241 OFFCURVE",
"214 250 OFFCURVE",
"224 260 CURVE SMOOTH",
"227 263 OFFCURVE",
"230 267 OFFCURVE",
"230 271 CURVE SMOOTH",
"230 282 OFFCURVE",
"213 290 OFFCURVE",
"204 290 CURVE SMOOTH",
"179 290 OFFCURVE",
"148 270 OFFCURVE",
"129 247 CURVE",
"124 236 OFFCURVE",
"141 244 OFFCURVE",
"141 240 CURVE SMOOTH",
"141 231 OFFCURVE",
"43 115 OFFCURVE",
"43 22 CURVE SMOOTH",
"43 4 OFFCURVE",
"49 -11 OFFCURVE",
"70 -11 CURVE SMOOTH",
"130 -11 OFFCURVE",
"233 82 OFFCURVE",
"265 130 CURVE",
"265 122 LINE SMOOTH",
"265 82 OFFCURVE",
"259 32 OFFCURVE",
"245 -5 CURVE",
"191 -38 OFFCURVE",
"121 -80 OFFCURVE",
"88 -101 CURVE SMOOTH",
"11 -150 OFFCURVE",
"-123 -231 OFFCURVE",
"-144 -327 CURVE SMOOTH",
"-145 -334 OFFCURVE",
"-146 -340 OFFCURVE",
"-146 -347 CURVE SMOOTH",
"-146 -377 OFFCURVE",
"-129 -393 OFFCURVE",
"-100 -393 CURVE SMOOTH",
"-70 -393 OFFCURVE",
"-35 -377 OFFCURVE",
"-10 -362 CURVE SMOOTH",
"140 -275 OFFCURVE",
"237 -155 OFFCURVE",
"298 7 CURVE"
);
},
{
closed = 1;
nodes = (
"229 -58 OFFCURVE",
"217 -81 OFFCURVE",
"204 -103 CURVE SMOOTH",
"185 -135 OFFCURVE",
"164 -165 OFFCURVE",
"141 -195 CURVE SMOOTH",
"102 -245 OFFCURVE",
"-6 -368 OFFCURVE",
"-77 -368 CURVE SMOOTH",
"-94 -368 OFFCURVE",
"-115 -360 OFFCURVE",
"-115 -339 CURVE SMOOTH",
"-115 -272 OFFCURVE",
"57 -151 OFFCURVE",
"109 -117 CURVE SMOOTH",
"152 -89 OFFCURVE",
"193 -60 OFFCURVE",
"235 -31 CURVE",
"235 -31 OFFCURVE",
"240 -31 OFFCURVE",
"239 -35 CURVE"
);
}
);
width = 353;
}
);
note = y;
unicode = 0079;
},
{
color = 3;
glyphname = z;
lastChange = "2021-08-03 12:26:09 +0000";
layers = (
{
hints = (
{
horizontal = 1;
place = "{-5, 21}";
target = up;
type = BottomGhost;
},
{
horizontal = 1;
place = "{50, 28}";
type = Stem;
},
{
horizontal = 1;
place = "{269, 25}";
type = Stem;
},
{
place = "{24, 351}";
type = Stem;
},
{
place = "{264, 52}";
type = Stem;
}
);
layerId = "C7EEC47D-2D39-4E2B-85C4-E2E866CE7804";
paths = (
{
closed = 1;
nodes = (
"318 70 OFFCURVE",
"297 78 OFFCURVE",
"276 78 CURVE SMOOTH",
"240 78 OFFCURVE",
"97 51 OFFCURVE",
"66 34 CURVE",
"152 98 OFFCURVE",
"277 175 OFFCURVE",
"358 240 CURVE SMOOTH",
"403 276 OFFCURVE",
"356 297 OFFCURVE",
"275 294 CURVE SMOOTH",
"244 293 OFFCURVE",
"125 291 OFFCURVE",
"128 252 CURVE SMOOTH",
"129 239 OFFCURVE",
"145 229 OFFCURVE",
"156 228 CURVE SMOOTH",
"163 228 OFFCURVE",
"165 230 OFFCURVE",
"169 234 CURVE",
"185 257 OFFCURVE",
"240 269 OFFCURVE",
"270 269 CURVE SMOOTH",
"277 269 OFFCURVE",
"303 271 OFFCURVE",
"299 262 CURVE SMOOTH",
"278 214 OFFCURVE",
"73 79 OFFCURVE",
"32 36 CURVE SMOOTH",
"27 31 OFFCURVE",
"24 26 OFFCURVE",
"24 18 CURVE SMOOTH",
"24 2 OFFCURVE",
"36 -5 OFFCURVE",
"50 -5 CURVE SMOOTH",
"61 -5 OFFCURVE",
"74 -1 OFFCURVE",
"83 4 CURVE SMOOTH",
"91 8 OFFCURVE",
"98 19 OFFCURVE",
"106 22 CURVE SMOOTH",
"128 31 OFFCURVE",
"264 75 OFFCURVE",
"264 30 CURVE SMOOTH",
"264 16 OFFCURVE",
"253 -3 OFFCURVE",
"243 -16 CURVE",
"241 -50 OFFCURVE",
"304 -1 OFFCURVE",
"316 57 CURVE SMOOTH"
);
}
);
width = 313;
}
);
note = z;
unicode = 007A;
},
{
color = 3;
glyphname = braceleft;
lastChange = "2021-08-03 12:26:09 +0000";
layers = (
{
hints = (
{
place = "{115, 37}";
type = Stem;
}
);
layerId = "C7EEC47D-2D39-4E2B-85C4-E2E866CE7804";
paths = (
{
closed = 1;
nodes = (
"181 278 OFFCURVE",
"250 333 OFFCURVE",
"276 389 CURVE SMOOTH",
"289 416 OFFCURVE",
"298 445 OFFCURVE",
"308 472 CURVE SMOOTH",
"338 560 OFFCURVE",
"348 617 OFFCURVE",
"460 617 CURVE SMOOTH",
"498 616 OFFCURVE",
"469 640 OFFCURVE",
"463 640 CURVE SMOOTH",
"332 641 OFFCURVE",
"286 577 OFFCURVE",
"257 503 CURVE SMOOTH",
"243 467 OFFCURVE",
"235 429 OFFCURVE",
"221 393 CURVE SMOOTH",
"187 303 OFFCURVE",
"144 284 OFFCURVE",
"56 275 CURVE",
"40 275 OFFCURVE",
"41 267 OFFCURVE",
"42 259 CURVE",
"107 258 OFFCURVE",
"146 239 OFFCURVE",
"136 179 CURVE SMOOTH",
"123 106 OFFCURVE",
"76 39 OFFCURVE",
"64 -34 CURVE SMOOTH",
"51 -113 OFFCURVE",
"112 -122 OFFCURVE",
"172 -122 CURVE SMOOTH",
"176 -122 OFFCURVE",
"216 -114 OFFCURVE",
"191 -102 CURVE",
"136 -98 OFFCURVE",
"103 -107 OFFCURVE",
"115 -36 CURVE SMOOTH",
"127 36 OFFCURVE",
"185 98 OFFCURVE",
"197 171 CURVE SMOOTH",
"205 216 OFFCURVE",
"157 251 OFFCURVE",
"121 265 CURVE"
);
}
);
width = 323;
}
);
note = braceleft;
unicode = 007B;
},
{
color = 3;
glyphname = bar;
lastChange = "2021-08-03 12:26:09 +0000";
layers = (
{
hints = (
{
horizontal = 1;
place = "{-166, 911}";
type = Stem;
},
{
place = "{147, 202}";
type = Stem;
},
{
place = "{147, 34}";
type = Stem;
}
);
layerId = "C7EEC47D-2D39-4E2B-85C4-E2E866CE7804";
paths = (
{
closed = 1;
nodes = (
"142 -171 OFFCURVE",
"177 -171 OFFCURVE",
"181 -154 CURVE SMOOTH",
"348 716 LINE SMOOTH",
"358 760 OFFCURVE",
"312 748 OFFCURVE",
"308 718 CURVE",
"238 411 OFFCURVE",
"199 153 OFFCURVE",
"147 -144 CURVE SMOOTH"
);
}
);
width = 508;
}
);
note = bar;
unicode = 007C;
},
{
color = 3;
glyphname = braceright;
lastChange = "2021-08-03 12:26:09 +0000";
layers = (
{
hints = (
{
place = "{285, 37}";
type = Stem;
},
{
place = "{334, 42}";
type = Stem;
}
);
layerId = "C7EEC47D-2D39-4E2B-85C4-E2E866CE7804";
paths = (
{
closed = 1;
nodes = (
"238 241 OFFCURVE",
"169 186 OFFCURVE",
"143 130 CURVE SMOOTH",
"130 103 OFFCURVE",
"121 74 OFFCURVE",
"111 47 CURVE SMOOTH",
"81 -41 OFFCURVE",
"71 -98 OFFCURVE",
"-41 -98 CURVE SMOOTH",
"-79 -97 OFFCURVE",
"-50 -121 OFFCURVE",
"-44 -121 CURVE SMOOTH",
"87 -122 OFFCURVE",
"133 -58 OFFCURVE",
"162 16 CURVE SMOOTH",
"176 52 OFFCURVE",
"184 90 OFFCURVE",
"198 126 CURVE SMOOTH",
"232 216 OFFCURVE",
"275 235 OFFCURVE",
"363 244 CURVE",
"379 244 OFFCURVE",
"378 252 OFFCURVE",
"377 260 CURVE",
"312 261 OFFCURVE",
"273 280 OFFCURVE",
"283 340 CURVE SMOOTH",
"296 413 OFFCURVE",
"343 480 OFFCURVE",
"355 553 CURVE SMOOTH",
"368 632 OFFCURVE",
"307 641 OFFCURVE",
"247 641 CURVE SMOOTH",
"243 641 OFFCURVE",
"203 633 OFFCURVE",
"228 621 CURVE",
"283 617 OFFCURVE",
"316 626 OFFCURVE",
"304 555 CURVE SMOOTH",
"292 483 OFFCURVE",
"234 421 OFFCURVE",
"222 348 CURVE SMOOTH",
"214 303 OFFCURVE",
"262 268 OFFCURVE",
"298 254 CURVE"
);
}
);
width = 384;
}
);
note = braceright;
unicode = 007D;
},
{
color = 3;
glyphname = asciitilde;
lastChange = "2021-08-03 12:26:09 +0000";
layers = (
{
hints = (
{
horizontal = 1;
place = "{59, 15}";
type = Stem;
},
{
horizontal = 1;
place = "{308, 14}";
type = Stem;
},
{
place = "{-639, 18}";
type = Stem;
},
{
place = "{-310, 20}";
type = Stem;
},
{
place = "{-139, 15}";
type = Stem;
},
{
place = "{-44, 23}";
type = Stem;
}
);
layerId = "C7EEC47D-2D39-4E2B-85C4-E2E866CE7804";
paths = (
{
closed = 1;
nodes = (
"234 478 OFFCURVE",
"221 470 OFFCURVE",
"203 470 CURVE SMOOTH",
"171 470 OFFCURVE",
"137 500 OFFCURVE",
"104 500 CURVE SMOOTH",
"53 500 OFFCURVE",
"28 455 OFFCURVE",
"24 435 CURVE SMOOTH",
"21 422 OFFCURVE",
"25 408 OFFCURVE",
"38 425 CURVE SMOOTH",
"52 444 OFFCURVE",
"77 458 OFFCURVE",
"98 458 CURVE SMOOTH",
"139 458 OFFCURVE",
"164 427 OFFCURVE",
"199 430 CURVE SMOOTH",
"229 434 OFFCURVE",
"252 463 OFFCURVE",
"261 488 CURVE SMOOTH",
"264 497 OFFCURVE",
"252 500 OFFCURVE",
"245 491 CURVE SMOOTH"
);
}
);
width = 272;
}
);
note = asciitilde;
unicode = 007E;
},
{
color = 3;
glyphname = dagger;
lastChange = "2021-08-03 12:26:09 +0000";
layers = (
{
hints = (
{
horizontal = 1;
place = "{435, 37}";
type = Stem;
},
{
place = "{23, 352}";
type = Stem;
}
);
layerId = "C7EEC47D-2D39-4E2B-85C4-E2E866CE7804";
paths = (
{
closed = 1;
nodes = (
"281 435 LINE SMOOTH",
"322 435 OFFCURVE",
"375 444 OFFCURVE",
"375 460 CURVE SMOOTH",
"375 471 OFFCURVE",
"330 472 OFFCURVE",
"313 472 CURVE SMOOTH",
"266 472 LINE",
"341 699 LINE SMOOTH",
"357 743 OFFCURVE",
"307 730 OFFCURVE",
"297 700 CURVE SMOOTH",
"270 621 OFFCURVE",
"244 546 OFFCURVE",
"220 472 CURVE",
"158 472 LINE SMOOTH",
"126 472 OFFCURVE",
"83 435 OFFCURVE",
"116 435 CURVE SMOOTH",
"209 435 LINE",
"145 235 OFFCURVE",
"89 46 OFFCURVE",
"24 -162 CURVE SMOOTH",
"16 -189 OFFCURVE",
"46 -189 OFFCURVE",
"52 -172 CURVE SMOOTH",
"253 435 LINE"
);
}
);
width = 331;
}
);
note = dagger;
unicode = 2020;
},
{
color = 3;
glyphname = degree;
lastChange = "2021-08-03 12:26:09 +0000";
layers = (
{
hints = (
{
horizontal = 1;
place = "{360, 31}";
type = Stem;
},
{
horizontal = 1;
place = "{473, 41}";
type = Stem;
},
{
place = "{150, 166}";
type = Stem;
},
{
place = "{152, 35}";
type = Stem;
}
);
layerId = "C7EEC47D-2D39-4E2B-85C4-E2E866CE7804";
paths = (
{
closed = 1;
nodes = (
"249 514 LINE SMOOTH",
"205 508 OFFCURVE",
"160 470 OFFCURVE",
"152 427 CURVE SMOOTH",
"143 385 OFFCURVE",
"172 355 OFFCURVE",
"217 360 CURVE SMOOTH",
"260 364 OFFCURVE",
"306 403 OFFCURVE",
"314 444 CURVE SMOOTH",
"324 487 OFFCURVE",
"293 519 OFFCURVE",
"252 514 CURVE SMOOTH"
);
},
{
closed = 1;
nodes = (
"238 473 LINE SMOOTH",
"261 476 OFFCURVE",
"277 459 OFFCURVE",
"273 437 CURVE SMOOTH",
"267 415 OFFCURVE",
"244 394 OFFCURVE",
"221 391 CURVE SMOOTH",
"198 388 OFFCURVE",
"181 405 OFFCURVE",
"187 427 CURVE SMOOTH",
"191 449 OFFCURVE",
"215 470 OFFCURVE",
"237 473 CURVE SMOOTH"
);
}
);
width = 351;
}
);
note = degree;
unicode = 00B0;
},
{
color = 3;
glyphname = cent;
lastChange = "2021-08-23 23:34:54 +0000";
layers = (
{
hints = (
{
horizontal = 1;
place = "{19, -20}";
target = down;
type = TopGhost;
}
);
layerId = "C7EEC47D-2D39-4E2B-85C4-E2E866CE7804";
paths = (
{
closed = 1;
nodes = (
"522 488 OFFCURVE",
"494 503 OFFCURVE",
"453 503 CURVE SMOOTH",
"450 503 OFFCURVE",
"447 502 OFFCURVE",
"446 502 CURVE",
"489 573 LINE SMOOTH",
"505 600 OFFCURVE",
"452 575 OFFCURVE",
"442 556 CURVE",
"405 499 LINE",
"164 453 OFFCURVE",
"-28 141 OFFCURVE",
"166 111 CURVE",
"104 12 LINE SMOOTH",
"93 -5 OFFCURVE",
"138 15 OFFCURVE",
"145 26 CURVE SMOOTH",
"197 108 LINE",
"198 108 LINE SMOOTH",
"302 108 OFFCURVE",
"389 158 OFFCURVE",
"422 200 CURVE SMOOTH",
"448 233 OFFCURVE",
"433 230 OFFCURVE",
"420 218 CURVE SMOOTH",
"367 167 OFFCURVE",
"280 136 OFFCURVE",
"214 135 CURVE",
"430 479 LINE",
"436 479 OFFCURVE",
"440 480 OFFCURVE",
"446 480 CURVE SMOOTH",
"476 480 OFFCURVE",
"483 472 OFFCURVE",
"483 450 CURVE SMOOTH",
"483 411 OFFCURVE",
"443 378 OFFCURVE",
"437 364 CURVE SMOOTH",
"436 362 OFFCURVE",
"437 362 OFFCURVE",
"439 362 CURVE SMOOTH",
"440 362 OFFCURVE",
"442 362 OFFCURVE",
"444 364 CURVE",
"470 378 OFFCURVE",
"518 410 OFFCURVE",
"522 455 CURVE"
);
},
{
closed = 1;
nodes = (
"54 167 OFFCURVE",
"236 410 OFFCURVE",
"386 467 CURVE",
"319 361 OFFCURVE",
"257 256 OFFCURVE",
"183 138 CURVE"
);
}
);
width = 513;
}
);
note = cent;
unicode = 00A2;
},
{
color = 3;
glyphname = sterling;
lastChange = "2021-08-23 23:48:33 +0000";
layers = (
{
hints = (
{
horizontal = 1;
place = "{-58, 24}";
type = Stem;
},
{
horizontal = 1;
place = "{-27, 18}";
type = Stem;
},
{
horizontal = 1;
place = "{81, 30}";
type = Stem;
},
{
horizontal = 1;
place = "{234, 23}";
type = Stem;
},
{
place = "{34, 32}";
type = Stem;
},
{
place = "{643, 17}";
type = Stem;
}
);
layerId = "C7EEC47D-2D39-4E2B-85C4-E2E866CE7804";
paths = (
{
closed = 1;
nodes = (
"563 65 OFFCURVE",
"546 82 OFFCURVE",
"529 95 CURVE",
"528 97 OFFCURVE",
"521 98 OFFCURVE",
"519 98 CURVE SMOOTH",
"517 98 OFFCURVE",
"515 95 OFFCURVE",
"515 93 CURVE SMOOTH",
"514 83 OFFCURVE",
"539 75 OFFCURVE",
"536 49 CURVE SMOOTH",
"531 -6 OFFCURVE",
"441 -16 OFFCURVE",
"400 -16 CURVE SMOOTH",
"346 -16 OFFCURVE",
"252 7 OFFCURVE",
"208 37 CURVE",
"380 169 OFFCURVE",
"425 449 OFFCURVE",
"545 496 CURVE SMOOTH",
"575 507 OFFCURVE",
"613 497 OFFCURVE",
"593 439 CURVE SMOOTH",
"585 418 OFFCURVE",
"554 350 OFFCURVE",
"519 312 CURVE SMOOTH",
"482 271 OFFCURVE",
"509 279 OFFCURVE",
"532 297 CURVE SMOOTH",
"563 322 OFFCURVE",
"617 391 OFFCURVE",
"626 432 CURVE SMOOTH",
"641 497 OFFCURVE",
"611 527 OFFCURVE",
"539 527 CURVE SMOOTH",
"509 527 OFFCURVE",
"457 505 OFFCURVE",
"427 465 CURVE SMOOTH",
"342 350 OFFCURVE",
"274 114 OFFCURVE",
"184 45 CURVE",
"138 69 OFFCURVE",
"58 120 OFFCURVE",
"6 120 CURVE SMOOTH",
"-12 120 OFFCURVE",
"-25 113 OFFCURVE",
"-27 94 CURVE SMOOTH",
"-34 34 OFFCURVE",
"29 -9 OFFCURVE",
"84 -9 CURVE SMOOTH",
"119 -9 OFFCURVE",
"151 5 OFFCURVE",
"182 23 CURVE",
"244 -10 OFFCURVE",
"356 -50 OFFCURVE",
"429 -50 CURVE SMOOTH",
"479 -50 OFFCURVE",
"553 -23 OFFCURVE",
"560 43 CURVE SMOOTH"
);
},
{
closed = 1;
nodes = (
"140 21 OFFCURVE",
"100 12 OFFCURVE",
"77 12 CURVE SMOOTH",
"36 12 OFFCURVE",
"18 41 OFFCURVE",
"22 81 CURVE SMOOTH",
"22 85 OFFCURVE",
"28 85 OFFCURVE",
"30 85 CURVE SMOOTH",
"61 85 OFFCURVE",
"135 55 OFFCURVE",
"160 34 CURVE"
);
},
{
closed = 1;
nodes = (
"395 173 LINE SMOOTH",
"411 173 OFFCURVE",
"435 179 OFFCURVE",
"436 188 CURVE SMOOTH",
"437 195 OFFCURVE",
"418 196 OFFCURVE",
"410 196 CURVE SMOOTH",
"221 196 LINE SMOOTH",
"207 196 OFFCURVE",
"186 173 OFFCURVE",
"200 173 CURVE SMOOTH"
);
}
);
width = 673;
}
);
note = sterling;
unicode = 00A3;
},
{
color = 3;
glyphname = section;
lastChange = "2021-08-03 12:26:09 +0000";
layers = (
{
hints = (
{
horizontal = 1;
place = "{-74, 21}";
type = Stem;
},
{
horizontal = 1;
place = "{124, 23}";
type = Stem;
},
{
horizontal = 1;
place = "{586, 35}";
type = Stem;
},
{
place = "{106, 56}";
type = Stem;
},
{
place = "{273, 70}";
type = Stem;
},
{
place = "{418, 70}";
type = Stem;
},
{
place = "{587, 23}";
type = Stem;
},
{
place = "{251, 56}";
type = Stem;
}
);
layerId = "C7EEC47D-2D39-4E2B-85C4-E2E866CE7804";
paths = (
{
closed = 1;
nodes = (
"630 593 OFFCURVE",
"581 621 OFFCURVE",
"527 621 CURVE SMOOTH",
"437 621 OFFCURVE",
"262 528 OFFCURVE",
"251 435 CURVE SMOOTH",
"248 417 OFFCURVE",
"253 402 OFFCURVE",
"263 389 CURVE",
"187 354 OFFCURVE",
"113 296 OFFCURVE",
"106 236 CURVE SMOOTH",
"94 147 OFFCURVE",
"273 125 OFFCURVE",
"273 39 CURVE SMOOTH",
"273 -48 OFFCURVE",
"108 -75 OFFCURVE",
"57 -34 CURVE SMOOTH",
"46 -24 OFFCURVE",
"23 -34 OFFCURVE",
"34 -43 CURVE SMOOTH",
"131 -135 OFFCURVE",
"432 -5 OFFCURVE",
"318 85 CURVE SMOOTH",
"265 124 LINE",
"388 118 OFFCURVE",
"552 213 OFFCURVE",
"463 284 CURVE SMOOTH",
"351 372 OFFCURVE",
"204 450 OFFCURVE",
"412 561 CURVE SMOOTH",
"482 598 OFFCURVE",
"652 606 OFFCURVE",
"560 507 CURVE",
"545 493 OFFCURVE",
"560 484 OFFCURVE",
"567 489 CURVE SMOOTH",
"581 500 OFFCURVE",
"596 516 OFFCURVE",
"603 532 CURVE SMOOTH"
);
},
{
closed = 1;
nodes = (
"271 364 OFFCURVE",
"276 367 OFFCURVE",
"282 369 CURVE",
"330 327 OFFCURVE",
"418 298 OFFCURVE",
"418 238 CURVE SMOOTH",
"418 164 OFFCURVE",
"299 134 OFFCURVE",
"232 151 CURVE",
"154 215 OFFCURVE",
"112 279 OFFCURVE",
"267 362 CURVE SMOOTH"
);
}
);
width = 514;
}
);
note = section;
unicode = 00A7;
},
{
color = 3;
glyphname = bullet;
lastChange = "2021-08-03 12:26:09 +0000";
layers = (
{
hints = (
{
horizontal = 1;
place = "{20, 433}";
type = Stem;
},
{
place = "{54, 433}";
type = Stem;
}
);
layerId = "C7EEC47D-2D39-4E2B-85C4-E2E866CE7804";
paths = (
{
closed = 1;
nodes = (
"487 356 OFFCURVE",
"390 453 OFFCURVE",
"270 453 CURVE SMOOTH",
"151 453 OFFCURVE",
"54 356 OFFCURVE",
"54 236 CURVE SMOOTH",
"54 117 OFFCURVE",
"151 20 OFFCURVE",
"271 20 CURVE SMOOTH",
"390 20 OFFCURVE",
"487 117 OFFCURVE",
"487 237 CURVE SMOOTH"
);
}
);
width = 537;
}
);
note = bullet;
unicode = 2022;
},
{
color = 3;
glyphname = paragraph;
lastChange = "2021-08-03 12:26:09 +0000";
layers = (
{
hints = (
{
horizontal = 1;
place = "{245, 20}";
type = Stem;
},
{
horizontal = 1;
place = "{543, 25}";
type = Stem;
},
{
place = "{88, 433}";
type = Stem;
}
);
layerId = "C7EEC47D-2D39-4E2B-85C4-E2E866CE7804";
paths = (
{
closed = 1;
nodes = (
"262 246 OFFCURVE",
"273 246 OFFCURVE",
"286 248 CURVE SMOOTH",
"313 253 LINE",
"251 132 OFFCURVE",
"199 19 OFFCURVE",
"194 -7 CURVE",
"195 -14 OFFCURVE",
"197 -28 OFFCURVE",
"202 -27 CURVE SMOOTH",
"206 -27 OFFCURVE",
"225 -4 OFFCURVE",
"228 -2 CURVE",
"291 178 OFFCURVE",
"415 385 OFFCURVE",
"519 553 CURVE",
"520 554 OFFCURVE",
"521 555 OFFCURVE",
"521 556 CURVE SMOOTH",
"524 572 OFFCURVE",
"454 573 OFFCURVE",
"407 568 CURVE SMOOTH",
"245 546 OFFCURVE",
"108 456 OFFCURVE",
"90 356 CURVE SMOOTH",
"78 292 OFFCURVE",
"120 244 OFFCURVE",
"222 245 CURVE",
"160 122 OFFCURVE",
"107 8 OFFCURVE",
"102 -19 CURVE",
"103 -26 OFFCURVE",
"107 -30 OFFCURVE",
"113 -29 CURVE SMOOTH",
"116 -29 OFFCURVE",
"119 -26 OFFCURVE",
"122 -24 CURVE",
"152 60 OFFCURVE",
"198 153 OFFCURVE",
"249 245 CURVE"
);
},
{
closed = 1;
nodes = (
"141 262 OFFCURVE",
"133 309 OFFCURVE",
"142 354 CURVE SMOOTH",
"155 427 OFFCURVE",
"248 513 OFFCURVE",
"386 543 CURVE",
"363 510 OFFCURVE",
"296 388 OFFCURVE",
"234 265 CURVE"
);
},
{
closed = 1;
nodes = (
"427 533 OFFCURVE",
"427 534 OFFCURVE",
"427 535 CURVE SMOOTH",
"427 537 OFFCURVE",
"427 540 OFFCURVE",
"426 541 CURVE",
"441 543 OFFCURVE",
"457 543 OFFCURVE",
"473 543 CURVE",
"449 505 OFFCURVE",
"388 400 OFFCURVE",
"329 284 CURVE",
"307 276 OFFCURVE",
"285 272 OFFCURVE",
"263 267 CURVE",
"317 364 OFFCURVE",
"374 450 OFFCURVE",
"425 532 CURVE"
);
}
);
width = 568;
}
);
note = paragraph;
unicode = 00B6;
},
{
color = 3;
glyphname = germandbls;
lastChange = "2021-08-03 12:26:09 +0000";
layers = (
{
hints = (
{
horizontal = 1;
place = "{-241, 31}";
type = Stem;
},
{
horizontal = 1;
place = "{-33, 24}";
type = Stem;
},
{
horizontal = 1;
place = "{541, 29}";
type = Stem;
},
{
place = "{145, 29}";
type = Stem;
},
{
place = "{317, 43}";
type = Stem;
},
{
place = "{402, 64}";
type = Stem;
},
{
place = "{526, 34}";
type = Stem;
}
);
layerId = "C7EEC47D-2D39-4E2B-85C4-E2E866CE7804";
paths = (
{
closed = 1;
nodes = (
"174 77 OFFCURVE",
"220 117 OFFCURVE",
"238 138 CURVE SMOOTH",
"260 164 OFFCURVE",
"245 160 OFFCURVE",
"226 149 CURVE SMOOTH",
"201 135 OFFCURVE",
"145 92 OFFCURVE",
"145 41 CURVE SMOOTH",
"145 2 OFFCURVE",
"174 -21 OFFCURVE",
"209 -28 CURVE SMOOTH",
"368 -58 OFFCURVE",
"527 42 OFFCURVE",
"443 138 CURVE SMOOTH",
"390 198 OFFCURVE",
"323 292 OFFCURVE",
"383 339 CURVE SMOOTH",
"412 362 OFFCURVE",
"456 372 OFFCURVE",
"482 378 CURVE SMOOTH",
"495 381 OFFCURVE",
"505 380 OFFCURVE",
"513 390 CURVE",
"537 406 OFFCURVE",
"555 441 OFFCURVE",
"560 471 CURVE SMOOTH",
"567 512 OFFCURVE",
"533 553 OFFCURVE",
"512 562 CURVE SMOOTH",
"500 567 OFFCURVE",
"488 570 OFFCURVE",
"476 570 CURVE SMOOTH",
"340 570 OFFCURVE",
"191 291 OFFCURVE",
"115 154 CURVE SMOOTH",
"58 52 OFFCURVE",
"-80 -210 OFFCURVE",
"-187 -210 CURVE SMOOTH",
"-263 -210 OFFCURVE",
"-247 -171 OFFCURVE",
"-275 -157 CURVE SMOOTH",
"-281 -154 OFFCURVE",
"-292 -170 OFFCURVE",
"-285 -196 CURVE SMOOTH",
"-279 -218 OFFCURVE",
"-247 -241 OFFCURVE",
"-217 -241 CURVE SMOOTH",
"-78 -241 OFFCURVE",
"47 -38 OFFCURVE",
"62 -13 CURVE SMOOTH",
"185 181 OFFCURVE",
"266 347 OFFCURVE",
"387 482 CURVE SMOOTH",
"485 592 OFFCURVE",
"565 533 OFFCURVE",
"505 429 CURVE SMOOTH",
"497 416 OFFCURVE",
"491 405 OFFCURVE",
"488 397 CURVE",
"416 395 OFFCURVE",
"324 342 OFFCURVE",
"317 278 CURVE SMOOTH",
"309 213 OFFCURVE",
"402 171 OFFCURVE",
"402 85 CURVE SMOOTH",
"402 0 OFFCURVE",
"174 -49 OFFCURVE",
"174 33 CURVE SMOOTH"
);
}
);
width = 466;
}
);
note = germandbls;
unicode = 00DF;
},
{
color = 3;
glyphname = registered;
lastChange = "2021-08-03 12:26:09 +0000";
layers = (
{
hints = (
{
horizontal = 1;
place = "{34, 12}";
type = Stem;
},
{
horizontal = 1;
place = "{51, 14}";
type = Stem;
},
{
horizontal = 1;
place = "{360, 14}";
type = Stem;
},
{
place = "{251, 17}";
type = Stem;
},
{
place = "{500, 19}";
type = Stem;
},
{
place = "{532, 20}";
type = Stem;
}
);
layerId = "C7EEC47D-2D39-4E2B-85C4-E2E866CE7804";
paths = (
{
closed = 1;
nodes = (
"686 454 OFFCURVE",
"596 504 OFFCURVE",
"504 504 CURVE SMOOTH",
"319 504 OFFCURVE",
"121 326 OFFCURVE",
"121 164 CURVE SMOOTH",
"121 -145 OFFCURVE",
"686 70 OFFCURVE",
"686 344 CURVE SMOOTH"
);
},
{
closed = 1;
nodes = (
"413 407 OFFCURVE",
"520 409 OFFCURVE",
"525 358 CURVE SMOOTH",
"530 289 OFFCURVE",
"414 257 OFFCURVE",
"356 249 CURVE SMOOTH",
"348 248 OFFCURVE",
"341 238 OFFCURVE",
"348 225 CURVE SMOOTH",
"358 205 OFFCURVE",
"395 104 OFFCURVE",
"476 103 CURVE",
"341 11 OFFCURVE",
"171 -10 OFFCURVE",
"171 166 CURVE SMOOTH",
"171 316 OFFCURVE",
"345 484 OFFCURVE",
"494 484 CURVE SMOOTH",
"580 484 OFFCURVE",
"637 422 OFFCURVE",
"637 338 CURVE SMOOTH",
"637 259 OFFCURVE",
"574 175 OFFCURVE",
"494 116 CURVE",
"510 113 OFFCURVE",
"491 103 OFFCURVE",
"477 103 CURVE SMOOTH",
"476 103 LINE",
"482 107 OFFCURVE",
"488 111 OFFCURVE",
"494 116 CURVE",
"491 116 OFFCURVE",
"486 117 OFFCURVE",
"481 117 CURVE SMOOTH",
"454 117 OFFCURVE",
"410 197 OFFCURVE",
"395 236 CURVE",
"463 244 OFFCURVE",
"562 277 OFFCURVE",
"557 350 CURVE SMOOTH",
"552 415 OFFCURVE",
"447 433 OFFCURVE",
"401 433 CURVE SMOOTH",
"373 433 OFFCURVE",
"345 407 OFFCURVE",
"378 407 CURVE SMOOTH"
);
},
{
closed = 1;
nodes = (
"270 141 OFFCURVE",
"311 207 OFFCURVE",
"322 230 CURVE SMOOTH",
"349 283 OFFCURVE",
"381 327 OFFCURVE",
"412 378 CURVE SMOOTH",
"415 382 OFFCURVE",
"418 387 OFFCURVE",
"418 392 CURVE SMOOTH",
"417 400 OFFCURVE",
"409 401 OFFCURVE",
"403 401 CURVE SMOOTH",
"368 401 OFFCURVE",
"361 380 OFFCURVE",
"346 354 CURVE SMOOTH",
"318 305 OFFCURVE",
"251 164 OFFCURVE",
"256 109 CURVE",
"256 96 OFFCURVE",
"262 86 OFFCURVE",
"276 86 CURVE SMOOTH",
"283 86 OFFCURVE",
"283 98 OFFCURVE",
"279 98 CURVE SMOOTH",
"274 98 OFFCURVE",
"273 104 OFFCURVE",
"273 107 CURVE SMOOTH"
);
}
);
width = 753;
}
);
note = registered;
unicode = 00AE;
},
{
color = 3;
glyphname = copyright;
lastChange = "2021-08-03 12:26:09 +0000";
layers = (
{
hints = (
{
horizontal = 1;
place = "{12, 21}";
type = Stem;
},
{
horizontal = 1;
place = "{120, 21}";
type = Stem;
},
{
horizontal = 1;
place = "{380, 18}";
type = Stem;
},
{
horizontal = 1;
place = "{484, 20}";
type = Stem;
},
{
place = "{121, 50}";
type = Stem;
},
{
place = "{242, 50}";
type = Stem;
},
{
place = "{517, 26}";
type = Stem;
},
{
place = "{637, 49}";
type = Stem;
}
);
layerId = "C7EEC47D-2D39-4E2B-85C4-E2E866CE7804";
paths = (
{
closed = 1;
nodes = (
"686 454 OFFCURVE",
"596 504 OFFCURVE",
"504 504 CURVE SMOOTH",
"319 504 OFFCURVE",
"121 326 OFFCURVE",
"121 164 CURVE SMOOTH",
"121 -145 OFFCURVE",
"686 70 OFFCURVE",
"686 344 CURVE SMOOTH"
);
},
{
closed = 1;
nodes = (
"637 124 OFFCURVE",
"171 -126 OFFCURVE",
"171 166 CURVE SMOOTH",
"171 316 OFFCURVE",
"345 484 OFFCURVE",
"494 484 CURVE SMOOTH",
"580 484 OFFCURVE",
"637 422 OFFCURVE",
"637 338 CURVE SMOOTH"
);
},
{
closed = 1;
nodes = (
"543 387 OFFCURVE",
"529 398 OFFCURVE",
"500 398 CURVE SMOOTH",
"329 398 OFFCURVE",
"129 120 OFFCURVE",
"319 120 CURVE SMOOTH",
"398 120 OFFCURVE",
"465 158 OFFCURVE",
"490 190 CURVE SMOOTH",
"510 215 OFFCURVE",
"497 218 OFFCURVE",
"487 209 CURVE SMOOTH",
"446 171 OFFCURVE",
"381 141 OFFCURVE",
"330 141 CURVE SMOOTH",
"307 141 OFFCURVE",
"292 156 OFFCURVE",
"292 179 CURVE SMOOTH",
"292 262 OFFCURVE",
"406 380 OFFCURVE",
"492 380 CURVE SMOOTH",
"547 380 OFFCURVE",
"497 331 OFFCURVE",
"491 312 CURVE SMOOTH",
"488 303 OFFCURVE",
"491 293 OFFCURVE",
"506 300 CURVE SMOOTH",
"523 308 OFFCURVE",
"543 338 OFFCURVE",
"543 365 CURVE SMOOTH"
);
}
);
width = 756;
}
);
note = copyright;
unicode = 00A9;
},
{
color = 3;
glyphname = trademark;
lastChange = "2021-08-03 12:26:09 +0000";
layers = (
{
hints = (
{
horizontal = 1;
place = "{387, 21}";
type = Stem;
}
);
layerId = "C7EEC47D-2D39-4E2B-85C4-E2E866CE7804";
paths = (
{
closed = 1;
nodes = (
"643 622 OFFCURVE",
"632 624 OFFCURVE",
"622 624 CURVE SMOOTH",
"609 624 OFFCURVE",
"502 408 OFFCURVE",
"451 408 CURVE SMOOTH",
"396 408 OFFCURVE",
"390 571 OFFCURVE",
"379 611 CURVE SMOOTH",
"377 616 OFFCURVE",
"374 633 OFFCURVE",
"366 633 CURVE SMOOTH",
"337 633 OFFCURVE",
"331 586 OFFCURVE",
"336 558 CURVE",
"326 522 OFFCURVE",
"254 350 OFFCURVE",
"254 335 CURVE SMOOTH",
"254 329 OFFCURVE",
"261 328 OFFCURVE",
"265 328 CURVE SMOOTH",
"278 328 OFFCURVE",
"285 334 OFFCURVE",
"292 344 CURVE SMOOTH",
"320 385 OFFCURVE",
"329 472 OFFCURVE",
"352 522 CURVE",
"363 482 OFFCURVE",
"388 387 OFFCURVE",
"441 387 CURVE SMOOTH",
"486 387 OFFCURVE",
"567 487 OFFCURVE",
"594 522 CURVE",
"582 467 OFFCURVE",
"576 411 OFFCURVE",
"562 357 CURVE",
"561 355 OFFCURVE",
"561 352 OFFCURVE",
"561 349 CURVE SMOOTH",
"561 343 OFFCURVE",
"566 340 OFFCURVE",
"572 340 CURVE SMOOTH",
"584 340 OFFCURVE",
"605 345 OFFCURVE",
"607 357 CURVE SMOOTH",
"615 408 OFFCURVE",
"643 593 OFFCURVE",
"643 615 CURVE SMOOTH"
);
},
{
closed = 1;
nodes = (
"337 643 OFFCURVE",
"320 643 OFFCURVE",
"315 643 CURVE SMOOTH",
"277 643 OFFCURVE",
"41 633 OFFCURVE",
"27 613 CURVE",
"31 602 OFFCURVE",
"43 600 OFFCURVE",
"52 600 CURVE SMOOTH",
"76 600 OFFCURVE",
"100 605 OFFCURVE",
"124 605 CURVE SMOOTH",
"129 605 OFFCURVE",
"152 605 OFFCURVE",
"152 596 CURVE SMOOTH",
"152 587 OFFCURVE",
"143 564 OFFCURVE",
"140 554 CURVE SMOOTH",
"125 517 OFFCURVE",
"53 359 OFFCURVE",
"53 335 CURVE SMOOTH",
"53 325 OFFCURVE",
"64 322 OFFCURVE",
"71 322 CURVE SMOOTH",
"81 322 OFFCURVE",
"86 323 OFFCURVE",
"92 331 CURVE SMOOTH",
"100 341 OFFCURVE",
"112 395 OFFCURVE",
"128 440 CURVE SMOOTH",
"136 464 OFFCURVE",
"159 548 OFFCURVE",
"187 594 CURVE SMOOTH",
"203 621 OFFCURVE",
"337 610 OFFCURVE",
"337 635 CURVE SMOOTH"
);
}
);
width = 656;
}
);
note = trademark;
unicode = 2122;
},
{
color = 3;
glyphname = notequal;
lastChange = "2021-08-03 12:26:09 +0000";
layers = (
{
hints = (
{
horizontal = 1;
place = "{212, 49}";
type = Stem;
},
{
horizontal = 1;
place = "{332, 49}";
type = Stem;
}
);
layerId = "C7EEC47D-2D39-4E2B-85C4-E2E866CE7804";
paths = (
{
closed = 1;
nodes = (
"353 144 LINE SMOOTH",
"394 144 OFFCURVE",
"447 153 OFFCURVE",
"447 169 CURVE SMOOTH",
"447 180 OFFCURVE",
"402 181 OFFCURVE",
"385 181 CURVE SMOOTH",
"297 181 LINE",
"369 259 LINE",
"411 259 LINE SMOOTH",
"452 259 OFFCURVE",
"505 268 OFFCURVE",
"505 284 CURVE SMOOTH",
"505 295 OFFCURVE",
"460 296 OFFCURVE",
"443 296 CURVE SMOOTH",
"404 296 LINE",
"482 380 LINE SMOOTH",
"499 397 OFFCURVE",
"454 398 OFFCURVE",
"443 385 CURVE SMOOTH",
"415 356 OFFCURVE",
"388 326 OFFCURVE",
"362 296 CURVE",
"239 296 LINE SMOOTH",
"207 296 OFFCURVE",
"164 259 OFFCURVE",
"197 259 CURVE SMOOTH",
"330 259 LINE",
"264 181 LINE",
"181 181 LINE SMOOTH",
"149 181 OFFCURVE",
"106 144 OFFCURVE",
"139 144 CURVE SMOOTH",
"233 144 LINE",
"188 91 OFFCURVE",
"140 37 OFFCURVE",
"88 -17 CURVE SMOOTH",
"77 -28 OFFCURVE",
"105 -26 OFFCURVE",
"112 -19 CURVE SMOOTH",
"263 144 LINE"
);
}
);
width = 478;
}
);
note = notequal;
unicode = 2260;
},
{
color = 3;
glyphname = AE;
lastChange = "2021-08-03 12:26:09 +0000";
layers = (
{
hints = (
{
horizontal = 1;
place = "{-26, 50}";
type = Stem;
},
{
horizontal = 1;
place = "{542, 33}";
type = Stem;
},
{
place = "{344, 29}";
type = Stem;
},
{
horizontal = 1;
place = "{549, 35}";
type = Stem;
}
);
layerId = "C7EEC47D-2D39-4E2B-85C4-E2E866CE7804";
paths = (
{
closed = 1;
nodes = (
"997 501 OFFCURVE",
"1032 559 OFFCURVE",
"978 575 CURVE",
"930 583 OFFCURVE",
"881 584 OFFCURVE",
"834 584 CURVE SMOOTH",
"799 584 OFFCURVE",
"668 585 OFFCURVE",
"605 562 CURVE",
"591 571 OFFCURVE",
"565 575 OFFCURVE",
"555 575 CURVE SMOOTH",
"446 575 OFFCURVE",
"188 341 OFFCURVE",
"118 254 CURVE",
"88 246 OFFCURVE",
"-28 255 OFFCURVE",
"-38 226 CURVE",
"-36 218 OFFCURVE",
"-25 211 OFFCURVE",
"-17 211 CURVE SMOOTH",
"17 211 OFFCURVE",
"52 212 OFFCURVE",
"86 212 CURVE",
"41 155 OFFCURVE",
"-39 23 OFFCURVE",
"-39 -49 CURVE SMOOTH",
"-39 -56 OFFCURVE",
"-28 -75 OFFCURVE",
"-20 -75 CURVE SMOOTH",
"-16 -75 OFFCURVE",
"-15 -70 OFFCURVE",
"-15 -67 CURVE",
"5 12 OFFCURVE",
"102 207 OFFCURVE",
"193 216 CURVE SMOOTH",
"210 217 OFFCURVE",
"350 223 OFFCURVE",
"424 237 CURVE",
"401 188 OFFCURVE",
"379 133 OFFCURVE",
"385 85 CURVE SMOOTH",
"395 4 OFFCURVE",
"452 -26 OFFCURVE",
"526 -26 CURVE SMOOTH",
"630 -26 OFFCURVE",
"902 65 OFFCURVE",
"955 142 CURVE SMOOTH",
"961 151 OFFCURVE",
"962 160 OFFCURVE",
"948 153 CURVE SMOOTH",
"849 98 OFFCURVE",
"656 40 OFFCURVE",
"536 25 CURVE SMOOTH",
"380 5 OFFCURVE",
"469 208 OFFCURVE",
"487 247 CURVE",
"553 255 OFFCURVE",
"714 252 OFFCURVE",
"829 271 CURVE SMOOTH",
"839 273 OFFCURVE",
"888 290 OFFCURVE",
"854 294 CURVE SMOOTH",
"818 298 OFFCURVE",
"780 297 OFFCURVE",
"744 297 CURVE SMOOTH",
"667 297 OFFCURVE",
"591 286 OFFCURVE",
"514 288 CURVE",
"537 319 OFFCURVE",
"668 506 OFFCURVE",
"694 523 CURVE SMOOTH",
"723 543 OFFCURVE",
"856 549 OFFCURVE",
"896 549 CURVE SMOOTH",
"917 549 OFFCURVE",
"954 550 OFFCURVE",
"975 541 CURVE"
);
},
{
closed = 1;
nodes = (
"344 267 OFFCURVE",
"238 265 OFFCURVE",
"195 265 CURVE",
"302 389 OFFCURVE",
"384 479 OFFCURVE",
"540 542 CURVE",
"576 544 LINE",
"573 540 OFFCURVE",
"571 534 OFFCURVE",
"572 529 CURVE SMOOTH",
"575 505 OFFCURVE",
"588 517 OFFCURVE",
"595 504 CURVE",
"558 451 OFFCURVE",
"513 410 OFFCURVE",
"457 302 CURVE SMOOTH",
"438 265 LINE",
"418 267 OFFCURVE",
"394 267 OFFCURVE",
"388 267 CURVE SMOOTH"
);
}
);
width = 887;
}
);
note = AE;
unicode = 00C6;
},
{
color = 3;
glyphname = Oslash;
lastChange = "2021-08-03 12:26:09 +0000";
layers = (
{
hints = (
{
horizontal = 1;
place = "{-25, 33}";
type = Stem;
},
{
horizontal = 1;
place = "{560, 31}";
type = Stem;
},
{
place = "{59, 35}";
type = Stem;
},
{
place = "{715, 46}";
type = Stem;
}
);
layerId = "C7EEC47D-2D39-4E2B-85C4-E2E866CE7804";
paths = (
{
closed = 1;
nodes = (
"4 -96 LINE SMOOTH",
"-15 -116 OFFCURVE",
"36 -111 OFFCURVE",
"48 -98 CURVE SMOOTH",
"132 -7 LINE",
"155 -19 OFFCURVE",
"184 -25 OFFCURVE",
"219 -25 CURVE SMOOTH",
"410 -25 OFFCURVE",
"761 161 OFFCURVE",
"761 377 CURVE SMOOTH",
"761 464 OFFCURVE",
"717 521 OFFCURVE",
"654 554 CURVE",
"724 629 LINE SMOOTH",
"755 661 OFFCURVE",
"673 662 OFFCURVE",
"654 639 CURVE SMOOTH",
"596 577 LINE",
"562 587 OFFCURVE",
"527 591 OFFCURVE",
"491 591 CURVE SMOOTH",
"355 591 OFFCURVE",
"187 527 OFFCURVE",
"104 416 CURVE SMOOTH",
"90 398 OFFCURVE",
"100 384 OFFCURVE",
"120 402 CURVE SMOOTH",
"172 449 OFFCURVE",
"233 488 OFFCURVE",
"299 511 CURVE",
"194 421 OFFCURVE",
"59 284 OFFCURVE",
"59 136 CURVE SMOOTH",
"59 80 OFFCURVE",
"74 38 OFFCURVE",
"104 11 CURVE"
);
},
{
closed = 1;
nodes = (
"714 218 OFFCURVE",
"398 8 OFFCURVE",
"211 8 CURVE SMOOTH",
"189 8 OFFCURVE",
"170 11 OFFCURVE",
"155 17 CURVE",
"637 536 LINE",
"681 515 OFFCURVE",
"714 479 OFFCURVE",
"714 421 CURVE SMOOTH"
);
},
{
closed = 1;
nodes = (
"94 264 OFFCURVE",
"288 447 OFFCURVE",
"412 486 CURVE SMOOTH",
"418 488 OFFCURVE",
"423 492 OFFCURVE",
"423 499 CURVE SMOOTH",
"423 523 OFFCURVE",
"386 535 OFFCURVE",
"368 538 CURVE",
"414 553 OFFCURVE",
"462 560 OFFCURVE",
"510 560 CURVE SMOOTH",
"531 560 OFFCURVE",
"553 558 OFFCURVE",
"575 554 CURVE",
"425 390 OFFCURVE",
"287 215 OFFCURVE",
"126 35 CURVE",
"104 55 OFFCURVE",
"94 85 OFFCURVE",
"94 126 CURVE SMOOTH"
);
}
);
width = 657;
}
);
note = Oslash;
unicode = 00D8;
},
{
color = 3;
glyphname = infinity;
lastChange = "2021-08-03 12:26:09 +0000";
layers = (
{
hints = (
{
horizontal = 1;
place = "{78, 39}";
type = Stem;
},
{
horizontal = 1;
place = "{264, 33}";
type = Stem;
},
{
place = "{129, 33}";
type = Stem;
},
{
place = "{666, 30}";
type = Stem;
},
{
horizontal = 1;
place = "{81, 32}";
type = Stem;
},
{
horizontal = 1;
place = "{276, 33}";
type = Stem;
}
);
layerId = "C7EEC47D-2D39-4E2B-85C4-E2E866CE7804";
paths = (
{
closed = 1;
nodes = (
"263 81 OFFCURVE",
"359 130 OFFCURVE",
"402 157 CURVE",
"437 117 OFFCURVE",
"477 78 OFFCURVE",
"531 78 CURVE SMOOTH",
"619 78 OFFCURVE",
"696 161 OFFCURVE",
"696 233 CURVE SMOOTH",
"696 276 OFFCURVE",
"662 309 OFFCURVE",
"601 309 CURVE SMOOTH",
"558 309 OFFCURVE",
"457 258 OFFCURVE",
"419 232 CURVE",
"382 271 OFFCURVE",
"343 297 OFFCURVE",
"299 297 CURVE SMOOTH",
"201 297 OFFCURVE",
"129 222 OFFCURVE",
"129 161 CURVE SMOOTH",
"129 114 OFFCURVE",
"173 81 OFFCURVE",
"226 81 CURVE SMOOTH"
);
},
{
closed = 1;
nodes = (
"649 276 OFFCURVE",
"669 233 OFFCURVE",
"666 196 CURVE SMOOTH",
"663 158 OFFCURVE",
"621 116 OFFCURVE",
"566 117 CURVE SMOOTH",
"512 118 OFFCURVE",
"479 163 OFFCURVE",
"437 211 CURVE SMOOTH",
"430 219 LINE",
"463 236 OFFCURVE",
"551 276 OFFCURVE",
"590 276 CURVE SMOOTH"
);
},
{
closed = 1;
nodes = (
"188 113 OFFCURVE",
"159 152 OFFCURVE",
"162 190 CURVE SMOOTH",
"165 229 OFFCURVE",
"208 264 OFFCURVE",
"256 264 CURVE SMOOTH",
"309 264 OFFCURVE",
"354 215 OFFCURVE",
"385 178 CURVE SMOOTH",
"391 170 LINE",
"355 150 OFFCURVE",
"283 113 OFFCURVE",
"253 113 CURVE SMOOTH"
);
}
);
width = 833;
}
);
note = infinity;
unicode = 221E;
},
{
color = 3;
glyphname = plusminus;
lastChange = "2021-08-03 12:26:09 +0000";
layers = (
{
hints = (
{
horizontal = 1;
place = "{67, 194}";
type = Stem;
}
);
layerId = "C7EEC47D-2D39-4E2B-85C4-E2E866CE7804";
paths = (
{
closed = 1;
nodes = (
"222 377 OFFCURVE",
"202 319 OFFCURVE",
"185 260 CURVE",
"138 260 OFFCURVE",
"91 259 OFFCURVE",
"44 259 CURVE SMOOTH",
"32 259 OFFCURVE",
"19 247 OFFCURVE",
"19 235 CURVE SMOOTH",
"19 214 OFFCURVE",
"151 212 OFFCURVE",
"171 212 CURVE",
"167 197 OFFCURVE",
"139 103 OFFCURVE",
"139 93 CURVE SMOOTH",
"139 83 OFFCURVE",
"146 67 OFFCURVE",
"158 67 CURVE SMOOTH",
"178 67 OFFCURVE",
"217 196 OFFCURVE",
"223 216 CURVE",
"247 220 OFFCURVE",
"397 236 OFFCURVE",
"397 259 CURVE SMOOTH",
"397 260 OFFCURVE",
"396 261 OFFCURVE",
"396 262 CURVE",
"365 259 OFFCURVE",
"333 260 OFFCURVE",
"302 260 CURVE SMOOTH",
"231 260 LINE",
"237 307 OFFCURVE",
"246 355 OFFCURVE",
"246 402 CURVE SMOOTH",
"246 408 OFFCURVE",
"246 439 OFFCURVE",
"234 437 CURVE"
);
},
{
closed = 1;
nodes = (
"187 -16 LINE SMOOTH",
"228 -16 OFFCURVE",
"281 -7 OFFCURVE",
"281 9 CURVE SMOOTH",
"281 20 OFFCURVE",
"236 21 OFFCURVE",
"219 21 CURVE SMOOTH",
"64 21 LINE SMOOTH",
"32 21 OFFCURVE",
"-11 -16 OFFCURVE",
"22 -16 CURVE SMOOTH"
);
}
);
width = 406;
}
);
note = plusminus;
unicode = 00B1;
},
{
color = 3;
glyphname = lessequal;
lastChange = "2021-08-03 12:26:09 +0000";
layers = (
{
hints = (
{
place = "{-74, 45}";
type = Stem;
}
);
layerId = "C7EEC47D-2D39-4E2B-85C4-E2E866CE7804";
paths = (
{
closed = 1;
nodes = (
"94 235 OFFCURVE",
"95 233 OFFCURVE",
"96 231 CURVE",
"131 190 OFFCURVE",
"165 160 OFFCURVE",
"187 108 CURVE",
"201 102 OFFCURVE",
"205 108 OFFCURVE",
"207 115 CURVE SMOOTH",
"212 133 OFFCURVE",
"162 232 OFFCURVE",
"152 254 CURVE",
"171 271 OFFCURVE",
"309 373 OFFCURVE",
"314 383 CURVE",
"315 387 OFFCURVE",
"313 390 OFFCURVE",
"309 391 CURVE SMOOTH",
"301 392 OFFCURVE",
"294 388 OFFCURVE",
"286 383 CURVE SMOOTH",
"260 365 OFFCURVE",
"100 254 OFFCURVE",
"95 237 CURVE SMOOTH"
);
},
{
closed = 1;
nodes = (
"164 -10 LINE SMOOTH",
"198 -10 OFFCURVE",
"242 -2 OFFCURVE",
"242 11 CURVE SMOOTH",
"242 20 OFFCURVE",
"204 21 OFFCURVE",
"190 21 CURVE SMOOTH",
"62 21 LINE SMOOTH",
"35 21 OFFCURVE",
"0 -10 OFFCURVE",
"27 -10 CURVE SMOOTH"
);
}
);
width = 318;
}
);
note = lessequal;
unicode = 2264;
},
{
color = 3;
glyphname = greaterequal;
lastChange = "2021-08-03 12:26:09 +0000";
layers = (
{
hints = (
{
place = "{63, 45}";
type = Stem;
}
);
layerId = "C7EEC47D-2D39-4E2B-85C4-E2E866CE7804";
paths = (
{
closed = 1;
nodes = (
"315 259 OFFCURVE",
"314 261 OFFCURVE",
"313 263 CURVE",
"278 304 OFFCURVE",
"244 334 OFFCURVE",
"222 386 CURVE",
"208 392 OFFCURVE",
"204 386 OFFCURVE",
"202 379 CURVE SMOOTH",
"197 361 OFFCURVE",
"247 262 OFFCURVE",
"257 240 CURVE",
"238 223 OFFCURVE",
"100 121 OFFCURVE",
"95 111 CURVE",
"94 107 OFFCURVE",
"96 104 OFFCURVE",
"100 103 CURVE SMOOTH",
"108 102 OFFCURVE",
"115 106 OFFCURVE",
"123 111 CURVE SMOOTH",
"149 129 OFFCURVE",
"309 240 OFFCURVE",
"314 257 CURVE SMOOTH"
);
},
{
closed = 1;
nodes = (
"164 -10 LINE SMOOTH",
"198 -10 OFFCURVE",
"242 -2 OFFCURVE",
"242 11 CURVE SMOOTH",
"242 20 OFFCURVE",
"204 21 OFFCURVE",
"190 21 CURVE SMOOTH",
"62 21 LINE SMOOTH",
"35 21 OFFCURVE",
"0 -10 OFFCURVE",
"27 -10 CURVE SMOOTH"
);
}
);
width = 192;
}
);
note = greaterequal;
unicode = 2265;
},
{
color = 3;
glyphname = yen;
lastChange = "2021-08-24 04:15:41 +0000";
layers = (
{
hints = (
{
horizontal = 1;
place = "{212, 49}";
type = Stem;
},
{
horizontal = 1;
place = "{332, 49}";
type = Stem;
},
{
horizontal = 1;
place = "{600, -20}";
target = down;
type = TopGhost;
},
{
place = "{137, 35}";
type = Stem;
}
);
layerId = "C7EEC47D-2D39-4E2B-85C4-E2E866CE7804";
paths = (
{
closed = 1;
nodes = (
"237 121 LINE SMOOTH",
"274 121 OFFCURVE",
"322 129 OFFCURVE",
"322 143 CURVE SMOOTH",
"322 153 OFFCURVE",
"281 154 OFFCURVE",
"266 154 CURVE SMOOTH",
"191 154 LINE",
"208 176 OFFCURVE",
"227 199 OFFCURVE",
"246 222 CURVE",
"289 222 LINE SMOOTH",
"326 222 OFFCURVE",
"374 230 OFFCURVE",
"374 244 CURVE SMOOTH",
"374 254 OFFCURVE",
"334 255 OFFCURVE",
"318 255 CURVE SMOOTH",
"275 255 LINE",
"360 348 OFFCURVE",
"457 433 OFFCURVE",
"512 471 CURVE SMOOTH",
"518 474 OFFCURVE",
"521 479 OFFCURVE",
"521 486 CURVE SMOOTH",
"521 501 OFFCURVE",
"503 520 OFFCURVE",
"487 520 CURVE SMOOTH",
"466 520 OFFCURVE",
"416 480 OFFCURVE",
"413 458 CURVE",
"345 396 OFFCURVE",
"287 324 OFFCURVE",
"228 255 CURVE",
"210 255 LINE",
"206 333 OFFCURVE",
"198 520 OFFCURVE",
"128 517 CURVE SMOOTH",
"113 516 OFFCURVE",
"88 506 OFFCURVE",
"83 488 CURVE SMOOTH",
"81 483 OFFCURVE",
"84 480 OFFCURVE",
"87 477 CURVE SMOOTH",
"147 427 OFFCURVE",
"177 343 OFFCURVE",
"180 255 CURVE",
"133 255 LINE SMOOTH",
"104 255 OFFCURVE",
"66 222 OFFCURVE",
"95 222 CURVE SMOOTH",
"177 222 LINE",
"172 197 OFFCURVE",
"164 174 OFFCURVE",
"156 154 CURVE",
"81 154 LINE SMOOTH",
"52 154 OFFCURVE",
"13 121 OFFCURVE",
"43 121 CURVE SMOOTH",
"142 121 LINE",
"117 70 OFFCURVE",
"88 28 OFFCURVE",
"74 -26 CURVE SMOOTH",
"67 -49 OFFCURVE",
"94 -55 OFFCURVE",
"120 -57 CURVE SMOOTH",
"137 -59 OFFCURVE",
"152 -37 OFFCURVE",
"133 -36 CURVE SMOOTH",
"114 -36 OFFCURVE",
"114 -37 OFFCURVE",
"114 -13 CURVE SMOOTH",
"114 23 OFFCURVE",
"135 70 OFFCURVE",
"169 121 CURVE"
);
}
);
width = 336;
}
);
note = yen;
unicode = 00A5;
},
{
color = 3;
glyphname = mu;
lastChange = "2021-08-03 12:26:09 +0000";
layers = (
{
hints = (
{
horizontal = 1;
place = "{9, 31}";
type = Stem;
},
{
horizontal = 1;
place = "{259, 28}";
type = Stem;
},
{
place = "{-94, 43}";
type = Stem;
},
{
place = "{211, 47}";
type = Stem;
},
{
horizontal = 1;
place = "{-300, 32}";
type = Stem;
},
{
place = "{150, 60}";
type = Stem;
},
{
horizontal = 1;
place = "{-17, 29}";
type = Stem;
}
);
layerId = "C7EEC47D-2D39-4E2B-85C4-E2E866CE7804";
paths = (
{
closed = 1;
nodes = (
"114 40 OFFCURVE",
"109 59 OFFCURVE",
"120 81 CURVE SMOOTH",
"144 129 OFFCURVE",
"198 202 OFFCURVE",
"212 257 CURVE",
"212 284 OFFCURVE",
"186 287 OFFCURVE",
"161 287 CURVE SMOOTH",
"147 287 OFFCURVE",
"66 240 OFFCURVE",
"66 227 CURVE",
"66 227 OFFCURVE",
"57 203 OFFCURVE",
"79 219 CURVE SMOOTH",
"92 228 OFFCURVE",
"106 239 OFFCURVE",
"132 256 CURVE SMOOTH",
"139 260 OFFCURVE",
"150 260 OFFCURVE",
"150 253 CURVE SMOOTH",
"150 189 OFFCURVE",
"-82 -109 OFFCURVE",
"-82 -230 CURVE SMOOTH",
"-82 -245 OFFCURVE",
"-76 -257 OFFCURVE",
"-60 -257 CURVE SMOOTH",
"-44 -257 OFFCURVE",
"21 -223 OFFCURVE",
"22 -206 CURVE",
"20 -205 LINE",
"5 -206 OFFCURVE",
"-11 -225 OFFCURVE",
"-27 -225 CURVE SMOOTH",
"-34 -225 OFFCURVE",
"-39 -218 OFFCURVE",
"-39 -211 CURVE SMOOTH",
"-39 -210 OFFCURVE",
"-38 -208 OFFCURVE",
"-38 -207 CURVE SMOOTH",
"-12 -100 OFFCURVE",
"22 -52 OFFCURVE",
"78 42 CURVE",
"82 25 OFFCURVE",
"90 9 OFFCURVE",
"109 9 CURVE SMOOTH",
"135 9 OFFCURVE",
"187 59 OFFCURVE",
"228 104 CURVE",
"218 81 OFFCURVE",
"211 56 OFFCURVE",
"211 39 CURVE SMOOTH",
"211 10 OFFCURVE",
"248 -17 OFFCURVE",
"275 -17 CURVE SMOOTH",
"292 -17 OFFCURVE",
"305 -8 OFFCURVE",
"315 4 CURVE SMOOTH",
"356 52 OFFCURVE",
"396 102 OFFCURVE",
"438 150 CURVE SMOOTH",
"441 154 OFFCURVE",
"444 156 OFFCURVE",
"444 161 CURVE SMOOTH",
"444 165 OFFCURVE",
"441 169 OFFCURVE",
"437 169 CURVE SMOOTH",
"434 169 OFFCURVE",
"431 166 OFFCURVE",
"429 164 CURVE SMOOTH",
"401 133 OFFCURVE",
"319 35 OFFCURVE",
"289 19 CURVE SMOOTH",
"282 15 OFFCURVE",
"274 14 OFFCURVE",
"266 12 CURVE",
"259 15 OFFCURVE",
"258 24 OFFCURVE",
"258 30 CURVE SMOOTH",
"258 53 OFFCURVE",
"271 85 OFFCURVE",
"281 105 CURVE SMOOTH",
"308 163 OFFCURVE",
"346 213 OFFCURVE",
"390 259 CURVE SMOOTH",
"394 263 OFFCURVE",
"398 268 OFFCURVE",
"398 274 CURVE SMOOTH",
"398 289 OFFCURVE",
"377 293 OFFCURVE",
"366 293 CURVE SMOOTH",
"347 293 OFFCURVE",
"330 284 OFFCURVE",
"319 268 CURVE SMOOTH",
"308 251 OFFCURVE",
"296 235 OFFCURVE",
"262 171 CURVE",
"219 117 OFFCURVE",
"152 40 OFFCURVE",
"130 40 CURVE SMOOTH"
);
}
);
width = 353;
}
);
note = mu;
unicode = 00B5;
},
{
color = 3;
glyphname = partialdiff;
lastChange = "2021-08-03 12:26:09 +0000";
layers = (
{
hints = (
{
horizontal = 1;
place = "{-14, 20}";
type = Stem;
},
{
horizontal = 1;
place = "{353, 21}";
target = up;
type = BottomGhost;
},
{
place = "{19, 30}";
type = Stem;
},
{
place = "{146, 28}";
type = Stem;
}
);
layerId = "C7EEC47D-2D39-4E2B-85C4-E2E866CE7804";
paths = (
{
closed = 1;
nodes = (
"288 329 OFFCURVE",
"282 258 OFFCURVE",
"263 197 CURVE SMOOTH",
"250 158 OFFCURVE",
"191 22 OFFCURVE",
"127 22 CURVE SMOOTH",
"108 22 OFFCURVE",
"105 34 OFFCURVE",
"105 46 CURVE SMOOTH",
"105 79 OFFCURVE",
"179 241 OFFCURVE",
"230 241 CURVE SMOOTH",
"235 241 OFFCURVE",
"246 236 OFFCURVE",
"246 246 CURVE SMOOTH",
"246 250 OFFCURVE",
"245 253 OFFCURVE",
"245 258 CURVE",
"237 267 OFFCURVE",
"224 270 OFFCURVE",
"210 270 CURVE SMOOTH",
"201 270 LINE",
"154 265 OFFCURVE",
"80 145 OFFCURVE",
"67 113 CURVE SMOOTH",
"56 90 OFFCURVE",
"46 66 OFFCURVE",
"46 41 CURVE SMOOTH",
"46 11 OFFCURVE",
"64 -9 OFFCURVE",
"103 -9 CURVE SMOOTH",
"231 -9 OFFCURVE",
"301 192 OFFCURVE",
"320 270 CURVE SMOOTH",
"333 319 OFFCURVE",
"339 367 OFFCURVE",
"339 416 CURVE SMOOTH",
"339 462 OFFCURVE",
"332 579 OFFCURVE",
"245 579 CURVE SMOOTH",
"230 579 OFFCURVE",
"183 574 OFFCURVE",
"183 559 CURVE SMOOTH",
"183 542 OFFCURVE",
"199 547 OFFCURVE",
"216 547 CURVE SMOOTH",
"286 547 OFFCURVE",
"288 428 OFFCURVE",
"288 393 CURVE SMOOTH"
);
}
);
width = 282;
}
);
note = partialdiff;
unicode = 2202;
},
{
color = 3;
glyphname = pi;
lastChange = "2021-08-03 12:26:09 +0000";
layers = (
{
hints = (
{
horizontal = 1;
place = "{-15, 11}";
type = Stem;
},
{
horizontal = 1;
place = "{193, 26}";
type = Stem;
},
{
place = "{161, 19}";
type = Stem;
}
);
layerId = "C7EEC47D-2D39-4E2B-85C4-E2E866CE7804";
paths = (
{
closed = 1;
nodes = (
"446 333 OFFCURVE",
"410 300 OFFCURVE",
"367 300 CURVE SMOOTH",
"308 300 OFFCURVE",
"266 338 OFFCURVE",
"206 338 CURVE SMOOTH",
"163 338 OFFCURVE",
"121 318 OFFCURVE",
"82 284 CURVE",
"75 280 OFFCURVE",
"70 273 OFFCURVE",
"67 264 CURVE",
"67 263 OFFCURVE",
"67 260 OFFCURVE",
"69 260 CURVE SMOOTH",
"72 260 OFFCURVE",
"74 262 OFFCURVE",
"77 263 CURVE",
"118 293 OFFCURVE",
"137 301 OFFCURVE",
"185 301 CURVE SMOOTH",
"187 301 LINE",
"169 236 OFFCURVE",
"150 184 OFFCURVE",
"119 120 CURVE SMOOTH",
"111 104 OFFCURVE",
"68 18 OFFCURVE",
"65 5 CURVE",
"64 3 OFFCURVE",
"71 1 OFFCURVE",
"72 1 CURVE SMOOTH",
"75 1 OFFCURVE",
"78 3 OFFCURVE",
"80 5 CURVE SMOOTH",
"128 64 OFFCURVE",
"199 230 OFFCURVE",
"219 299 CURVE",
"245 294 OFFCURVE",
"271 284 OFFCURVE",
"296 277 CURVE",
"266 226 OFFCURVE",
"228 128 OFFCURVE",
"212 73 CURVE SMOOTH",
"204 41 OFFCURVE",
"197 6 OFFCURVE",
"236 6 CURVE SMOOTH",
"242 6 OFFCURVE",
"250 7 OFFCURVE",
"259 10 CURVE SMOOTH",
"286 18 OFFCURVE",
"389 107 OFFCURVE",
"423 148 CURVE SMOOTH",
"435 163 OFFCURVE",
"422 169 OFFCURVE",
"406 152 CURVE SMOOTH",
"382 126 OFFCURVE",
"270 22 OFFCURVE",
"248 22 CURVE SMOOTH",
"225 22 OFFCURVE",
"234 59 OFFCURVE",
"238 76 CURVE SMOOTH",
"257 144 OFFCURVE",
"298 208 OFFCURVE",
"330 272 CURVE",
"369 269 OFFCURVE",
"401 277 OFFCURVE",
"438 307 CURVE SMOOTH",
"445 313 OFFCURVE",
"452 320 OFFCURVE",
"454 327 CURVE",
"454 330 OFFCURVE",
"454 333 OFFCURVE",
"451 333 CURVE SMOOTH"
);
}
);
width = 339;
}
);
note = pi;
unicode = 03C0;
},
{
color = 3;
glyphname = integral;
lastChange = "2021-08-03 12:26:09 +0000";
layers = (
{
hints = (
{
horizontal = 1;
place = "{-241, 31}";
type = Stem;
},
{
horizontal = 1;
place = "{547, 23}";
type = Stem;
},
{
place = "{514, 27}";
type = Stem;
}
);
layerId = "C7EEC47D-2D39-4E2B-85C4-E2E866CE7804";
paths = (
{
closed = 1;
nodes = (
"547 535 OFFCURVE",
"533 553 OFFCURVE",
"512 562 CURVE SMOOTH",
"358 634 OFFCURVE",
"120 178 OFFCURVE",
"100 141 CURVE SMOOTH",
"40 41 OFFCURVE",
"-80 -210 OFFCURVE",
"-187 -210 CURVE SMOOTH",
"-263 -210 OFFCURVE",
"-247 -171 OFFCURVE",
"-275 -157 CURVE SMOOTH",
"-281 -154 OFFCURVE",
"-292 -170 OFFCURVE",
"-285 -196 CURVE SMOOTH",
"-279 -218 OFFCURVE",
"-247 -241 OFFCURVE",
"-217 -241 CURVE SMOOTH",
"-78 -241 OFFCURVE",
"47 -38 OFFCURVE",
"62 -13 CURVE SMOOTH",
"185 181 OFFCURVE",
"271 343 OFFCURVE",
"391 479 CURVE SMOOTH",
"490 588 OFFCURVE",
"545 547 OFFCURVE",
"496 487 CURVE SMOOTH",
"478 466 OFFCURVE",
"476 456 OFFCURVE",
"491 460 CURVE SMOOTH",
"517 466 OFFCURVE",
"536 491 OFFCURVE",
"541 511 CURVE SMOOTH"
);
}
);
width = 312;
}
);
note = integral;
unicode = 222B;
},
{
color = 3;
glyphname = ordfeminine;
lastChange = "2021-08-03 12:26:09 +0000";
layers = (
{
hints = (
{
horizontal = 1;
place = "{374, 21}";
type = Stem;
},
{
horizontal = 1;
place = "{568, 30}";
type = Stem;
},
{
place = "{55, 24}";
type = Stem;
},
{
horizontal = 1;
place = "{368, 22}";
type = Stem;
},
{
place = "{171, 31}";
type = Stem;
}
);
layerId = "C7EEC47D-2D39-4E2B-85C4-E2E866CE7804";
paths = (
{
closed = 1;
nodes = (
"218 368 OFFCURVE",
"334 487 OFFCURVE",
"334 498 CURVE SMOOTH",
"334 501 OFFCURVE",
"331 503 OFFCURVE",
"328 503 CURVE SMOOTH",
"325 503 OFFCURVE",
"323 500 OFFCURVE",
"321 498 CURVE SMOOTH",
"306 481 OFFCURVE",
"224 396 OFFCURVE",
"204 390 CURVE SMOOTH",
"199 389 OFFCURVE",
"201 395 OFFCURVE",
"202 398 CURVE SMOOTH",
"209 429 OFFCURVE",
"234 489 OFFCURVE",
"259 508 CURVE",
"259 510 OFFCURVE",
"259 511 OFFCURVE",
"259 513 CURVE SMOOTH",
"259 523 OFFCURVE",
"247 543 OFFCURVE",
"236 543 CURVE SMOOTH",
"232 543 OFFCURVE",
"231 541 OFFCURVE",
"228 538 CURVE",
"221 528 OFFCURVE",
"215 517 OFFCURVE",
"207 506 CURVE SMOOTH",
"176 464 OFFCURVE",
"133 422 OFFCURVE",
"87 397 CURVE",
"86 396 OFFCURVE",
"83 395 OFFCURVE",
"82 395 CURVE SMOOTH",
"79 395 OFFCURVE",
"79 400 OFFCURVE",
"79 402 CURVE SMOOTH",
"79 410 OFFCURVE",
"82 418 OFFCURVE",
"85 425 CURVE SMOOTH",
"106 473 OFFCURVE",
"176 568 OFFCURVE",
"231 568 CURVE SMOOTH",
"257 568 OFFCURVE",
"267 542 OFFCURVE",
"272 542 CURVE SMOOTH",
"278 542 OFFCURVE",
"279 557 OFFCURVE",
"279 561 CURVE SMOOTH",
"279 585 OFFCURVE",
"260 598 OFFCURVE",
"234 598 CURVE SMOOTH",
"172 598 OFFCURVE",
"55 488 OFFCURVE",
"55 413 CURVE SMOOTH",
"55 392 OFFCURVE",
"69 374 OFFCURVE",
"91 374 CURVE SMOOTH",
"122 374 OFFCURVE",
"187 474 OFFCURVE",
"214 497 CURVE",
"202 478 OFFCURVE",
"171 424 OFFCURVE",
"171 402 CURVE SMOOTH",
"171 389 OFFCURVE",
"193 368 OFFCURVE",
"206 368 CURVE SMOOTH"
);
}
);
width = 314;
}
);
note = ordfeminine;
unicode = 00AA;
},
{
color = 3;
glyphname = ordmasculine;
lastChange = "2021-08-03 12:26:09 +0000";
layers = (
{
hints = (
{
horizontal = 1;
place = "{406, 13}";
type = Stem;
}
);
layerId = "C7EEC47D-2D39-4E2B-85C4-E2E866CE7804";
paths = (
{
closed = 1;
nodes = (
"282 503 OFFCURVE",
"282 506 OFFCURVE",
"279 506 CURVE SMOOTH",
"273 506 OFFCURVE",
"270 503 OFFCURVE",
"266 499 CURVE SMOOTH",
"234 470 OFFCURVE",
"203 438 OFFCURVE",
"160 426 CURVE",
"168 434 OFFCURVE",
"174 442 OFFCURVE",
"181 451 CURVE SMOOTH",
"206 485 OFFCURVE",
"232 521 OFFCURVE",
"232 565 CURVE SMOOTH",
"232 587 OFFCURVE",
"221 599 OFFCURVE",
"199 599 CURVE SMOOTH",
"173 599 OFFCURVE",
"144 585 OFFCURVE",
"123 570 CURVE",
"116 575 OFFCURVE",
"107 579 OFFCURVE",
"100 571 CURVE SMOOTH",
"69 537 OFFCURVE",
"20 467 OFFCURVE",
"20 416 CURVE SMOOTH",
"20 391 OFFCURVE",
"34 362 OFFCURVE",
"63 362 CURVE SMOOTH",
"90 362 OFFCURVE",
"122 387 OFFCURVE",
"141 406 CURVE",
"193 414 OFFCURVE",
"244 453 OFFCURVE",
"277 493 CURVE SMOOTH",
"278 494 OFFCURVE",
"282 499 OFFCURVE",
"282 501 CURVE SMOOTH"
);
},
{
closed = 1;
nodes = (
"201 520 OFFCURVE",
"162 457 OFFCURVE",
"132 422 CURVE",
"95 415 OFFCURVE",
"74 442 OFFCURVE",
"77 479 CURVE",
"88 497 OFFCURVE",
"132 536 OFFCURVE",
"132 552 CURVE SMOOTH",
"132 554 LINE",
"147 564 OFFCURVE",
"171 577 OFFCURVE",
"188 577 CURVE SMOOTH",
"197 577 OFFCURVE",
"201 573 OFFCURVE",
"201 564 CURVE SMOOTH"
);
},
{
closed = 1;
nodes = (
"102 393 OFFCURVE",
"82 375 OFFCURVE",
"63 375 CURVE SMOOTH",
"34 375 OFFCURVE",
"51 430 OFFCURVE",
"56 441 CURVE",
"72 423 OFFCURVE",
"91 407 OFFCURVE",
"115 405 CURVE"
);
}
);
width = 293;
}
);
note = ordmasculine;
unicode = 00BA;
},
{
color = 3;
glyphname = Omega;
lastChange = "2021-08-03 12:26:09 +0000";
layers = (
{
hints = (
{
horizontal = 1;
place = "{1, 33}";
type = Stem;
},
{
horizontal = 1;
place = "{467, 18}";
type = Stem;
},
{
place = "{165, 28}";
type = Stem;
},
{
place = "{600, 23}";
type = Stem;
}
);
layerId = "C7EEC47D-2D39-4E2B-85C4-E2E866CE7804";
paths = (
{
closed = 1;
nodes = (
"211 5 LINE SMOOTH",
"216 5 OFFCURVE",
"219 11 OFFCURVE",
"216 14 CURVE",
"201 35 LINE",
"144 173 OFFCURVE",
"386 457 OFFCURVE",
"535 467 CURVE SMOOTH",
"693 483 OFFCURVE",
"522 236 OFFCURVE",
"472 179 CURVE SMOOTH",
"417 116 OFFCURVE",
"374 64 OFFCURVE",
"320 30 CURVE SMOOTH",
"311 25 OFFCURVE",
"289 13 OFFCURVE",
"284 7 CURVE",
"281 1 OFFCURVE",
"286 -1 OFFCURVE",
"291 -1 CURVE SMOOTH",
"342 0 OFFCURVE",
"456 1 OFFCURVE",
"484 3 CURVE SMOOTH",
"494 3 OFFCURVE",
"512 20 OFFCURVE",
"514 28 CURVE SMOOTH",
"515 35 OFFCURVE",
"507 33 OFFCURVE",
"492 33 CURVE SMOOTH",
"471 33 OFFCURVE",
"376 20 OFFCURVE",
"335 21 CURVE",
"396 50 OFFCURVE",
"456 114 OFFCURVE",
"504 167 CURVE SMOOTH",
"549 217 OFFCURVE",
"727 485 OFFCURVE",
"538 485 CURVE SMOOTH",
"367 487 OFFCURVE",
"107 246 OFFCURVE",
"177 35 CURVE",
"143 37 OFFCURVE",
"77 33 OFFCURVE",
"57 34 CURVE SMOOTH",
"30 34 OFFCURVE",
"19 1 OFFCURVE",
"53 1 CURVE SMOOTH",
"210 5 LINE"
);
}
);
width = 653;
}
);
note = Omega;
unicode = 2126;
},
{
color = 3;
glyphname = ae;
lastChange = "2021-08-03 12:26:09 +0000";
layers = (
{
hints = (
{
horizontal = 1;
place = "{-1, 17}";
type = Stem;
},
{
horizontal = 1;
place = "{252, 40}";
type = Stem;
},
{
place = "{25, 33}";
type = Stem;
},
{
place = "{182, 42}";
type = Stem;
},
{
place = "{286, 33}";
type = Stem;
},
{
place = "{490, 27}";
type = Stem;
},
{
horizontal = 1;
place = "{-11, 21}";
target = up;
type = BottomGhost;
},
{
horizontal = 1;
place = "{-11, 29}";
type = Stem;
},
{
horizontal = 1;
place = "{-19, 21}";
target = up;
type = BottomGhost;
}
);
layerId = "C7EEC47D-2D39-4E2B-85C4-E2E866CE7804";
paths = (
{
closed = 1;
nodes = (
"384 -1 OFFCURVE",
"422 28 OFFCURVE",
"450 52 CURVE SMOOTH",
"466 66 OFFCURVE",
"577 166 OFFCURVE",
"577 182 CURVE SMOOTH",
"577 185 OFFCURVE",
"575 187 OFFCURVE",
"571 187 CURVE SMOOTH",
"567 187 OFFCURVE",
"561 184 OFFCURVE",
"558 181 CURVE SMOOTH",
"526 147 LINE SMOOTH",
"494 116 OFFCURVE",
"380 16 OFFCURVE",
"338 16 CURVE SMOOTH",
"325 16 OFFCURVE",
"319 27 OFFCURVE",
"319 39 CURVE SMOOTH",
"319 62 OFFCURVE",
"335 92 OFFCURVE",
"347 111 CURVE",
"382 116 OFFCURVE",
"473 172 OFFCURVE",
"500 196 CURVE SMOOTH",
"509 204 OFFCURVE",
"517 214 OFFCURVE",
"517 227 CURVE SMOOTH",
"517 238 OFFCURVE",
"512 247 OFFCURVE",
"507 256 CURVE SMOOTH",
"504 262 OFFCURVE",
"503 269 OFFCURVE",
"501 275 CURVE SMOOTH",
"498 285 OFFCURVE",
"495 290 OFFCURVE",
"484 290 CURVE SMOOTH",
"403 290 OFFCURVE",
"286 136 OFFCURVE",
"286 58 CURVE SMOOTH",
"286 56 LINE",
"260 32 OFFCURVE",
"237 14 OFFCURVE",
"227 11 CURVE SMOOTH",
"220 9 OFFCURVE",
"223 18 OFFCURVE",
"224 22 CURVE SMOOTH",
"234 63 OFFCURVE",
"268 145 OFFCURVE",
"301 171 CURVE",
"302 173 OFFCURVE",
"302 175 OFFCURVE",
"302 177 CURVE SMOOTH",
"302 191 OFFCURVE",
"285 218 OFFCURVE",
"270 218 CURVE SMOOTH",
"265 218 OFFCURVE",
"263 215 OFFCURVE",
"260 211 CURVE SMOOTH",
"250 197 OFFCURVE",
"242 182 OFFCURVE",
"231 168 CURVE SMOOTH",
"189 111 OFFCURVE",
"131 54 OFFCURVE",
"69 20 CURVE SMOOTH",
"67 19 OFFCURVE",
"64 18 OFFCURVE",
"62 18 CURVE SMOOTH",
"58 18 OFFCURVE",
"58 24 OFFCURVE",
"58 27 CURVE SMOOTH",
"58 38 OFFCURVE",
"62 49 OFFCURVE",
"66 58 CURVE SMOOTH",
"94 123 OFFCURVE",
"189 252 OFFCURVE",
"264 252 CURVE SMOOTH",
"298 252 OFFCURVE",
"312 216 OFFCURVE",
"319 216 CURVE SMOOTH",
"327 216 OFFCURVE",
"328 236 OFFCURVE",
"328 242 CURVE SMOOTH",
"328 275 OFFCURVE",
"303 292 OFFCURVE",
"267 292 CURVE SMOOTH",
"184 292 OFFCURVE",
"25 143 OFFCURVE",
"25 42 CURVE SMOOTH",
"25 13 OFFCURVE",
"44 -11 OFFCURVE",
"74 -11 CURVE SMOOTH",
"116 -11 OFFCURVE",
"204 124 OFFCURVE",
"241 155 CURVE",
"224 130 OFFCURVE",
"182 57 OFFCURVE",
"182 27 CURVE SMOOTH",
"182 9 OFFCURVE",
"212 -19 OFFCURVE",
"230 -19 CURVE SMOOTH",
"236 -19 OFFCURVE",
"261 3 OFFCURVE",
"290 31 CURVE",
"298 10 OFFCURVE",
"318 -1 OFFCURVE",
"346 -1 CURVE SMOOTH"
);
},
{
closed = 1;
nodes = (
"490 248 OFFCURVE",
"490 247 OFFCURVE",
"490 245 CURVE SMOOTH",
"490 214 OFFCURVE",
"390 152 OFFCURVE",
"364 137 CURVE",
"382 163 OFFCURVE",
"449 251 OFFCURVE",
"485 251 CURVE SMOOTH",
"486 251 OFFCURVE",
"488 251 OFFCURVE",
"489 250 CURVE SMOOTH"
);
}
);
width = 466;
}
);
note = ae;
unicode = 00E6;
},
{
color = 3;
glyphname = oslash;
lastChange = "2021-08-03 12:26:09 +0000";
layers = (
{
hints = (
{
horizontal = 1;
place = "{38, 17}";
type = Stem;
}
);
layerId = "C7EEC47D-2D39-4E2B-85C4-E2E866CE7804";
paths = (
{
closed = 1;
nodes = (
"-43 -138 OFFCURVE",
"-19 -136 OFFCURVE",
"-14 -130 CURVE SMOOTH",
"73 -16 LINE",
"79 -19 OFFCURVE",
"87 -21 OFFCURVE",
"95 -21 CURVE SMOOTH",
"132 -21 OFFCURVE",
"175 12 OFFCURVE",
"200 37 CURVE",
"270 48 OFFCURVE",
"339 100 OFFCURVE",
"383 154 CURVE",
"384 156 OFFCURVE",
"390 163 OFFCURVE",
"390 165 CURVE SMOOTH",
"390 168 OFFCURVE",
"389 172 OFFCURVE",
"385 172 CURVE SMOOTH",
"377 172 OFFCURVE",
"373 168 OFFCURVE",
"368 163 CURVE SMOOTH",
"325 123 OFFCURVE",
"284 81 OFFCURVE",
"226 65 CURVE",
"236 75 OFFCURVE",
"245 86 OFFCURVE",
"254 98 CURVE SMOOTH",
"288 144 OFFCURVE",
"323 192 OFFCURVE",
"323 251 CURVE SMOOTH",
"323 268 OFFCURVE",
"317 281 OFFCURVE",
"307 288 CURVE",
"357 354 LINE",
"371 368 OFFCURVE",
"334 369 OFFCURVE",
"325 358 CURVE SMOOTH",
"309 341 OFFCURVE",
"291 320 OFFCURVE",
"273 297 CURVE",
"239 295 OFFCURVE",
"203 277 OFFCURVE",
"176 258 CURVE",
"167 265 OFFCURVE",
"154 270 OFFCURVE",
"145 259 CURVE SMOOTH",
"104 213 OFFCURVE",
"38 119 OFFCURVE",
"38 51 CURVE SMOOTH",
"38 29 OFFCURVE",
"46 5 OFFCURVE",
"62 -9 CURVE",
"29 -55 OFFCURVE",
"-4 -97 OFFCURVE",
"-34 -129 CURVE SMOOTH"
);
},
{
closed = 1;
nodes = (
"91 -4 OFFCURVE",
"87 -3 OFFCURVE",
"84 -1 CURVE",
"286 261 LINE",
"286 259 OFFCURVE",
"287 257 OFFCURVE",
"287 254 CURVE SMOOTH",
"287 191 OFFCURVE",
"232 106 OFFCURVE",
"192 59 CURVE",
"174 30 OFFCURVE",
"121 -4 OFFCURVE",
"96 -4 CURVE SMOOTH"
);
},
{
closed = 1;
nodes = (
"126 180 OFFCURVE",
"169 213 OFFCURVE",
"188 236 CURVE",
"204 247 OFFCURVE",
"231 264 OFFCURVE",
"253 270 CURVE",
"197 194 OFFCURVE",
"136 96 OFFCURVE",
"76 10 CURVE",
"68 33 OFFCURVE",
"81 74 OFFCURVE",
"86 85 CURVE SMOOTH"
);
}
);
width = 293;
}
);
note = oslash;
unicode = 00F8;
},
{
color = 3;
glyphname = questiondown;
lastChange = "2021-08-03 12:26:09 +0000";
layers = (
{
hints = (
{
place = "{99, 72}";
type = Stem;
}
);
layerId = "C7EEC47D-2D39-4E2B-85C4-E2E866CE7804";
paths = (
{
closed = 1;
nodes = (
"237 94 OFFCURVE",
"174 65 OFFCURVE",
"110 42 CURVE SMOOTH",
"36 15 OFFCURVE",
"-100 -41 OFFCURVE",
"-100 -139 CURVE SMOOTH",
"-100 -216 OFFCURVE",
"-16 -243 OFFCURVE",
"48 -243 CURVE SMOOTH",
"143 -243 OFFCURVE",
"225 -217 OFFCURVE",
"225 -145 CURVE SMOOTH",
"225 -128 OFFCURVE",
"214 -106 OFFCURVE",
"198 -106 CURVE",
"193 -107 OFFCURVE",
"192 -112 OFFCURVE",
"192 -116 CURVE SMOOTH",
"192 -127 OFFCURVE",
"196 -138 OFFCURVE",
"196 -149 CURVE SMOOTH",
"196 -203 OFFCURVE",
"103 -211 OFFCURVE",
"67 -211 CURVE SMOOTH",
"22 -211 OFFCURVE",
"-58 -188 OFFCURVE",
"-58 -131 CURVE SMOOTH",
"-58 -127 OFFCURVE",
"-58 -122 OFFCURVE",
"-56 -118 CURVE SMOOTH",
"-9 7 OFFCURVE",
"254 36 OFFCURVE",
"293 139 CURVE SMOOTH",
"313 192 OFFCURVE",
"280 168 OFFCURVE",
"272 155 CURVE SMOOTH"
);
},
{
closed = 1;
nodes = (
"310 266 OFFCURVE",
"322 255 OFFCURVE",
"333 255 CURVE SMOOTH",
"353 255 OFFCURVE",
"384 291 OFFCURVE",
"384 308 CURVE SMOOTH",
"384 327 OFFCURVE",
"361 330 OFFCURVE",
"349 330 CURVE SMOOTH",
"338 330 OFFCURVE",
"312 289 OFFCURVE",
"311 279 CURVE SMOOTH"
);
}
);
width = 416;
}
);
note = questiondown;
unicode = 00BF;
},
{
color = 3;
glyphname = exclamdown;
lastChange = "2021-08-03 12:26:09 +0000";
layers = (
{
hints = (
{
horizontal = 1;
place = "{-248, 581}";
type = Stem;
},
{
place = "{-51, 377}";
type = Stem;
}
);
layerId = "C7EEC47D-2D39-4E2B-85C4-E2E866CE7804";
paths = (
{
closed = 1;
nodes = (
"-51 -247 OFFCURVE",
"-41 -249 OFFCURVE",
"-33 -247 CURVE SMOOTH",
"1 -240 OFFCURVE",
"17 -222 OFFCURVE",
"38 -201 CURVE",
"69 -155 OFFCURVE",
"217 76 OFFCURVE",
"252 175 CURVE SMOOTH",
"260 199 OFFCURVE",
"242 224 OFFCURVE",
"224 184 CURVE SMOOTH",
"193 115 OFFCURVE",
"-31 -183 OFFCURVE",
"-51 -240 CURVE"
);
},
{
closed = 1;
nodes = (
"260 272 OFFCURVE",
"269 260 OFFCURVE",
"281 260 CURVE SMOOTH",
"286 260 OFFCURVE",
"292 263 OFFCURVE",
"295 267 CURVE SMOOTH",
"302 276 OFFCURVE",
"326 301 OFFCURVE",
"326 311 CURVE SMOOTH",
"326 328 OFFCURVE",
"303 333 OFFCURVE",
"290 333 CURVE SMOOTH",
"280 333 OFFCURVE",
"259 292 OFFCURVE",
"257 283 CURVE"
);
}
);
width = 330;
}
);
note = exclamdown;
unicode = 00A1;
},
{
color = 3;
glyphname = logicalnot;
lastChange = "2021-08-03 12:26:09 +0000";
layers = (
{
hints = (
{
horizontal = 1;
place = "{199, 31}";
type = Stem;
},
{
place = "{118, 527}";
type = Stem;
}
);
layerId = "C7EEC47D-2D39-4E2B-85C4-E2E866CE7804";
paths = (
{
closed = 1;
nodes = (
"266 198 OFFCURVE",
"410 204 OFFCURVE",
"573 199 CURVE",
"567 193 OFFCURVE",
"484 105 OFFCURVE",
"471 44 CURVE SMOOTH",
"468 31 OFFCURVE",
"456 -12 OFFCURVE",
"481 28 CURVE SMOOTH",
"515 83 OFFCURVE",
"594 161 OFFCURVE",
"629 200 CURVE SMOOTH",
"655 228 OFFCURVE",
"649 245 OFFCURVE",
"612 244 CURVE SMOOTH",
"470 239 OFFCURVE",
"346 239 OFFCURVE",
"131 230 CURVE SMOOTH",
"122 230 OFFCURVE",
"102 214 OFFCURVE",
"144 210 CURVE SMOOTH"
);
}
);
width = 674;
}
);
note = logicalnot;
unicode = 00AC;
},
{
color = 3;
glyphname = florin;
lastChange = "2021-08-03 12:26:09 +0000";
layers = (
{
hints = (
{
horizontal = 1;
place = "{-241, 31}";
type = Stem;
},
{
horizontal = 1;
place = "{215, 29}";
type = Stem;
},
{
horizontal = 1;
place = "{547, 22}";
type = Stem;
},
{
place = "{514, 27}";
type = Stem;
}
);
layerId = "C7EEC47D-2D39-4E2B-85C4-E2E866CE7804";
paths = (
{
closed = 1;
nodes = (
"227 215 LINE SMOOTH",
"268 215 OFFCURVE",
"311 216 OFFCURVE",
"311 232 CURVE SMOOTH",
"311 243 OFFCURVE",
"266 244 OFFCURVE",
"249 244 CURVE SMOOTH",
"220 244 LINE",
"274 330 OFFCURVE",
"328 408 OFFCURVE",
"391 479 CURVE SMOOTH",
"490 588 OFFCURVE",
"545 547 OFFCURVE",
"496 487 CURVE SMOOTH",
"478 466 OFFCURVE",
"476 456 OFFCURVE",
"491 460 CURVE SMOOTH",
"517 466 OFFCURVE",
"536 491 OFFCURVE",
"541 511 CURVE SMOOTH",
"547 535 OFFCURVE",
"533 553 OFFCURVE",
"512 562 CURVE SMOOTH",
"399 614 OFFCURVE",
"242 386 OFFCURVE",
"157 244 CURVE",
"94 244 LINE SMOOTH",
"62 244 OFFCURVE",
"29 215 OFFCURVE",
"62 215 CURVE SMOOTH",
"140 215 LINE",
"118 177 OFFCURVE",
"104 149 OFFCURVE",
"100 141 CURVE SMOOTH",
"40 41 OFFCURVE",
"-80 -210 OFFCURVE",
"-187 -210 CURVE SMOOTH",
"-263 -210 OFFCURVE",
"-247 -171 OFFCURVE",
"-275 -157 CURVE SMOOTH",
"-281 -154 OFFCURVE",
"-292 -170 OFFCURVE",
"-285 -196 CURVE SMOOTH",
"-279 -218 OFFCURVE",
"-247 -241 OFFCURVE",
"-217 -241 CURVE SMOOTH",
"-78 -241 OFFCURVE",
"47 -38 OFFCURVE",
"62 -13 CURVE SMOOTH",
"113 68 OFFCURVE",
"158 144 OFFCURVE",
"202 215 CURVE"
);
}
);
width = 312;
}
);
note = florin;
unicode = 0192;
},
{
color = 3;
glyphname = ellipsis;
lastChange = "2021-08-03 12:26:09 +0000";
layers = (
{
hints = (
{
horizontal = 1;
place = "{-30, 64}";
type = Stem;
}
);
layerId = "C7EEC47D-2D39-4E2B-85C4-E2E866CE7804";
paths = (
{
closed = 1;
nodes = (
"173 58 OFFCURVE",
"161 69 OFFCURVE",
"150 69 CURVE SMOOTH",
"130 69 OFFCURVE",
"99 33 OFFCURVE",
"99 16 CURVE SMOOTH",
"99 -3 OFFCURVE",
"122 -6 OFFCURVE",
"134 -6 CURVE SMOOTH",
"145 -6 OFFCURVE",
"171 35 OFFCURVE",
"172 45 CURVE SMOOTH"
);
},
{
closed = 1;
nodes = (
"356 58 OFFCURVE",
"344 69 OFFCURVE",
"333 69 CURVE SMOOTH",
"313 69 OFFCURVE",
"282 33 OFFCURVE",
"282 16 CURVE SMOOTH",
"282 -3 OFFCURVE",
"305 -6 OFFCURVE",
"317 -6 CURVE SMOOTH",
"328 -6 OFFCURVE",
"354 35 OFFCURVE",
"355 45 CURVE SMOOTH"
);
},
{
closed = 1;
nodes = (
"539 58 OFFCURVE",
"527 69 OFFCURVE",
"516 69 CURVE SMOOTH",
"496 69 OFFCURVE",
"465 33 OFFCURVE",
"465 16 CURVE SMOOTH",
"465 -3 OFFCURVE",
"488 -6 OFFCURVE",
"500 -6 CURVE SMOOTH",
"511 -6 OFFCURVE",
"537 35 OFFCURVE",
"538 45 CURVE SMOOTH"
);
}
);
width = 624;
}
);
note = ellipsis;
unicode = 2026;
},
{
color = 3;
glyphname = OE;
lastChange = "2021-08-03 12:26:09 +0000";
layers = (
{
hints = (
{
horizontal = 1;
place = "{-25, 33}";
type = Stem;
},
{
horizontal = 1;
place = "{549, 35}";
type = Stem;
},
{
place = "{59, 35}";
type = Stem;
},
{
place = "{715, 46}";
type = Stem;
},
{
horizontal = 1;
place = "{560, 31}";
type = Stem;
},
{
horizontal = 1;
place = "{-26, 50}";
type = Stem;
}
);
layerId = "C7EEC47D-2D39-4E2B-85C4-E2E866CE7804";
paths = (
{
closed = 1;
nodes = (
"1168 501 OFFCURVE",
"1203 559 OFFCURVE",
"1149 575 CURVE",
"1101 583 OFFCURVE",
"1052 584 OFFCURVE",
"1005 584 CURVE SMOOTH",
"958 584 OFFCURVE",
"737 586 OFFCURVE",
"743 529 CURVE SMOOTH",
"746 505 OFFCURVE",
"759 517 OFFCURVE",
"766 504 CURVE",
"758 494 OFFCURVE",
"750 481 OFFCURVE",
"741 467 CURVE",
"699 555 OFFCURVE",
"595 591 OFFCURVE",
"491 591 CURVE SMOOTH",
"355 591 OFFCURVE",
"187 527 OFFCURVE",
"104 416 CURVE SMOOTH",
"90 398 OFFCURVE",
"100 384 OFFCURVE",
"120 402 CURVE SMOOTH",
"172 449 OFFCURVE",
"233 488 OFFCURVE",
"299 511 CURVE",
"194 421 OFFCURVE",
"59 284 OFFCURVE",
"59 136 CURVE SMOOTH",
"59 30 OFFCURVE",
"114 -25 OFFCURVE",
"219 -25 CURVE SMOOTH",
"313 -25 OFFCURVE",
"445 20 OFFCURVE",
"555 91 CURVE",
"555 89 OFFCURVE",
"556 87 OFFCURVE",
"556 85 CURVE SMOOTH",
"566 4 OFFCURVE",
"623 -26 OFFCURVE",
"697 -26 CURVE SMOOTH",
"801 -26 OFFCURVE",
"1073 65 OFFCURVE",
"1126 142 CURVE SMOOTH",
"1132 151 OFFCURVE",
"1133 160 OFFCURVE",
"1119 153 CURVE SMOOTH",
"1020 98 OFFCURVE",
"828 25 OFFCURVE",
"707 25 CURVE SMOOTH",
"516 25 OFFCURVE",
"666 261 OFFCURVE",
"684 300 CURVE",
"792 345 OFFCURVE",
"925 324 OFFCURVE",
"1040 343 CURVE SMOOTH",
"1050 345 OFFCURVE",
"1099 362 OFFCURVE",
"1065 366 CURVE SMOOTH",
"1029 370 OFFCURVE",
"991 369 OFFCURVE",
"955 369 CURVE SMOOTH",
"878 369 OFFCURVE",
"802 358 OFFCURVE",
"725 360 CURVE",
"748 391 OFFCURVE",
"839 506 OFFCURVE",
"865 523 CURVE SMOOTH",
"894 543 OFFCURVE",
"1027 549 OFFCURVE",
"1067 549 CURVE SMOOTH",
"1088 549 OFFCURVE",
"1125 550 OFFCURVE",
"1146 541 CURVE"
);
},
{
closed = 1;
nodes = (
"134 8 OFFCURVE",
"94 48 OFFCURVE",
"94 126 CURVE SMOOTH",
"94 264 OFFCURVE",
"288 447 OFFCURVE",
"412 486 CURVE SMOOTH",
"418 488 OFFCURVE",
"423 492 OFFCURVE",
"423 499 CURVE SMOOTH",
"423 523 OFFCURVE",
"386 535 OFFCURVE",
"368 538 CURVE",
"414 553 OFFCURVE",
"462 560 OFFCURVE",
"510 560 CURVE SMOOTH",
"597 560 OFFCURVE",
"710 532 OFFCURVE",
"714 426 CURVE",
"684 382 OFFCURVE",
"647 339 OFFCURVE",
"602 339 CURVE SMOOTH",
"593 339 OFFCURVE",
"565 347 OFFCURVE",
"567 330 CURVE SMOOTH",
"570 303 OFFCURVE",
"610 303 OFFCURVE",
"628 302 CURVE",
"609 263 OFFCURVE",
"582 215 OFFCURVE",
"566 166 CURVE",
"459 73 OFFCURVE",
"315 8 OFFCURVE",
"211 8 CURVE SMOOTH"
);
}
);
width = 1058;
}
);
note = OE;
unicode = 0152;
},
{
color = 3;
glyphname = oe;
lastChange = "2021-08-03 12:26:09 +0000";
layers = (
{
hints = (
{
horizontal = 1;
place = "{38, 17}";
type = Stem;
}
);
layerId = "C7EEC47D-2D39-4E2B-85C4-E2E866CE7804";
paths = (
{
closed = 1;
nodes = (
"316 -1 OFFCURVE",
"354 28 OFFCURVE",
"382 52 CURVE SMOOTH",
"398 66 OFFCURVE",
"509 166 OFFCURVE",
"509 182 CURVE SMOOTH",
"509 185 OFFCURVE",
"507 187 OFFCURVE",
"503 187 CURVE SMOOTH",
"499 187 OFFCURVE",
"493 184 OFFCURVE",
"490 181 CURVE SMOOTH",
"458 147 LINE SMOOTH",
"426 116 OFFCURVE",
"312 16 OFFCURVE",
"270 16 CURVE SMOOTH",
"257 16 OFFCURVE",
"251 27 OFFCURVE",
"251 39 CURVE SMOOTH",
"251 62 OFFCURVE",
"267 92 OFFCURVE",
"279 111 CURVE",
"314 116 OFFCURVE",
"405 172 OFFCURVE",
"432 196 CURVE SMOOTH",
"441 204 OFFCURVE",
"449 214 OFFCURVE",
"449 227 CURVE SMOOTH",
"449 238 OFFCURVE",
"444 247 OFFCURVE",
"439 256 CURVE SMOOTH",
"436 262 OFFCURVE",
"435 269 OFFCURVE",
"433 275 CURVE SMOOTH",
"430 285 OFFCURVE",
"427 290 OFFCURVE",
"416 290 CURVE SMOOTH",
"387 290 OFFCURVE",
"354 270 OFFCURVE",
"323 242 CURVE",
"323 251 LINE SMOOTH",
"323 280 OFFCURVE",
"307 297 OFFCURVE",
"278 297 CURVE SMOOTH",
"243 297 OFFCURVE",
"204 278 OFFCURVE",
"176 258 CURVE",
"167 265 OFFCURVE",
"154 270 OFFCURVE",
"145 259 CURVE SMOOTH",
"104 213 OFFCURVE",
"38 119 OFFCURVE",
"38 51 CURVE SMOOTH",
"38 17 OFFCURVE",
"56 -21 OFFCURVE",
"95 -21 CURVE SMOOTH",
"132 -21 OFFCURVE",
"176 11 OFFCURVE",
"200 37 CURVE SMOOTH",
"218 56 LINE",
"218 18 OFFCURVE",
"240 -1 OFFCURVE",
"278 -1 CURVE SMOOTH"
);
},
{
closed = 1;
nodes = (
"158 22 OFFCURVE",
"132 -4 OFFCURVE",
"96 -4 CURVE SMOOTH",
"57 -4 OFFCURVE",
"79 70 OFFCURVE",
"86 85 CURVE",
"129 160 OFFCURVE",
"188 212 OFFCURVE",
"188 233 CURVE SMOOTH",
"188 236 LINE",
"208 250 OFFCURVE",
"245 273 OFFCURVE",
"269 273 CURVE SMOOTH",
"282 273 OFFCURVE",
"287 266 OFFCURVE",
"287 254 CURVE SMOOTH",
"287 231 OFFCURVE",
"282 209 OFFCURVE",
"274 187 CURVE",
"254 161 OFFCURVE",
"238 132 OFFCURVE",
"228 106 CURVE",
"218 92 OFFCURVE",
"208 79 OFFCURVE",
"198 68 CURVE SMOOTH"
);
},
{
closed = 1;
nodes = (
"422 248 OFFCURVE",
"422 247 OFFCURVE",
"422 245 CURVE SMOOTH",
"422 214 OFFCURVE",
"322 152 OFFCURVE",
"296 137 CURVE",
"314 163 OFFCURVE",
"381 251 OFFCURVE",
"417 251 CURVE SMOOTH",
"418 251 OFFCURVE",
"420 251 OFFCURVE",
"421 250 CURVE SMOOTH"
);
}
);
width = 398;
}
);
note = oe;
unicode = 0153;
},
{
color = 3;
glyphname = endash;
lastChange = "2021-08-03 12:26:09 +0000";
layers = (
{
hints = (
{
horizontal = 1;
place = "{216, 37}";
type = Stem;
},
{
place = "{107, 332}";
type = Stem;
}
);
layerId = "C7EEC47D-2D39-4E2B-85C4-E2E866CE7804";
paths = (
{
closed = 1;
nodes = (
"345 216 LINE SMOOTH",
"386 216 OFFCURVE",
"439 225 OFFCURVE",
"439 241 CURVE SMOOTH",
"439 252 OFFCURVE",
"394 253 OFFCURVE",
"377 253 CURVE SMOOTH",
"161 253 LINE SMOOTH",
"129 253 OFFCURVE",
"86 216 OFFCURVE",
"119 216 CURVE SMOOTH"
);
}
);
width = 445;
}
);
note = endash;
unicode = 2013;
},
{
color = 3;
glyphname = emdash;
lastChange = "2021-08-03 12:26:09 +0000";
layers = (
{
hints = (
{
horizontal = 1;
place = "{216, 37}";
type = Stem;
},
{
place = "{107, 572}";
type = Stem;
}
);
layerId = "C7EEC47D-2D39-4E2B-85C4-E2E866CE7804";
paths = (
{
closed = 1;
nodes = (
"585 216 LINE SMOOTH",
"626 216 OFFCURVE",
"679 225 OFFCURVE",
"679 241 CURVE SMOOTH",
"679 252 OFFCURVE",
"634 253 OFFCURVE",
"617 253 CURVE SMOOTH",
"161 253 LINE SMOOTH",
"129 253 OFFCURVE",
"86 216 OFFCURVE",
"119 216 CURVE SMOOTH"
);
}
);
width = 687;
}
);
note = emdash;
unicode = 2014;
},
{
color = 3;
glyphname = quotedblleft;
lastChange = "2021-08-03 12:26:09 +0000";
layers = (
{
hints = (
{
horizontal = 1;
place = "{407, 175}";
type = Stem;
},
{
place = "{90, 56}";
type = Stem;
}
);
layerId = "C7EEC47D-2D39-4E2B-85C4-E2E866CE7804";
paths = (
{
closed = 1;
nodes = (
"86 416 OFFCURVE",
"93 407 OFFCURVE",
"101 407 CURVE SMOOTH",
"115 407 OFFCURVE",
"145 436 OFFCURVE",
"146 456 CURVE SMOOTH",
"147 465 OFFCURVE",
"141 468 OFFCURVE",
"142 475 CURVE SMOOTH",
"145 508 OFFCURVE",
"218 563 OFFCURVE",
"219 577 CURVE SMOOTH",
"219 579 OFFCURVE",
"220 581 OFFCURVE",
"218 582 CURVE",
"184 570 OFFCURVE",
"107 508 OFFCURVE",
"90 439 CURVE"
);
},
{
closed = 1;
nodes = (
"192 416 OFFCURVE",
"199 407 OFFCURVE",
"207 407 CURVE SMOOTH",
"221 407 OFFCURVE",
"251 436 OFFCURVE",
"252 456 CURVE SMOOTH",
"253 465 OFFCURVE",
"247 468 OFFCURVE",
"248 475 CURVE SMOOTH",
"251 508 OFFCURVE",
"324 563 OFFCURVE",
"325 577 CURVE SMOOTH",
"325 579 OFFCURVE",
"326 581 OFFCURVE",
"324 582 CURVE",
"290 570 OFFCURVE",
"213 508 OFFCURVE",
"196 439 CURVE"
);
}
);
width = 271;
}
);
note = quotedblleft;
unicode = 201C;
},
{
color = 3;
glyphname = quotedblright;
lastChange = "2021-08-03 12:26:09 +0000";
layers = (
{
hints = (
{
horizontal = 1;
place = "{407, 175}";
type = Stem;
},
{
place = "{424, 56}";
type = Stem;
}
);
layerId = "C7EEC47D-2D39-4E2B-85C4-E2E866CE7804";
paths = (
{
closed = 1;
nodes = (
"484 573 OFFCURVE",
"477 582 OFFCURVE",
"469 582 CURVE SMOOTH",
"455 582 OFFCURVE",
"425 553 OFFCURVE",
"424 533 CURVE SMOOTH",
"423 524 OFFCURVE",
"429 521 OFFCURVE",
"428 514 CURVE SMOOTH",
"425 481 OFFCURVE",
"352 426 OFFCURVE",
"351 412 CURVE SMOOTH",
"351 410 OFFCURVE",
"350 408 OFFCURVE",
"352 407 CURVE",
"386 419 OFFCURVE",
"463 481 OFFCURVE",
"480 550 CURVE"
);
},
{
closed = 1;
nodes = (
"378 573 OFFCURVE",
"371 582 OFFCURVE",
"363 582 CURVE SMOOTH",
"349 582 OFFCURVE",
"319 553 OFFCURVE",
"318 533 CURVE SMOOTH",
"317 524 OFFCURVE",
"323 521 OFFCURVE",
"322 514 CURVE SMOOTH",
"319 481 OFFCURVE",
"246 426 OFFCURVE",
"245 412 CURVE SMOOTH",
"245 410 OFFCURVE",
"244 408 OFFCURVE",
"246 407 CURVE",
"280 419 OFFCURVE",
"357 481 OFFCURVE",
"374 550 CURVE"
);
}
);
width = 516;
}
);
note = quotedblright;
unicode = 201D;
},
{
color = 3;
glyphname = quoteleft;
lastChange = "2021-08-03 12:26:09 +0000";
layers = (
{
hints = (
{
horizontal = 1;
place = "{407, 175}";
type = Stem;
},
{
place = "{90, 56}";
type = Stem;
}
);
layerId = "C7EEC47D-2D39-4E2B-85C4-E2E866CE7804";
paths = (
{
closed = 1;
nodes = (
"86 416 OFFCURVE",
"93 407 OFFCURVE",
"101 407 CURVE SMOOTH",
"115 407 OFFCURVE",
"145 436 OFFCURVE",
"146 456 CURVE SMOOTH",
"147 465 OFFCURVE",
"141 468 OFFCURVE",
"142 475 CURVE SMOOTH",
"145 508 OFFCURVE",
"218 563 OFFCURVE",
"219 577 CURVE SMOOTH",
"219 579 OFFCURVE",
"220 581 OFFCURVE",
"218 582 CURVE",
"184 570 OFFCURVE",
"107 508 OFFCURVE",
"90 439 CURVE"
);
}
);
width = 160;
}
);
note = quoteleft;
unicode = 2018;
},
{
color = 3;
glyphname = quoteright;
lastChange = "2021-08-03 12:26:09 +0000";
layers = (
{
hints = (
{
horizontal = 1;
place = "{407, 175}";
type = Stem;
},
{
place = "{318, 56}";
type = Stem;
}
);
layerId = "C7EEC47D-2D39-4E2B-85C4-E2E866CE7804";
paths = (
{
closed = 1;
nodes = (
"378 573 OFFCURVE",
"371 582 OFFCURVE",
"363 582 CURVE SMOOTH",
"349 582 OFFCURVE",
"319 553 OFFCURVE",
"318 533 CURVE SMOOTH",
"317 524 OFFCURVE",
"323 521 OFFCURVE",
"322 514 CURVE SMOOTH",
"319 481 OFFCURVE",
"246 426 OFFCURVE",
"245 412 CURVE SMOOTH",
"245 410 OFFCURVE",
"244 408 OFFCURVE",
"246 407 CURVE",
"280 419 OFFCURVE",
"357 481 OFFCURVE",
"374 550 CURVE"
);
}
);
width = 407;
}
);
note = quoteright;
unicode = 2019;
},
{
color = 3;
glyphname = Euro;
lastChange = "2021-08-23 23:20:15 +0000";
layers = (
{
hints = (
{
horizontal = 1;
place = "{1, 38}";
type = Stem;
},
{
horizontal = 1;
place = "{196, 33}";
type = Stem;
},
{
horizontal = 1;
place = "{298, 33}";
type = Stem;
},
{
horizontal = 1;
place = "{520, 32}";
type = Stem;
},
{
place = "{123, 58}";
type = Stem;
},
{
place = "{662, 53}";
type = Stem;
}
);
layerId = "C7EEC47D-2D39-4E2B-85C4-E2E866CE7804";
paths = (
{
closed = 1;
nodes = (
"715 531 OFFCURVE",
"677 552 OFFCURVE",
"619 552 CURVE SMOOTH",
"471 552 OFFCURVE",
"319 448 OFFCURVE",
"223 331 CURVE",
"172 331 LINE SMOOTH",
"140 331 OFFCURVE",
"107 298 OFFCURVE",
"140 298 CURVE SMOOTH",
"198 298 LINE",
"181 275 OFFCURVE",
"167 252 OFFCURVE",
"156 229 CURVE",
"85 229 LINE SMOOTH",
"53 229 OFFCURVE",
"20 196 OFFCURVE",
"53 196 CURVE SMOOTH",
"141 196 LINE",
"99 90 OFFCURVE",
"125 1 OFFCURVE",
"264 1 CURVE SMOOTH",
"408 1 OFFCURVE",
"530 70 OFFCURVE",
"576 128 CURVE SMOOTH",
"613 175 OFFCURVE",
"592 170 OFFCURVE",
"573 154 CURVE SMOOTH",
"499 84 OFFCURVE",
"377 39 OFFCURVE",
"284 39 CURVE SMOOTH",
"174 39 OFFCURVE",
"162 109 OFFCURVE",
"203 196 CURVE",
"345 196 LINE SMOOTH",
"386 196 OFFCURVE",
"429 201 OFFCURVE",
"429 217 CURVE SMOOTH",
"429 228 OFFCURVE",
"384 229 OFFCURVE",
"367 229 CURVE SMOOTH",
"220 229 LINE",
"233 251 OFFCURVE",
"249 275 OFFCURVE",
"267 298 CURVE",
"432 298 LINE SMOOTH",
"473 298 OFFCURVE",
"516 303 OFFCURVE",
"516 319 CURVE SMOOTH",
"516 330 OFFCURVE",
"471 331 OFFCURVE",
"454 331 CURVE SMOOTH",
"295 331 LINE",
"385 432 OFFCURVE",
"512 520 OFFCURVE",
"609 520 CURVE SMOOTH",
"652 520 OFFCURVE",
"663 508 OFFCURVE",
"662 496 CURVE SMOOTH",
"658 430 OFFCURVE",
"574 369 OFFCURVE",
"562 344 CURVE SMOOTH",
"561 341 OFFCURVE",
"563 341 OFFCURVE",
"566 340 CURVE",
"569 340 OFFCURVE",
"572 341 OFFCURVE",
"574 344 CURVE",
"623 369 OFFCURVE",
"710 418 OFFCURVE",
"715 485 CURVE"
);
}
);
width = 615;
}
);
note = Euro;
unicode = 20AC;
},
{
color = 3;
glyphname = daggerdbl;
lastChange = "2021-08-03 12:26:09 +0000";
layers = (
{
hints = (
{
horizontal = 1;
place = "{212, 49}";
type = Stem;
},
{
horizontal = 1;
place = "{332, 49}";
type = Stem;
}
);
layerId = "C7EEC47D-2D39-4E2B-85C4-E2E866CE7804";
paths = (
{
closed = 1;
nodes = (
"236 280 LINE SMOOTH",
"277 280 OFFCURVE",
"330 289 OFFCURVE",
"330 305 CURVE SMOOTH",
"330 316 OFFCURVE",
"285 317 OFFCURVE",
"268 317 CURVE SMOOTH",
"214 317 LINE",
"253 435 LINE",
"281 435 LINE SMOOTH",
"322 435 OFFCURVE",
"375 444 OFFCURVE",
"375 460 CURVE SMOOTH",
"375 471 OFFCURVE",
"330 472 OFFCURVE",
"313 472 CURVE SMOOTH",
"266 472 LINE",
"341 699 LINE SMOOTH",
"357 743 OFFCURVE",
"307 730 OFFCURVE",
"297 700 CURVE SMOOTH",
"270 621 OFFCURVE",
"244 546 OFFCURVE",
"220 472 CURVE",
"158 472 LINE SMOOTH",
"126 472 OFFCURVE",
"83 435 OFFCURVE",
"116 435 CURVE SMOOTH",
"209 435 LINE",
"196 395 OFFCURVE",
"183 356 OFFCURVE",
"171 317 CURVE",
"113 317 LINE SMOOTH",
"81 317 OFFCURVE",
"38 280 OFFCURVE",
"71 280 CURVE SMOOTH",
"160 280 LINE",
"115 135 OFFCURVE",
"72 -8 OFFCURVE",
"24 -162 CURVE SMOOTH",
"16 -189 OFFCURVE",
"46 -189 OFFCURVE",
"52 -172 CURVE SMOOTH",
"202 280 LINE"
);
}
);
width = 192;
}
);
note = daggerdbl;
unicode = 2021;
},
{
color = 3;
glyphname = periodcentered;
lastChange = "2021-08-03 12:26:09 +0000";
layers = (
{
hints = (
{
horizontal = 1;
place = "{217, 64}";
type = Stem;
}
);
layerId = "C7EEC47D-2D39-4E2B-85C4-E2E866CE7804";
paths = (
{
closed = 1;
nodes = (
"231 305 OFFCURVE",
"219 316 OFFCURVE",
"208 316 CURVE SMOOTH",
"188 316 OFFCURVE",
"157 280 OFFCURVE",
"157 263 CURVE SMOOTH",
"157 244 OFFCURVE",
"180 241 OFFCURVE",
"192 241 CURVE SMOOTH",
"203 241 OFFCURVE",
"229 282 OFFCURVE",
"230 292 CURVE SMOOTH"
);
}
);
width = 302;
}
);
note = periodcentered;
unicode = 00B7;
},
{
color = 3;
glyphname = quotesinglbase;
lastChange = "2021-08-03 12:26:09 +0000";
layers = (
{
hints = (
{
horizontal = 1;
place = "{-105, 175}";
type = Stem;
},
{
place = "{109, 56}";
type = Stem;
}
);
layerId = "C7EEC47D-2D39-4E2B-85C4-E2E866CE7804";
paths = (
{
closed = 1;
nodes = (
"169 61 OFFCURVE",
"162 70 OFFCURVE",
"154 70 CURVE SMOOTH",
"140 70 OFFCURVE",
"110 41 OFFCURVE",
"109 21 CURVE SMOOTH",
"108 12 OFFCURVE",
"114 9 OFFCURVE",
"113 2 CURVE SMOOTH",
"110 -31 OFFCURVE",
"37 -86 OFFCURVE",
"36 -100 CURVE SMOOTH",
"36 -102 OFFCURVE",
"35 -104 OFFCURVE",
"37 -105 CURVE",
"71 -93 OFFCURVE",
"148 -31 OFFCURVE",
"165 38 CURVE"
);
}
);
width = 407;
}
);
note = quotesinglbase;
unicode = 201A;
},
{
color = 3;
glyphname = quotedblbase;
lastChange = "2021-08-03 12:26:09 +0000";
layers = (
{
hints = (
{
horizontal = 1;
place = "{-105, 175}";
type = Stem;
},
{
place = "{214, 56}";
type = Stem;
}
);
layerId = "C7EEC47D-2D39-4E2B-85C4-E2E866CE7804";
paths = (
{
closed = 1;
nodes = (
"274 61 OFFCURVE",
"267 70 OFFCURVE",
"259 70 CURVE SMOOTH",
"245 70 OFFCURVE",
"215 41 OFFCURVE",
"214 21 CURVE SMOOTH",
"213 12 OFFCURVE",
"219 9 OFFCURVE",
"218 2 CURVE SMOOTH",
"215 -31 OFFCURVE",
"142 -86 OFFCURVE",
"141 -100 CURVE SMOOTH",
"141 -102 OFFCURVE",
"140 -104 OFFCURVE",
"142 -105 CURVE",
"176 -93 OFFCURVE",
"253 -31 OFFCURVE",
"270 38 CURVE"
);
},
{
closed = 1;
nodes = (
"168 61 OFFCURVE",
"161 70 OFFCURVE",
"153 70 CURVE SMOOTH",
"139 70 OFFCURVE",
"109 41 OFFCURVE",
"108 21 CURVE SMOOTH",
"107 12 OFFCURVE",
"113 9 OFFCURVE",
"112 2 CURVE SMOOTH",
"109 -31 OFFCURVE",
"36 -86 OFFCURVE",
"35 -100 CURVE SMOOTH",
"35 -102 OFFCURVE",
"34 -104 OFFCURVE",
"36 -105 CURVE",
"70 -93 OFFCURVE",
"147 -31 OFFCURVE",
"164 38 CURVE"
);
}
);
width = 315;
}
);
note = quotedblbase;
unicode = 201E;
},
